SplineFontDB: 3.0
FontName: PlayfairPies
FullName: Playfair Pies
FamilyName: Playfair
Weight: Medium
Copyright: Created by brian suda with FontForge 2.0 (http://fontforge.sf.net)
UComments: "2013-2-18: Created." 
Version: 001.000
ItalicAngle: 0
UnderlinePosition: -100
UnderlineWidth: 50
Ascent: 800
Descent: 200
LayerCount: 2
Layer: 0 0 "Back"  1
Layer: 1 0 "Fore"  0
XUID: [1021 785 161824154 16470386]
FSType: 0
OS2Version: 0
OS2_WeightWidthSlopeOnly: 0
OS2_UseTypoMetrics: 1
CreationTime: 1361218183
ModificationTime: 1361716377
OS2TypoAscent: 0
OS2TypoAOffset: 1
OS2TypoDescent: 0
OS2TypoDOffset: 1
OS2TypoLinegap: 90
OS2WinAscent: 0
OS2WinAOffset: 1
OS2WinDescent: 0
OS2WinDOffset: 1
HheadAscent: 0
HheadAOffset: 1
HheadDescent: 0
HheadDOffset: 1
MarkAttachClasses: 1
DEI: 91125
Encoding: Custom
UnicodeInterp: none
NameList: Adobe Glyph List
DisplaySize: -96
AntiAlias: 1
FitToEm: 1
WinInfo: 0 8 2
BeginPrivate: 0
EndPrivate
BeginChars: 101 101

StartChar: Percent.00
Encoding: 0 57344 0
Width: 1000
VWidth: 0
HStem: -153.926 63.1291<445.845 543.532> 687.094 66.835<445.845 543.532>
VStem: 40.7646 64.9784<249.305 346.991> 883.634 64.984<249.305 346.991>
LayerCount: 2
Fore
SplineSet
494.652 753.929 m 0
 745.354 753.929 948.618 550.663 948.618 299.964 c 0
 948.618 49.3379 745.353 -153.926 494.652 -153.926 c 0
 243.953 -153.926 40.7646 49.3379 40.7646 299.964 c 0
 40.7627 550.663 243.953 753.929 494.652 753.929 c 0
881.332 249.305 m 1
 883.634 273.679 l 1
 884.406 298.147 l 1
 883.634 322.616 l 1
 881.332 346.991 l 1
 877.499 371.173 l 1
 872.161 395.064 l 1
 865.327 418.58 l 1
 857.037 441.612 l 1
 847.311 464.08 l 1
 836.2 485.897 l 1
 823.733 506.97 l 1
 809.972 527.216 l 1
 794.969 546.562 l 1
 778.777 564.924 l 1
 761.464 582.236 l 1
 743.104 598.428 l 1
 723.757 613.432 l 1
 703.511 627.193 l 1
 682.433 639.659 l 1
 660.621 650.77 l 1
 638.152 660.497 l 1
 615.12 668.787 l 1
 591.604 675.621 l 1
 567.713 680.958 l 1
 543.532 684.791 l 1
 519.157 687.094 l 1
 494.688 687.865 l 1
 470.219 687.094 l 1
 445.845 684.791 l 1
 421.664 680.958 l 1
 397.772 675.621 l 1
 374.265 668.787 l 1
 351.226 660.497 l 1
 328.757 650.77 l 1
 306.945 639.659 l 1
 285.866 627.193 l 1
 265.621 613.432 l 1
 246.273 598.428 l 1
 227.913 582.236 l 1
 210.601 564.924 l 1
 194.409 546.562 l 1
 179.405 527.216 l 1
 165.644 506.97 l 1
 153.177 485.897 l 1
 142.067 464.08 l 1
 132.34 441.612 l 1
 124.05 418.58 l 1
 117.216 395.064 l 1
 111.878 371.173 l 1
 108.045 346.991 l 1
 105.743 322.616 l 1
 104.971 298.147 l 1
 105.743 273.679 l 1
 108.045 249.305 l 1
 111.878 225.122 l 1
 117.216 201.231 l 1
 124.05 177.715 l 1
 132.34 154.684 l 1
 142.067 132.215 l 1
 153.177 110.397 l 1
 165.644 89.3262 l 1
 179.405 69.0791 l 1
 194.409 49.7334 l 1
 210.601 31.3721 l 1
 227.913 14.0586 l 1
 246.273 -2.13281 l 1
 265.621 -17.1348 l 1
 285.866 -30.8965 l 1
 306.945 -43.3633 l 1
 328.757 -54.4736 l 1
 351.226 -64.1992 l 1
 374.258 -72.4912 l 1
 397.772 -79.3242 l 1
 421.664 -84.6611 l 1
 445.845 -88.4941 l 1
 470.219 -90.7969 l 1
 494.688 -91.5693 l 1
 519.157 -90.7969 l 1
 543.532 -88.4941 l 1
 567.713 -84.6611 l 1
 591.604 -79.3242 l 1
 615.113 -72.4912 l 1
 638.152 -64.1992 l 1
 660.621 -54.4736 l 1
 682.433 -43.3633 l 1
 703.511 -30.8965 l 1
 723.757 -17.1348 l 1
 743.104 -2.13281 l 1
 761.464 14.0586 l 1
 778.777 31.3721 l 1
 794.969 49.7334 l 1
 809.972 69.0791 l 1
 823.733 89.3262 l 1
 836.2 110.397 l 1
 847.311 132.215 l 1
 857.037 154.684 l 1
 865.327 177.715 l 1
 872.161 201.231 l 1
 877.499 225.122 l 1
 881.332 249.305 l 1
EndSplineSet
Validated: 1
EndChar

StartChar: Percent.01
Encoding: 1 57345 1
Width: 1000
VWidth: 0
HStem: -153.925 63.1271<445.845 543.531> 687.094 66.835<445.845 494.688 518.764 543.531>
VStem: 40.7656 64.9774<249.305 346.99> 494.689 24.467<575.817 687.094> 883.634 64.984<249.305 346.99>
LayerCount: 2
Fore
SplineSet
494.652 753.929 m 0
 745.354 753.929 948.618 550.663 948.618 299.965 c 0
 948.618 49.3379 745.352 -153.925 494.652 -153.925 c 0
 243.953 -153.925 40.7656 49.3389 40.7656 299.965 c 0
 40.7627 550.663 243.953 753.929 494.652 753.929 c 0
881.332 249.305 m 1
 883.634 273.679 l 1
 884.406 298.147 l 1
 883.634 322.615 l 1
 881.332 346.99 l 1
 877.499 371.173 l 1
 872.161 395.064 l 1
 865.327 418.58 l 1
 857.037 441.612 l 1
 847.311 464.08 l 1
 836.2 485.897 l 1
 823.733 506.97 l 1
 809.971 527.216 l 1
 794.969 546.562 l 1
 778.777 564.924 l 1
 761.464 582.236 l 1
 743.104 598.428 l 1
 723.757 613.432 l 1
 703.511 627.193 l 1
 682.433 639.659 l 1
 660.621 650.77 l 1
 638.152 660.497 l 1
 615.12 668.787 l 1
 591.604 675.621 l 1
 567.713 680.958 l 1
 543.531 684.791 l 1
 519.156 687.094 l 1
 494.689 298.15 l 1
 494.688 687.865 l 1
 470.219 687.094 l 1
 445.845 684.791 l 1
 421.663 680.958 l 1
 397.772 675.621 l 1
 374.265 668.787 l 1
 351.226 660.497 l 1
 328.757 650.77 l 1
 306.945 639.659 l 1
 285.866 627.193 l 1
 265.621 613.432 l 1
 246.273 598.428 l 1
 227.913 582.236 l 1
 210.601 564.924 l 1
 194.409 546.562 l 1
 179.405 527.216 l 1
 165.644 506.97 l 1
 153.177 485.897 l 1
 142.067 464.08 l 1
 132.34 441.612 l 1
 124.05 418.58 l 1
 117.216 395.064 l 1
 111.878 371.173 l 1
 108.045 346.99 l 1
 105.743 322.615 l 1
 104.971 298.147 l 1
 105.743 273.679 l 1
 108.045 249.305 l 1
 111.878 225.121 l 1
 117.216 201.231 l 1
 124.05 177.715 l 1
 132.34 154.684 l 1
 142.067 132.215 l 1
 153.177 110.397 l 1
 165.644 89.3262 l 1
 179.405 69.0781 l 1
 194.409 49.7334 l 1
 210.601 31.3721 l 1
 227.913 14.0586 l 1
 246.273 -2.13379 l 1
 265.621 -17.1348 l 1
 285.866 -30.8975 l 1
 306.945 -43.3633 l 1
 328.757 -54.4736 l 1
 351.226 -64.1992 l 1
 374.258 -72.4912 l 1
 397.772 -79.3252 l 1
 421.663 -84.6611 l 1
 445.845 -88.4941 l 1
 470.219 -90.7979 l 1
 494.688 -91.5703 l 1
 519.156 -90.7979 l 1
 543.531 -88.4941 l 1
 567.713 -84.6611 l 1
 591.604 -79.3252 l 1
 615.113 -72.4912 l 1
 638.152 -64.1992 l 1
 660.621 -54.4736 l 1
 682.433 -43.3633 l 1
 703.511 -30.8975 l 1
 723.757 -17.1348 l 1
 743.104 -2.13379 l 1
 761.464 14.0586 l 1
 778.777 31.3721 l 1
 794.969 49.7334 l 1
 809.971 69.0781 l 1
 823.733 89.3262 l 1
 836.2 110.397 l 1
 847.311 132.215 l 1
 857.037 154.684 l 1
 865.327 177.715 l 1
 872.161 201.231 l 1
 877.499 225.121 l 1
 881.332 249.305 l 1
EndSplineSet
Validated: 1
EndChar

StartChar: Percent.02
Encoding: 2 57346 2
Width: 1000
VWidth: 0
HStem: -153.924 63.1252<445.845 543.53> 687.094 66.835<445.845 494.688 542.748 567.713>
VStem: 40.7656 64.9774<249.305 346.989> 494.689 48.841<629.377 684.791> 883.634 64.984<249.305 346.989>
LayerCount: 2
Fore
SplineSet
494.652 753.929 m 0
 745.354 753.929 948.618 550.663 948.618 299.966 c 0
 948.618 49.3379 745.351 -153.924 494.652 -153.924 c 0
 243.954 -153.924 40.7656 49.3389 40.7656 299.965 c 0
 40.7627 550.663 243.953 753.929 494.652 753.929 c 0
881.332 249.305 m 1
 883.634 273.679 l 1
 884.406 298.147 l 1
 883.634 322.614 l 1
 881.332 346.989 l 1
 877.499 371.173 l 1
 872.161 395.064 l 1
 865.327 418.58 l 1
 857.037 441.612 l 1
 847.311 464.08 l 1
 836.2 485.897 l 1
 823.733 506.97 l 1
 809.97 527.216 l 1
 794.969 546.562 l 1
 778.777 564.924 l 1
 761.464 582.236 l 1
 743.104 598.428 l 1
 723.757 613.432 l 1
 703.511 627.193 l 1
 682.433 639.659 l 1
 660.621 650.77 l 1
 638.152 660.497 l 1
 615.12 668.787 l 1
 591.604 675.621 l 1
 567.713 680.958 l 1
 543.53 684.791 l 1
 494.689 298.149 l 1
 494.688 687.865 l 1
 470.219 687.094 l 1
 445.845 684.791 l 1
 421.662 680.958 l 1
 397.772 675.621 l 1
 374.265 668.787 l 1
 351.226 660.497 l 1
 328.757 650.77 l 1
 306.945 639.659 l 1
 285.866 627.193 l 1
 265.621 613.432 l 1
 246.273 598.428 l 1
 227.913 582.236 l 1
 210.601 564.924 l 1
 194.409 546.562 l 1
 179.405 527.216 l 1
 165.644 506.97 l 1
 153.177 485.897 l 1
 142.067 464.08 l 1
 132.34 441.612 l 1
 124.05 418.58 l 1
 117.216 395.064 l 1
 111.878 371.173 l 1
 108.045 346.989 l 1
 105.743 322.614 l 1
 104.971 298.147 l 1
 105.743 273.679 l 1
 108.045 249.305 l 1
 111.878 225.12 l 1
 117.216 201.231 l 1
 124.05 177.715 l 1
 132.34 154.684 l 1
 142.067 132.215 l 1
 153.177 110.397 l 1
 165.644 89.3262 l 1
 179.405 69.0771 l 1
 194.409 49.7334 l 1
 210.601 31.3721 l 1
 227.913 14.0586 l 1
 246.273 -2.13477 l 1
 265.621 -17.1348 l 1
 285.866 -30.8984 l 1
 306.945 -43.3633 l 1
 328.757 -54.4736 l 1
 351.226 -64.1992 l 1
 374.258 -72.4912 l 1
 397.772 -79.3252 l 1
 421.662 -84.6611 l 1
 445.845 -88.4941 l 1
 470.219 -90.7988 l 1
 494.688 -91.5713 l 1
 519.155 -90.7988 l 1
 543.53 -88.4941 l 1
 567.713 -84.6611 l 1
 591.604 -79.3252 l 1
 615.113 -72.4912 l 1
 638.152 -64.1992 l 1
 660.621 -54.4736 l 1
 682.433 -43.3633 l 1
 703.511 -30.8984 l 1
 723.757 -17.1348 l 1
 743.104 -2.13477 l 1
 761.464 14.0586 l 1
 778.777 31.3721 l 1
 794.969 49.7334 l 1
 809.97 69.0771 l 1
 823.733 89.3262 l 1
 836.2 110.397 l 1
 847.311 132.215 l 1
 857.037 154.684 l 1
 865.327 177.715 l 1
 872.161 201.231 l 1
 877.499 225.12 l 1
 881.332 249.305 l 1
EndSplineSet
Validated: 1
EndChar

StartChar: Percent.03
Encoding: 3 57347 3
Width: 1000
VWidth: 0
HStem: -153.924 63.1252<445.845 543.53> 687.094 66.835<445.845 494.688>
VStem: 40.7656 64.9774<249.305 346.989> 494.689 73.023<644.262 680.958> 883.633 64.985<249.305 346.989>
LayerCount: 2
Fore
SplineSet
494.652 753.929 m 0
 745.354 753.929 948.618 550.663 948.618 299.966 c 0
 948.618 49.3379 745.351 -153.924 494.652 -153.924 c 0
 243.954 -153.924 40.7656 49.3389 40.7656 299.965 c 0
 40.7627 550.663 243.953 753.929 494.652 753.929 c 0
881.332 249.305 m 1
 883.633 273.679 l 1
 884.405 298.147 l 1
 883.633 322.614 l 1
 881.331 346.989 l 1
 877.498 371.173 l 1
 872.16 395.064 l 1
 865.326 418.58 l 1
 857.036 441.612 l 1
 847.31 464.08 l 1
 836.199 485.897 l 1
 823.732 506.97 l 1
 809.969 527.216 l 1
 794.968 546.562 l 1
 778.776 564.924 l 1
 761.463 582.236 l 1
 743.103 598.428 l 1
 723.756 613.432 l 1
 703.51 627.193 l 1
 682.432 639.659 l 1
 660.62 650.77 l 1
 638.151 660.497 l 1
 615.119 668.787 l 1
 591.604 675.621 l 1
 567.712 680.958 l 1
 494.689 298.149 l 1
 494.688 687.865 l 1
 470.219 687.094 l 1
 445.845 684.791 l 1
 421.662 680.958 l 1
 397.772 675.621 l 1
 374.265 668.787 l 1
 351.226 660.497 l 1
 328.757 650.77 l 1
 306.945 639.659 l 1
 285.866 627.193 l 1
 265.621 613.432 l 1
 246.273 598.428 l 1
 227.913 582.236 l 1
 210.601 564.924 l 1
 194.409 546.562 l 1
 179.405 527.216 l 1
 165.644 506.97 l 1
 153.177 485.897 l 1
 142.067 464.08 l 1
 132.34 441.612 l 1
 124.05 418.58 l 1
 117.216 395.064 l 1
 111.878 371.173 l 1
 108.045 346.989 l 1
 105.743 322.614 l 1
 104.971 298.147 l 1
 105.743 273.679 l 1
 108.045 249.305 l 1
 111.878 225.12 l 1
 117.216 201.231 l 1
 124.05 177.715 l 1
 132.34 154.684 l 1
 142.067 132.215 l 1
 153.177 110.397 l 1
 165.644 89.3262 l 1
 179.405 69.0771 l 1
 194.409 49.7334 l 1
 210.601 31.3721 l 1
 227.913 14.0586 l 1
 246.273 -2.13477 l 1
 265.621 -17.1348 l 1
 285.866 -30.8984 l 1
 306.945 -43.3633 l 1
 328.757 -54.4736 l 1
 351.226 -64.1992 l 1
 374.258 -72.4912 l 1
 397.772 -79.3252 l 1
 421.662 -84.6611 l 1
 445.845 -88.4941 l 1
 470.219 -90.7988 l 1
 494.688 -91.5713 l 1
 519.155 -90.7988 l 1
 543.53 -88.4941 l 1
 567.713 -84.6611 l 1
 591.604 -79.3252 l 1
 615.113 -72.4912 l 1
 638.152 -64.1992 l 1
 660.621 -54.4736 l 1
 682.433 -43.3633 l 1
 703.511 -30.8984 l 1
 723.757 -17.1348 l 1
 743.104 -2.13477 l 1
 761.464 14.0586 l 1
 778.777 31.3721 l 1
 794.969 49.7334 l 1
 809.97 69.0771 l 1
 823.733 89.3262 l 1
 836.2 110.397 l 1
 847.311 132.215 l 1
 857.037 154.684 l 1
 865.327 177.715 l 1
 872.161 201.231 l 1
 877.499 225.12 l 1
 881.332 249.305 l 1
EndSplineSet
Validated: 1
EndChar

StartChar: Percent.04
Encoding: 4 57348 4
Width: 1000
VWidth: 0
HStem: -153.924 63.1252<445.845 543.53> 687.094 66.835<445.845 494.688>
VStem: 40.7656 64.9774<249.305 346.989> 883.633 64.985<249.305 346.989>
LayerCount: 2
Fore
SplineSet
494.652 753.929 m 0
 745.354 753.929 948.618 550.663 948.618 299.966 c 0
 948.618 49.3379 745.351 -153.924 494.652 -153.924 c 0
 243.954 -153.924 40.7656 49.3389 40.7656 299.965 c 0
 40.7627 550.663 243.953 753.929 494.652 753.929 c 0
881.332 249.305 m 1
 883.633 273.679 l 1
 884.405 298.147 l 1
 883.633 322.614 l 1
 881.331 346.989 l 1
 877.498 371.173 l 1
 872.16 395.064 l 1
 865.326 418.58 l 1
 857.036 441.612 l 1
 847.31 464.08 l 1
 836.199 485.897 l 1
 823.732 506.97 l 1
 809.969 527.216 l 1
 794.968 546.562 l 1
 778.776 564.924 l 1
 761.463 582.236 l 1
 743.103 598.428 l 1
 723.756 613.432 l 1
 703.51 627.193 l 1
 682.432 639.659 l 1
 660.62 650.77 l 1
 638.151 660.497 l 1
 615.119 668.787 l 1
 591.604 675.621 l 1
 494.689 298.149 l 1
 494.688 687.865 l 1
 470.219 687.094 l 1
 445.845 684.791 l 1
 421.662 680.958 l 1
 397.772 675.621 l 1
 374.265 668.787 l 1
 351.226 660.497 l 1
 328.757 650.77 l 1
 306.945 639.659 l 1
 285.866 627.193 l 1
 265.621 613.432 l 1
 246.273 598.428 l 1
 227.913 582.236 l 1
 210.601 564.924 l 1
 194.409 546.562 l 1
 179.405 527.216 l 1
 165.644 506.97 l 1
 153.177 485.897 l 1
 142.067 464.08 l 1
 132.34 441.612 l 1
 124.05 418.58 l 1
 117.216 395.064 l 1
 111.878 371.173 l 1
 108.045 346.989 l 1
 105.743 322.614 l 1
 104.971 298.147 l 1
 105.743 273.679 l 1
 108.045 249.305 l 1
 111.878 225.12 l 1
 117.216 201.231 l 1
 124.05 177.715 l 1
 132.34 154.684 l 1
 142.067 132.215 l 1
 153.177 110.397 l 1
 165.644 89.3262 l 1
 179.405 69.0771 l 1
 194.409 49.7334 l 1
 210.601 31.3721 l 1
 227.913 14.0586 l 1
 246.273 -2.13477 l 1
 265.621 -17.1348 l 1
 285.866 -30.8984 l 1
 306.945 -43.3633 l 1
 328.757 -54.4736 l 1
 351.226 -64.1992 l 1
 374.258 -72.4912 l 1
 397.772 -79.3252 l 1
 421.662 -84.6611 l 1
 445.845 -88.4941 l 1
 470.219 -90.7988 l 1
 494.688 -91.5713 l 1
 519.155 -90.7988 l 1
 543.53 -88.4941 l 1
 567.713 -84.6611 l 1
 591.604 -79.3252 l 1
 615.113 -72.4912 l 1
 638.152 -64.1992 l 1
 660.621 -54.4736 l 1
 682.433 -43.3633 l 1
 703.511 -30.8984 l 1
 723.757 -17.1348 l 1
 743.104 -2.13477 l 1
 761.464 14.0586 l 1
 778.777 31.3721 l 1
 794.969 49.7334 l 1
 809.97 69.0771 l 1
 823.733 89.3262 l 1
 836.2 110.397 l 1
 847.311 132.215 l 1
 857.037 154.684 l 1
 865.327 177.715 l 1
 872.161 201.231 l 1
 877.499 225.12 l 1
 881.332 249.305 l 1
EndSplineSet
Validated: 1
EndChar

StartChar: Percent.05
Encoding: 5 57349 5
Width: 1000
VWidth: 0
HStem: -153.924 63.1252<445.845 543.53> 687.094 66.835<445.845 494.688>
VStem: 40.7656 64.9774<249.305 346.989> 883.633 64.985<249.305 346.989>
LayerCount: 2
Fore
SplineSet
494.652 753.929 m 0
 745.354 753.929 948.618 550.663 948.618 299.966 c 0
 948.618 49.3379 745.351 -153.924 494.652 -153.924 c 0
 243.954 -153.924 40.7656 49.3389 40.7656 299.965 c 0
 40.7627 550.663 243.953 753.929 494.652 753.929 c 0
881.332 249.305 m 1
 883.633 273.679 l 1
 884.405 298.147 l 1
 883.633 322.614 l 1
 881.331 346.989 l 1
 877.498 371.173 l 1
 872.16 395.064 l 1
 865.326 418.58 l 1
 857.036 441.612 l 1
 847.31 464.08 l 1
 836.199 485.897 l 1
 823.732 506.97 l 1
 809.969 527.216 l 1
 794.968 546.562 l 1
 778.776 564.924 l 1
 761.463 582.236 l 1
 743.103 598.428 l 1
 723.756 613.432 l 1
 703.51 627.193 l 1
 682.432 639.659 l 1
 660.62 650.77 l 1
 638.151 660.497 l 1
 615.119 668.787 l 1
 494.689 298.149 l 1
 494.688 687.865 l 1
 470.219 687.094 l 1
 445.845 684.791 l 1
 421.662 680.958 l 1
 397.772 675.621 l 1
 374.265 668.787 l 1
 351.226 660.497 l 1
 328.757 650.77 l 1
 306.945 639.659 l 1
 285.866 627.193 l 1
 265.621 613.432 l 1
 246.273 598.428 l 1
 227.913 582.236 l 1
 210.601 564.924 l 1
 194.409 546.562 l 1
 179.405 527.216 l 1
 165.644 506.97 l 1
 153.177 485.897 l 1
 142.067 464.08 l 1
 132.34 441.612 l 1
 124.05 418.58 l 1
 117.216 395.064 l 1
 111.878 371.173 l 1
 108.045 346.989 l 1
 105.743 322.614 l 1
 104.971 298.147 l 1
 105.743 273.679 l 1
 108.045 249.305 l 1
 111.878 225.12 l 1
 117.216 201.231 l 1
 124.05 177.715 l 1
 132.34 154.684 l 1
 142.067 132.215 l 1
 153.177 110.397 l 1
 165.644 89.3262 l 1
 179.405 69.0771 l 1
 194.409 49.7334 l 1
 210.601 31.3721 l 1
 227.913 14.0586 l 1
 246.273 -2.13477 l 1
 265.621 -17.1348 l 1
 285.866 -30.8984 l 1
 306.945 -43.3633 l 1
 328.757 -54.4736 l 1
 351.226 -64.1992 l 1
 374.258 -72.4912 l 1
 397.772 -79.3252 l 1
 421.662 -84.6611 l 1
 445.845 -88.4941 l 1
 470.219 -90.7988 l 1
 494.688 -91.5713 l 1
 519.155 -90.7988 l 1
 543.53 -88.4941 l 1
 567.713 -84.6611 l 1
 591.604 -79.3252 l 1
 615.113 -72.4912 l 1
 638.152 -64.1992 l 1
 660.621 -54.4736 l 1
 682.433 -43.3633 l 1
 703.511 -30.8984 l 1
 723.757 -17.1348 l 1
 743.104 -2.13477 l 1
 761.464 14.0586 l 1
 778.777 31.3721 l 1
 794.969 49.7334 l 1
 809.97 69.0771 l 1
 823.733 89.3262 l 1
 836.2 110.397 l 1
 847.311 132.215 l 1
 857.037 154.684 l 1
 865.327 177.715 l 1
 872.161 201.231 l 1
 877.499 225.12 l 1
 881.332 249.305 l 1
EndSplineSet
Validated: 1
EndChar

StartChar: Percent.06
Encoding: 6 57350 6
Width: 1000
VWidth: 0
HStem: -153.924 63.1252<445.845 543.53> 687.094 66.835<445.845 494.688>
VStem: 40.7656 64.9774<249.305 346.989> 883.633 64.985<249.305 346.989>
LayerCount: 2
Fore
SplineSet
494.652 753.929 m 0
 745.354 753.929 948.618 550.663 948.618 299.966 c 0
 948.618 49.3379 745.351 -153.924 494.652 -153.924 c 0
 243.954 -153.924 40.7656 49.3389 40.7656 299.965 c 0
 40.7627 550.663 243.953 753.929 494.652 753.929 c 0
494.689 298.149 m 1
 494.688 687.865 l 1
 470.219 687.094 l 1
 445.845 684.791 l 1
 421.662 680.958 l 1
 397.772 675.621 l 1
 374.265 668.787 l 1
 351.226 660.497 l 1
 328.757 650.77 l 1
 306.945 639.659 l 1
 285.866 627.193 l 1
 265.621 613.432 l 1
 246.273 598.428 l 1
 227.913 582.236 l 1
 210.601 564.924 l 1
 194.409 546.562 l 1
 179.405 527.216 l 1
 165.644 506.97 l 1
 153.177 485.897 l 1
 142.067 464.08 l 1
 132.34 441.612 l 1
 124.05 418.58 l 1
 117.216 395.064 l 1
 111.878 371.173 l 1
 108.045 346.989 l 1
 105.743 322.614 l 1
 104.971 298.147 l 1
 105.743 273.679 l 1
 108.045 249.305 l 1
 111.878 225.12 l 1
 117.216 201.231 l 1
 124.05 177.715 l 1
 132.34 154.684 l 1
 142.067 132.215 l 1
 153.177 110.397 l 1
 165.644 89.3262 l 1
 179.405 69.0771 l 1
 194.409 49.7334 l 1
 210.601 31.3721 l 1
 227.913 14.0586 l 1
 246.273 -2.13477 l 1
 265.621 -17.1348 l 1
 285.866 -30.8984 l 1
 306.945 -43.3633 l 1
 328.757 -54.4736 l 1
 351.226 -64.1992 l 1
 374.258 -72.4912 l 1
 397.772 -79.3252 l 1
 421.662 -84.6611 l 1
 445.845 -88.4941 l 1
 470.219 -90.7988 l 1
 494.688 -91.5713 l 1
 519.155 -90.7988 l 1
 543.53 -88.4941 l 1
 567.713 -84.6611 l 1
 591.604 -79.3252 l 1
 615.113 -72.4912 l 1
 638.152 -64.1992 l 1
 660.621 -54.4736 l 1
 682.433 -43.3633 l 1
 703.511 -30.8984 l 1
 723.757 -17.1348 l 1
 743.104 -2.13477 l 1
 761.464 14.0586 l 1
 778.777 31.3721 l 1
 794.969 49.7334 l 1
 809.97 69.0771 l 1
 823.733 89.3262 l 1
 836.2 110.397 l 1
 847.311 132.215 l 1
 857.037 154.684 l 1
 865.327 177.715 l 1
 872.161 201.231 l 1
 877.499 225.12 l 1
 881.332 249.305 l 1
 883.633 273.679 l 1
 884.405 298.147 l 1
 883.633 322.614 l 1
 881.331 346.989 l 1
 877.498 371.173 l 1
 872.16 395.064 l 1
 865.326 418.58 l 1
 857.036 441.612 l 1
 847.31 464.08 l 1
 836.199 485.897 l 1
 823.732 506.97 l 1
 809.969 527.216 l 1
 794.968 546.562 l 1
 778.776 564.924 l 1
 761.463 582.236 l 1
 743.103 598.428 l 1
 723.756 613.432 l 1
 703.51 627.193 l 1
 682.432 639.659 l 1
 660.62 650.77 l 1
 638.151 660.497 l 1
 494.689 298.149 l 1
EndSplineSet
Validated: 1
EndChar

StartChar: Percent.07
Encoding: 7 57351 7
Width: 1000
VWidth: 0
HStem: -153.924 63.1252<445.845 543.53> 687.094 66.835<445.845 494.688>
VStem: 40.7656 64.9774<249.305 346.989> 883.633 64.985<249.305 346.989>
LayerCount: 2
Fore
SplineSet
494.652 753.929 m 0
 745.354 753.929 948.618 550.663 948.618 299.966 c 0
 948.618 49.3379 745.351 -153.924 494.652 -153.924 c 0
 243.954 -153.924 40.7656 49.3389 40.7656 299.965 c 0
 40.7627 550.663 243.953 753.929 494.652 753.929 c 0
494.689 298.149 m 29
 494.688 687.865 l 1
 470.219 687.094 l 1
 445.845 684.791 l 1
 421.662 680.958 l 1
 397.772 675.621 l 1
 374.265 668.787 l 1
 351.226 660.497 l 1
 328.757 650.77 l 1
 306.945 639.659 l 1
 285.866 627.193 l 1
 265.621 613.432 l 1
 246.273 598.428 l 1
 227.913 582.236 l 1
 210.601 564.924 l 1
 194.409 546.562 l 1
 179.405 527.216 l 1
 165.644 506.97 l 1
 153.177 485.897 l 1
 142.067 464.08 l 1
 132.34 441.612 l 1
 124.05 418.58 l 1
 117.216 395.064 l 1
 111.878 371.173 l 1
 108.045 346.989 l 1
 105.743 322.614 l 1
 104.971 298.147 l 1
 105.743 273.679 l 1
 108.045 249.305 l 1
 111.878 225.12 l 1
 117.216 201.231 l 1
 124.05 177.715 l 1
 132.34 154.684 l 1
 142.067 132.215 l 1
 153.177 110.397 l 1
 165.644 89.3262 l 1
 179.405 69.0771 l 1
 194.409 49.7334 l 1
 210.601 31.3721 l 1
 227.913 14.0586 l 1
 246.273 -2.13477 l 1
 265.621 -17.1348 l 1
 285.866 -30.8984 l 1
 306.945 -43.3633 l 1
 328.757 -54.4736 l 1
 351.226 -64.1992 l 1
 374.258 -72.4912 l 1
 397.772 -79.3252 l 1
 421.662 -84.6611 l 1
 445.845 -88.4941 l 1
 470.219 -90.7988 l 1
 494.688 -91.5713 l 1
 519.155 -90.7988 l 1
 543.53 -88.4941 l 1
 567.713 -84.6611 l 1
 591.604 -79.3252 l 1
 615.113 -72.4912 l 1
 638.152 -64.1992 l 1
 660.621 -54.4736 l 1
 682.433 -43.3633 l 1
 703.511 -30.8984 l 1
 723.757 -17.1348 l 1
 743.104 -2.13477 l 1
 761.464 14.0586 l 1
 778.777 31.3721 l 1
 794.969 49.7334 l 1
 809.97 69.0771 l 1
 823.733 89.3262 l 1
 836.2 110.397 l 1
 847.311 132.215 l 1
 857.037 154.684 l 1
 865.327 177.715 l 1
 872.161 201.231 l 1
 877.499 225.12 l 1
 881.332 249.305 l 1
 883.633 273.679 l 1
 884.405 298.147 l 1
 883.633 322.614 l 1
 881.331 346.989 l 1
 877.498 371.173 l 1
 872.16 395.064 l 1
 865.326 418.58 l 1
 857.036 441.612 l 1
 847.31 464.08 l 1
 836.199 485.897 l 1
 823.732 506.97 l 1
 809.969 527.216 l 1
 794.968 546.562 l 1
 778.776 564.924 l 1
 761.463 582.236 l 1
 743.103 598.428 l 1
 723.756 613.432 l 1
 703.51 627.193 l 1
 682.432 639.659 l 1
 660.62 650.77 l 29
 494.689 298.149 l 29
EndSplineSet
Validated: 1
EndChar

StartChar: Percent.08
Encoding: 8 57352 8
Width: 1000
VWidth: 0
HStem: -153.924 63.1252<445.845 543.53> 687.094 66.835<445.845 494.688>
VStem: 40.7656 64.9774<249.305 346.989> 883.633 64.985<249.305 346.989>
LayerCount: 2
Fore
SplineSet
494.652 753.929 m 0
 745.354 753.929 948.618 550.663 948.618 299.966 c 0
 948.618 49.3379 745.351 -153.924 494.652 -153.924 c 0
 243.954 -153.924 40.7656 49.3389 40.7656 299.965 c 0
 40.7627 550.663 243.953 753.929 494.652 753.929 c 0
881.332 249.305 m 1
 883.633 273.679 l 1
 884.405 298.147 l 1
 883.633 322.614 l 1
 881.331 346.989 l 1
 877.498 371.173 l 1
 872.16 395.064 l 1
 865.326 418.58 l 1
 857.036 441.612 l 1
 847.31 464.08 l 1
 836.199 485.897 l 1
 823.732 506.97 l 1
 809.969 527.216 l 1
 794.968 546.562 l 1
 778.776 564.924 l 1
 761.463 582.236 l 1
 743.103 598.428 l 1
 723.756 613.432 l 1
 703.51 627.193 l 1
 682.432 639.659 l 1
 494.689 298.149 l 1
 494.688 687.865 l 1
 470.219 687.094 l 1
 445.845 684.791 l 1
 421.662 680.958 l 1
 397.772 675.621 l 1
 374.265 668.787 l 1
 351.226 660.497 l 1
 328.757 650.77 l 1
 306.945 639.659 l 1
 285.866 627.193 l 1
 265.621 613.432 l 1
 246.273 598.428 l 1
 227.913 582.236 l 1
 210.601 564.924 l 1
 194.409 546.562 l 1
 179.405 527.216 l 1
 165.644 506.97 l 1
 153.177 485.897 l 1
 142.067 464.08 l 1
 132.34 441.612 l 1
 124.05 418.58 l 1
 117.216 395.064 l 1
 111.878 371.173 l 1
 108.045 346.989 l 1
 105.743 322.614 l 1
 104.971 298.147 l 1
 105.743 273.679 l 1
 108.045 249.305 l 1
 111.878 225.12 l 1
 117.216 201.231 l 1
 124.05 177.715 l 1
 132.34 154.684 l 1
 142.067 132.215 l 1
 153.177 110.397 l 1
 165.644 89.3262 l 1
 179.405 69.0771 l 1
 194.409 49.7334 l 1
 210.601 31.3721 l 1
 227.913 14.0586 l 1
 246.273 -2.13477 l 1
 265.621 -17.1348 l 1
 285.866 -30.8984 l 1
 306.945 -43.3633 l 1
 328.757 -54.4736 l 1
 351.226 -64.1992 l 1
 374.258 -72.4912 l 1
 397.772 -79.3252 l 1
 421.662 -84.6611 l 1
 445.845 -88.4941 l 1
 470.219 -90.7988 l 1
 494.688 -91.5713 l 1
 519.155 -90.7988 l 1
 543.53 -88.4941 l 1
 567.713 -84.6611 l 1
 591.604 -79.3252 l 1
 615.113 -72.4912 l 1
 638.152 -64.1992 l 1
 660.621 -54.4736 l 1
 682.433 -43.3633 l 1
 703.511 -30.8984 l 1
 723.757 -17.1348 l 1
 743.104 -2.13477 l 1
 761.464 14.0586 l 1
 778.777 31.3721 l 1
 794.969 49.7334 l 1
 809.97 69.0771 l 1
 823.733 89.3262 l 1
 836.2 110.397 l 1
 847.311 132.215 l 1
 857.037 154.684 l 1
 865.327 177.715 l 1
 872.161 201.231 l 1
 877.499 225.12 l 1
 881.332 249.305 l 1
EndSplineSet
Validated: 1
EndChar

StartChar: Percent.09
Encoding: 9 57353 9
Width: 1000
VWidth: 0
HStem: -153.924 63.1252<445.845 543.53> 687.094 66.835<445.845 494.688>
VStem: 40.7656 64.9774<249.305 346.989> 883.633 64.985<249.305 346.989>
LayerCount: 2
Fore
SplineSet
494.652 753.929 m 0
 745.354 753.929 948.618 550.663 948.618 299.966 c 0
 948.618 49.3379 745.351 -153.924 494.652 -153.924 c 0
 243.954 -153.924 40.7656 49.3389 40.7656 299.965 c 0
 40.7627 550.663 243.953 753.929 494.652 753.929 c 0
881.332 249.305 m 1
 883.633 273.679 l 1
 884.405 298.147 l 1
 883.633 322.614 l 1
 881.331 346.989 l 1
 877.498 371.173 l 1
 872.16 395.064 l 1
 865.326 418.58 l 1
 857.036 441.612 l 1
 847.31 464.08 l 1
 836.199 485.897 l 1
 823.732 506.97 l 1
 809.969 527.216 l 1
 794.968 546.562 l 1
 778.776 564.924 l 1
 761.463 582.236 l 1
 743.103 598.428 l 1
 723.756 613.432 l 1
 703.51 627.193 l 1
 494.689 298.149 l 1
 494.688 687.865 l 1
 470.219 687.094 l 1
 445.845 684.791 l 1
 421.662 680.958 l 1
 397.772 675.621 l 1
 374.265 668.787 l 1
 351.226 660.497 l 1
 328.757 650.77 l 1
 306.945 639.659 l 1
 285.866 627.193 l 1
 265.621 613.432 l 1
 246.273 598.428 l 1
 227.913 582.236 l 1
 210.601 564.924 l 1
 194.409 546.562 l 1
 179.405 527.216 l 1
 165.644 506.97 l 1
 153.177 485.897 l 1
 142.067 464.08 l 1
 132.34 441.612 l 1
 124.05 418.58 l 1
 117.216 395.064 l 1
 111.878 371.173 l 1
 108.045 346.989 l 1
 105.743 322.614 l 1
 104.971 298.147 l 1
 105.743 273.679 l 1
 108.045 249.305 l 1
 111.878 225.12 l 1
 117.216 201.231 l 1
 124.05 177.715 l 1
 132.34 154.684 l 1
 142.067 132.215 l 1
 153.177 110.397 l 1
 165.644 89.3262 l 1
 179.405 69.0771 l 1
 194.409 49.7334 l 1
 210.601 31.3721 l 1
 227.913 14.0586 l 1
 246.273 -2.13477 l 1
 265.621 -17.1348 l 1
 285.866 -30.8984 l 1
 306.945 -43.3633 l 1
 328.757 -54.4736 l 1
 351.226 -64.1992 l 1
 374.258 -72.4912 l 1
 397.772 -79.3252 l 1
 421.662 -84.6611 l 1
 445.845 -88.4941 l 1
 470.219 -90.7988 l 1
 494.688 -91.5713 l 1
 519.155 -90.7988 l 1
 543.53 -88.4941 l 1
 567.713 -84.6611 l 1
 591.604 -79.3252 l 1
 615.113 -72.4912 l 1
 638.152 -64.1992 l 1
 660.621 -54.4736 l 1
 682.433 -43.3633 l 1
 703.511 -30.8984 l 1
 723.757 -17.1348 l 1
 743.104 -2.13477 l 1
 761.464 14.0586 l 1
 778.777 31.3721 l 1
 794.969 49.7334 l 1
 809.97 69.0771 l 1
 823.733 89.3262 l 1
 836.2 110.397 l 1
 847.311 132.215 l 1
 857.037 154.684 l 1
 865.327 177.715 l 1
 872.161 201.231 l 1
 877.499 225.12 l 1
 881.332 249.305 l 1
EndSplineSet
Validated: 1
EndChar

StartChar: Percent.10
Encoding: 10 57354 10
Width: 1000
VWidth: 0
HStem: -153.924 63.1252<445.845 543.53> 687.094 66.835<445.845 494.688>
VStem: 40.7656 64.9774<249.305 346.989> 883.633 64.985<249.305 346.99>
LayerCount: 2
Fore
SplineSet
494.652 753.929 m 0
 745.354 753.929 948.618 550.663 948.618 299.966 c 0
 948.618 49.3379 745.351 -153.924 494.652 -153.924 c 0
 243.954 -153.924 40.7656 49.3389 40.7656 299.965 c 0
 40.7627 550.663 243.953 753.929 494.652 753.929 c 0
881.332 249.305 m 1
 883.633 273.68 l 1
 884.405 298.148 l 1
 883.633 322.615 l 1
 881.331 346.99 l 1
 877.498 371.174 l 1
 872.16 395.065 l 1
 865.326 418.581 l 1
 857.036 441.613 l 1
 847.31 464.081 l 1
 836.199 485.898 l 1
 823.732 506.971 l 1
 809.969 527.217 l 1
 794.968 546.563 l 1
 778.776 564.925 l 1
 761.463 582.237 l 1
 743.103 598.429 l 1
 723.756 613.433 l 1
 494.689 298.149 l 1
 494.688 687.865 l 1
 470.219 687.094 l 1
 445.845 684.791 l 1
 421.662 680.958 l 1
 397.772 675.621 l 1
 374.265 668.787 l 1
 351.226 660.497 l 1
 328.757 650.77 l 1
 306.945 639.659 l 1
 285.866 627.193 l 1
 265.621 613.432 l 1
 246.273 598.428 l 1
 227.913 582.236 l 1
 210.601 564.924 l 1
 194.409 546.562 l 1
 179.405 527.216 l 1
 165.644 506.97 l 1
 153.177 485.897 l 1
 142.067 464.08 l 1
 132.34 441.612 l 1
 124.05 418.58 l 1
 117.216 395.064 l 1
 111.878 371.173 l 1
 108.045 346.989 l 1
 105.743 322.614 l 1
 104.971 298.147 l 1
 105.743 273.679 l 1
 108.045 249.305 l 1
 111.878 225.12 l 1
 117.216 201.231 l 1
 124.05 177.715 l 1
 132.34 154.684 l 1
 142.067 132.215 l 1
 153.177 110.397 l 1
 165.644 89.3262 l 1
 179.405 69.0771 l 1
 194.409 49.7334 l 1
 210.601 31.3721 l 1
 227.913 14.0586 l 1
 246.273 -2.13477 l 1
 265.621 -17.1348 l 1
 285.866 -30.8984 l 1
 306.945 -43.3633 l 1
 328.757 -54.4736 l 1
 351.226 -64.1992 l 1
 374.258 -72.4912 l 1
 397.772 -79.3252 l 1
 421.662 -84.6611 l 1
 445.845 -88.4941 l 1
 470.219 -90.7988 l 1
 494.688 -91.5713 l 1
 519.155 -90.7988 l 1
 543.53 -88.4941 l 1
 567.713 -84.6611 l 1
 591.604 -79.3252 l 1
 615.113 -72.4912 l 1
 638.152 -64.1992 l 1
 660.621 -54.4736 l 1
 682.433 -43.3633 l 1
 703.511 -30.8984 l 1
 723.757 -17.1348 l 1
 743.104 -2.13477 l 1
 761.464 14.0586 l 1
 778.777 31.3721 l 1
 794.969 49.7334 l 1
 809.97 69.0771 l 1
 823.733 89.3262 l 1
 836.2 110.397 l 1
 847.311 132.215 l 1
 857.037 154.684 l 1
 865.327 177.715 l 1
 872.161 201.231 l 1
 877.499 225.12 l 1
 881.332 249.305 l 1
EndSplineSet
Validated: 1
EndChar

StartChar: Percent.11
Encoding: 11 57355 11
Width: 1000
VWidth: 0
HStem: -153.923 63.1232<445.845 543.529> 687.095 66.834<445.848 494.691>
VStem: 40.7656 64.9804<249.306 346.989> 883.636 64.982<249.305 346.989>
LayerCount: 2
Fore
SplineSet
494.652 753.929 m 0
 745.354 753.929 948.618 550.663 948.618 299.967 c 0
 948.618 49.3379 745.351 -153.923 494.652 -153.923 c 0
 243.954 -153.923 40.7656 49.3389 40.7656 299.965 c 0
 40.7627 550.663 243.953 753.929 494.652 753.929 c 0
881.332 249.305 m 1
 883.636 273.68 l 1
 884.408 298.148 l 1
 883.636 322.614 l 1
 881.334 346.989 l 1
 877.501 371.174 l 1
 872.163 395.065 l 1
 865.329 418.581 l 1
 857.039 441.613 l 1
 847.312 464.081 l 1
 836.202 485.898 l 1
 823.735 506.971 l 1
 809.971 527.217 l 1
 794.971 546.563 l 1
 778.779 564.925 l 1
 761.466 582.237 l 1
 743.105 598.429 l 1
 494.692 298.149 l 1
 494.691 687.866 l 1
 470.222 687.095 l 1
 445.848 684.792 l 1
 421.664 680.959 l 1
 397.775 675.622 l 1
 374.268 668.788 l 1
 351.229 660.498 l 1
 328.76 650.771 l 1
 306.948 639.66 l 1
 285.869 627.194 l 1
 265.624 613.433 l 1
 246.276 598.429 l 1
 227.916 582.237 l 1
 210.604 564.925 l 1
 194.412 546.563 l 1
 179.408 527.217 l 1
 165.646 506.971 l 1
 153.18 485.898 l 1
 142.07 464.081 l 1
 132.343 441.613 l 1
 124.053 418.581 l 1
 117.219 395.065 l 1
 111.881 371.174 l 1
 108.048 346.989 l 1
 105.746 322.614 l 1
 104.974 298.148 l 1
 105.746 273.68 l 1
 108.048 249.306 l 1
 111.881 225.12 l 1
 117.219 201.232 l 1
 124.053 177.716 l 1
 132.343 154.685 l 1
 142.07 132.216 l 1
 153.18 110.398 l 1
 165.646 89.3271 l 1
 179.408 69.0771 l 1
 194.412 49.7344 l 1
 210.604 31.373 l 1
 227.916 14.0596 l 1
 246.276 -2.13477 l 1
 265.624 -17.1338 l 1
 285.869 -30.8984 l 1
 306.945 -43.3633 l 1
 328.757 -54.4736 l 1
 351.226 -64.1992 l 1
 374.258 -72.4912 l 1
 397.772 -79.3252 l 1
 421.661 -84.6611 l 1
 445.845 -88.4941 l 1
 470.219 -90.7998 l 1
 494.688 -91.5723 l 1
 519.154 -90.7998 l 1
 543.529 -88.4941 l 1
 567.713 -84.6611 l 1
 591.604 -79.3252 l 1
 615.113 -72.4912 l 1
 638.152 -64.1992 l 1
 660.621 -54.4736 l 1
 682.433 -43.3633 l 1
 703.511 -30.8994 l 1
 723.757 -17.1348 l 1
 743.104 -2.13574 l 1
 761.464 14.0586 l 1
 778.777 31.3721 l 1
 794.969 49.7334 l 1
 809.969 69.0762 l 1
 823.733 89.3262 l 1
 836.2 110.397 l 1
 847.311 132.215 l 1
 857.037 154.684 l 1
 865.327 177.715 l 1
 872.161 201.231 l 1
 877.499 225.119 l 1
 881.332 249.305 l 1
EndSplineSet
Validated: 1
EndChar

StartChar: Percent.12
Encoding: 12 57356 12
Width: 1000
VWidth: 0
HStem: -153.923 63.1232<445.845 543.529> 687.095 66.834<445.848 494.691>
VStem: 40.7656 64.9804<249.306 346.989> 883.635 64.983<249.305 346.986>
LayerCount: 2
Fore
SplineSet
494.652 753.929 m 0
 745.354 753.929 948.618 550.663 948.618 299.967 c 0
 948.618 49.3379 745.351 -153.923 494.652 -153.923 c 0
 243.954 -153.923 40.7656 49.3389 40.7656 299.965 c 0
 40.7627 550.663 243.953 753.929 494.652 753.929 c 0
881.332 249.305 m 1
 883.635 273.677 l 1
 884.407 298.146 l 1
 883.635 322.611 l 1
 881.333 346.986 l 1
 877.5 371.171 l 1
 872.162 395.062 l 1
 865.328 418.578 l 1
 857.038 441.61 l 1
 847.312 464.078 l 1
 836.201 485.896 l 1
 823.734 506.968 l 1
 809.97 527.214 l 1
 794.97 546.561 l 1
 778.778 564.922 l 1
 761.465 582.234 l 1
 494.692 298.149 l 1
 494.691 687.866 l 1
 470.222 687.095 l 1
 445.848 684.792 l 1
 421.664 680.959 l 1
 397.775 675.622 l 1
 374.268 668.788 l 1
 351.229 660.498 l 1
 328.76 650.771 l 1
 306.948 639.66 l 1
 285.869 627.194 l 1
 265.624 613.433 l 1
 246.276 598.429 l 1
 227.916 582.237 l 1
 210.604 564.925 l 1
 194.412 546.563 l 1
 179.408 527.217 l 1
 165.646 506.971 l 1
 153.18 485.898 l 1
 142.07 464.081 l 1
 132.343 441.613 l 1
 124.053 418.581 l 1
 117.219 395.065 l 1
 111.881 371.174 l 1
 108.048 346.989 l 1
 105.746 322.614 l 1
 104.974 298.148 l 1
 105.746 273.68 l 1
 108.048 249.306 l 1
 111.881 225.12 l 1
 117.219 201.232 l 1
 124.053 177.716 l 1
 132.343 154.685 l 1
 142.07 132.216 l 1
 153.18 110.398 l 1
 165.646 89.3271 l 1
 179.408 69.0771 l 1
 194.412 49.7344 l 1
 210.604 31.373 l 1
 227.916 14.0596 l 1
 246.276 -2.13477 l 1
 265.624 -17.1338 l 1
 285.869 -30.8984 l 1
 306.945 -43.3633 l 1
 328.757 -54.4736 l 1
 351.226 -64.1992 l 1
 374.258 -72.4912 l 1
 397.772 -79.3252 l 1
 421.661 -84.6611 l 1
 445.845 -88.4941 l 1
 470.219 -90.7998 l 1
 494.688 -91.5723 l 1
 519.154 -90.7998 l 1
 543.529 -88.4941 l 1
 567.713 -84.6611 l 1
 591.604 -79.3252 l 1
 615.113 -72.4912 l 1
 638.152 -64.1992 l 1
 660.621 -54.4736 l 1
 682.433 -43.3633 l 1
 703.511 -30.8994 l 1
 723.757 -17.1348 l 1
 743.104 -2.13574 l 1
 761.464 14.0586 l 1
 778.777 31.3721 l 1
 794.969 49.7334 l 1
 809.969 69.0762 l 1
 823.733 89.3262 l 1
 836.2 110.397 l 1
 847.311 132.215 l 1
 857.037 154.684 l 1
 865.327 177.715 l 1
 872.161 201.231 l 1
 877.499 225.119 l 1
 881.332 249.305 l 1
EndSplineSet
Validated: 1
EndChar

StartChar: Percent.13
Encoding: 13 57357 13
Width: 1000
VWidth: 0
HStem: -153.923 63.1232<445.845 543.529> 687.095 66.834<445.848 494.691>
VStem: 40.7656 64.9804<249.306 346.989> 883.635 64.983<249.305 346.99>
LayerCount: 2
Fore
SplineSet
494.652 753.929 m 0
 745.354 753.929 948.618 550.663 948.618 299.967 c 0
 948.618 49.3379 745.351 -153.923 494.652 -153.923 c 0
 243.954 -153.923 40.7656 49.3389 40.7656 299.965 c 0
 40.7627 550.663 243.953 753.929 494.652 753.929 c 0
881.332 249.305 m 1
 883.635 273.681 l 1
 884.407 298.149 l 1
 883.635 322.615 l 1
 881.333 346.99 l 1
 877.5 371.175 l 1
 872.162 395.066 l 1
 865.328 418.582 l 1
 857.038 441.614 l 1
 847.312 464.082 l 1
 836.201 485.899 l 1
 823.734 506.972 l 1
 809.97 527.218 l 1
 794.97 546.564 l 1
 778.778 564.926 l 1
 494.692 298.149 l 1
 494.691 687.866 l 1
 470.222 687.095 l 1
 445.848 684.792 l 1
 421.664 680.959 l 1
 397.775 675.622 l 1
 374.268 668.788 l 1
 351.229 660.498 l 1
 328.76 650.771 l 1
 306.948 639.66 l 1
 285.869 627.194 l 1
 265.624 613.433 l 1
 246.276 598.429 l 1
 227.916 582.237 l 1
 210.604 564.925 l 1
 194.412 546.563 l 1
 179.408 527.217 l 1
 165.646 506.971 l 1
 153.18 485.898 l 1
 142.07 464.081 l 1
 132.343 441.613 l 1
 124.053 418.581 l 1
 117.219 395.065 l 1
 111.881 371.174 l 1
 108.048 346.989 l 1
 105.746 322.614 l 1
 104.974 298.148 l 1
 105.746 273.68 l 1
 108.048 249.306 l 1
 111.881 225.12 l 1
 117.219 201.232 l 1
 124.053 177.716 l 1
 132.343 154.685 l 1
 142.07 132.216 l 1
 153.18 110.398 l 1
 165.646 89.3271 l 1
 179.408 69.0771 l 1
 194.412 49.7344 l 1
 210.604 31.373 l 1
 227.916 14.0596 l 1
 246.276 -2.13477 l 1
 265.624 -17.1338 l 1
 285.869 -30.8984 l 1
 306.945 -43.3633 l 1
 328.757 -54.4736 l 1
 351.226 -64.1992 l 1
 374.258 -72.4912 l 1
 397.772 -79.3252 l 1
 421.661 -84.6611 l 1
 445.845 -88.4941 l 1
 470.219 -90.7998 l 1
 494.688 -91.5723 l 1
 519.154 -90.7998 l 1
 543.529 -88.4941 l 1
 567.713 -84.6611 l 1
 591.604 -79.3252 l 1
 615.113 -72.4912 l 1
 638.152 -64.1992 l 1
 660.621 -54.4736 l 1
 682.433 -43.3633 l 1
 703.511 -30.8994 l 1
 723.757 -17.1348 l 1
 743.104 -2.13574 l 1
 761.464 14.0586 l 1
 778.777 31.3721 l 1
 794.969 49.7334 l 1
 809.969 69.0762 l 1
 823.733 89.3262 l 1
 836.2 110.397 l 1
 847.311 132.215 l 1
 857.037 154.684 l 1
 865.327 177.715 l 1
 872.161 201.231 l 1
 877.499 225.119 l 1
 881.332 249.305 l 1
EndSplineSet
Validated: 1
EndChar

StartChar: Percent.14
Encoding: 14 57358 14
Width: 1000
VWidth: 0
HStem: -153.923 63.1232<445.845 543.529> 687.095 66.834<445.848 494.691>
VStem: 40.7656 64.9804<249.306 346.989> 883.635 64.983<249.305 346.99>
LayerCount: 2
Fore
SplineSet
494.652 753.929 m 0
 745.354 753.929 948.618 550.663 948.618 299.967 c 0
 948.618 49.3379 745.351 -153.923 494.652 -153.923 c 0
 243.954 -153.923 40.7656 49.3389 40.7656 299.965 c 0
 40.7627 550.663 243.953 753.929 494.652 753.929 c 0
881.332 249.305 m 1
 883.635 273.681 l 1
 884.407 298.149 l 1
 883.635 322.615 l 1
 881.333 346.99 l 1
 877.5 371.175 l 1
 872.162 395.066 l 1
 865.328 418.582 l 1
 857.038 441.614 l 1
 847.312 464.082 l 1
 836.201 485.899 l 1
 823.734 506.972 l 1
 809.97 527.218 l 1
 794.97 546.564 l 1
 494.692 298.149 l 1
 494.691 687.866 l 1
 470.222 687.095 l 1
 445.848 684.792 l 1
 421.664 680.959 l 1
 397.775 675.622 l 1
 374.268 668.788 l 1
 351.229 660.498 l 1
 328.76 650.771 l 1
 306.948 639.66 l 1
 285.869 627.194 l 1
 265.624 613.433 l 1
 246.276 598.429 l 1
 227.916 582.237 l 1
 210.604 564.925 l 1
 194.412 546.563 l 1
 179.408 527.217 l 1
 165.646 506.971 l 1
 153.18 485.898 l 1
 142.07 464.081 l 1
 132.343 441.613 l 1
 124.053 418.581 l 1
 117.219 395.065 l 1
 111.881 371.174 l 1
 108.048 346.989 l 1
 105.746 322.614 l 1
 104.974 298.148 l 1
 105.746 273.68 l 1
 108.048 249.306 l 1
 111.881 225.12 l 1
 117.219 201.232 l 1
 124.053 177.716 l 1
 132.343 154.685 l 1
 142.07 132.216 l 1
 153.18 110.398 l 1
 165.646 89.3271 l 1
 179.408 69.0771 l 1
 194.412 49.7344 l 1
 210.604 31.373 l 1
 227.916 14.0596 l 1
 246.276 -2.13477 l 1
 265.624 -17.1338 l 1
 285.869 -30.8984 l 1
 306.945 -43.3633 l 1
 328.757 -54.4736 l 1
 351.226 -64.1992 l 1
 374.258 -72.4912 l 1
 397.772 -79.3252 l 1
 421.661 -84.6611 l 1
 445.845 -88.4941 l 1
 470.219 -90.7998 l 1
 494.688 -91.5723 l 1
 519.154 -90.7998 l 1
 543.529 -88.4941 l 1
 567.713 -84.6611 l 1
 591.604 -79.3252 l 1
 615.113 -72.4912 l 1
 638.152 -64.1992 l 1
 660.621 -54.4736 l 1
 682.433 -43.3633 l 1
 703.511 -30.8994 l 1
 723.757 -17.1348 l 1
 743.104 -2.13574 l 1
 761.464 14.0586 l 1
 778.777 31.3721 l 1
 794.969 49.7334 l 1
 809.969 69.0762 l 1
 823.733 89.3262 l 1
 836.2 110.397 l 1
 847.311 132.215 l 1
 857.037 154.684 l 1
 865.327 177.715 l 1
 872.161 201.231 l 1
 877.499 225.119 l 1
 881.332 249.305 l 1
EndSplineSet
Validated: 1
EndChar

StartChar: Percent.15
Encoding: 15 57359 15
Width: 1000
VWidth: 0
HStem: -153.923 63.1232<445.845 543.529> 687.095 66.834<445.848 494.691>
VStem: 40.7656 64.9804<249.306 346.989> 883.636 64.982<249.305 346.99>
LayerCount: 2
Fore
SplineSet
494.652 753.929 m 0
 745.354 753.929 948.618 550.663 948.618 299.967 c 0
 948.618 49.3379 745.351 -153.923 494.652 -153.923 c 0
 243.954 -153.923 40.7656 49.3389 40.7656 299.965 c 0
 40.7627 550.663 243.953 753.929 494.652 753.929 c 0
881.332 249.305 m 1
 883.636 273.681 l 1
 884.408 298.149 l 1
 883.636 322.615 l 1
 881.334 346.99 l 1
 877.501 371.175 l 1
 872.163 395.066 l 1
 865.329 418.582 l 1
 857.039 441.614 l 1
 847.312 464.082 l 1
 836.202 485.899 l 1
 823.735 506.972 l 1
 809.971 527.218 l 1
 494.692 298.149 l 1
 494.691 687.866 l 1
 470.222 687.095 l 1
 445.848 684.792 l 1
 421.664 680.959 l 1
 397.775 675.622 l 1
 374.268 668.788 l 1
 351.229 660.498 l 1
 328.76 650.771 l 1
 306.948 639.66 l 1
 285.869 627.194 l 1
 265.624 613.433 l 1
 246.276 598.429 l 1
 227.916 582.237 l 1
 210.604 564.925 l 1
 194.412 546.563 l 1
 179.408 527.217 l 1
 165.646 506.971 l 1
 153.18 485.898 l 1
 142.07 464.081 l 1
 132.343 441.613 l 1
 124.053 418.581 l 1
 117.219 395.065 l 1
 111.881 371.174 l 1
 108.048 346.989 l 1
 105.746 322.614 l 1
 104.974 298.148 l 1
 105.746 273.68 l 1
 108.048 249.306 l 1
 111.881 225.12 l 1
 117.219 201.232 l 1
 124.053 177.716 l 1
 132.343 154.685 l 1
 142.07 132.216 l 1
 153.18 110.398 l 1
 165.646 89.3271 l 1
 179.408 69.0771 l 1
 194.412 49.7344 l 1
 210.604 31.373 l 1
 227.916 14.0596 l 1
 246.276 -2.13477 l 1
 265.624 -17.1338 l 1
 285.869 -30.8984 l 1
 306.945 -43.3633 l 1
 328.757 -54.4736 l 1
 351.226 -64.1992 l 1
 374.258 -72.4912 l 1
 397.772 -79.3252 l 1
 421.661 -84.6611 l 1
 445.845 -88.4941 l 1
 470.219 -90.7998 l 1
 494.688 -91.5723 l 1
 519.154 -90.7998 l 1
 543.529 -88.4941 l 1
 567.713 -84.6611 l 1
 591.604 -79.3252 l 1
 615.113 -72.4912 l 1
 638.152 -64.1992 l 1
 660.621 -54.4736 l 1
 682.433 -43.3633 l 1
 703.511 -30.8994 l 1
 723.757 -17.1348 l 1
 743.104 -2.13574 l 1
 761.464 14.0586 l 1
 778.777 31.3721 l 1
 794.969 49.7334 l 1
 809.969 69.0762 l 1
 823.733 89.3262 l 1
 836.2 110.397 l 1
 847.311 132.215 l 1
 857.037 154.684 l 1
 865.327 177.715 l 1
 872.161 201.231 l 1
 877.499 225.119 l 1
 881.332 249.305 l 1
EndSplineSet
Validated: 1
EndChar

StartChar: Percent.16
Encoding: 16 57360 16
Width: 1000
VWidth: 0
HStem: -153.923 63.1232<445.845 543.529> 687.095 66.834<445.848 494.691>
VStem: 40.7656 64.9804<249.306 346.989> 883.635 64.983<249.305 346.99>
LayerCount: 2
Fore
SplineSet
494.652 753.929 m 0
 745.354 753.929 948.618 550.663 948.618 299.967 c 0
 948.618 49.3379 745.351 -153.923 494.652 -153.923 c 0
 243.954 -153.923 40.7656 49.3389 40.7656 299.965 c 0
 40.7627 550.663 243.953 753.929 494.652 753.929 c 0
881.332 249.305 m 1
 883.635 273.681 l 1
 884.407 298.149 l 1
 883.635 322.615 l 1
 881.333 346.99 l 1
 877.5 371.175 l 1
 872.162 395.066 l 1
 865.328 418.582 l 1
 857.038 441.614 l 1
 847.312 464.082 l 1
 836.201 485.899 l 1
 823.734 506.972 l 1
 494.691 298.149 l 1
 494.691 687.866 l 1
 470.222 687.095 l 1
 445.848 684.792 l 1
 421.664 680.959 l 1
 397.775 675.622 l 1
 374.268 668.788 l 1
 351.229 660.498 l 1
 328.76 650.771 l 1
 306.948 639.66 l 1
 285.869 627.194 l 1
 265.624 613.433 l 1
 246.276 598.429 l 1
 227.916 582.237 l 1
 210.604 564.925 l 1
 194.412 546.563 l 1
 179.408 527.217 l 1
 165.646 506.971 l 1
 153.18 485.898 l 1
 142.07 464.081 l 1
 132.343 441.613 l 1
 124.053 418.581 l 1
 117.219 395.065 l 1
 111.881 371.174 l 1
 108.048 346.989 l 1
 105.746 322.614 l 1
 104.974 298.148 l 1
 105.746 273.68 l 1
 108.048 249.306 l 1
 111.881 225.12 l 1
 117.219 201.232 l 1
 124.053 177.716 l 1
 132.343 154.685 l 1
 142.07 132.216 l 1
 153.18 110.398 l 1
 165.646 89.3271 l 1
 179.408 69.0771 l 1
 194.412 49.7344 l 1
 210.604 31.373 l 1
 227.916 14.0596 l 1
 246.276 -2.13477 l 1
 265.624 -17.1338 l 1
 285.869 -30.8984 l 1
 306.945 -43.3633 l 1
 328.757 -54.4736 l 1
 351.226 -64.1992 l 1
 374.258 -72.4912 l 1
 397.772 -79.3252 l 1
 421.661 -84.6611 l 1
 445.845 -88.4941 l 1
 470.219 -90.7998 l 1
 494.688 -91.5723 l 1
 519.154 -90.7998 l 1
 543.529 -88.4941 l 1
 567.713 -84.6611 l 1
 591.604 -79.3252 l 1
 615.113 -72.4912 l 1
 638.152 -64.1992 l 1
 660.621 -54.4736 l 1
 682.433 -43.3633 l 1
 703.511 -30.8994 l 1
 723.757 -17.1348 l 1
 743.104 -2.13574 l 1
 761.464 14.0586 l 1
 778.777 31.3721 l 1
 794.969 49.7334 l 1
 809.969 69.0762 l 1
 823.733 89.3262 l 1
 836.2 110.397 l 1
 847.311 132.215 l 1
 857.037 154.684 l 1
 865.327 177.715 l 1
 872.161 201.231 l 1
 877.499 225.119 l 1
 881.332 249.305 l 1
EndSplineSet
Validated: 1
EndChar

StartChar: Percent.17
Encoding: 17 57361 17
Width: 1000
VWidth: 0
HStem: -153.923 63.1232<445.845 543.529> 687.095 66.834<445.848 494.691>
VStem: 40.7656 64.9804<249.306 346.989> 883.635 64.983<249.305 346.99>
LayerCount: 2
Fore
SplineSet
494.652 753.929 m 0
 745.354 753.929 948.618 550.663 948.618 299.967 c 0
 948.618 49.3379 745.351 -153.923 494.652 -153.923 c 0
 243.954 -153.923 40.7656 49.3389 40.7656 299.965 c 0
 40.7627 550.663 243.953 753.929 494.652 753.929 c 0
881.332 249.305 m 1
 883.635 273.681 l 1
 884.407 298.149 l 1
 883.635 322.615 l 1
 881.333 346.99 l 1
 877.5 371.175 l 1
 872.162 395.066 l 1
 865.328 418.582 l 1
 857.038 441.614 l 1
 847.312 464.082 l 1
 836.201 485.899 l 1
 494.692 298.149 l 1
 494.691 687.866 l 1
 470.222 687.095 l 1
 445.848 684.792 l 1
 421.664 680.959 l 1
 397.775 675.622 l 1
 374.268 668.788 l 1
 351.229 660.498 l 1
 328.76 650.771 l 1
 306.948 639.66 l 1
 285.869 627.194 l 1
 265.624 613.433 l 1
 246.276 598.429 l 1
 227.916 582.237 l 1
 210.604 564.925 l 1
 194.412 546.563 l 1
 179.408 527.217 l 1
 165.646 506.971 l 1
 153.18 485.898 l 1
 142.07 464.081 l 1
 132.343 441.613 l 1
 124.053 418.581 l 1
 117.219 395.065 l 1
 111.881 371.174 l 1
 108.048 346.989 l 1
 105.746 322.614 l 1
 104.974 298.148 l 1
 105.746 273.68 l 1
 108.048 249.306 l 1
 111.881 225.12 l 1
 117.219 201.232 l 1
 124.053 177.716 l 1
 132.343 154.685 l 1
 142.07 132.216 l 1
 153.18 110.398 l 1
 165.646 89.3271 l 1
 179.408 69.0771 l 1
 194.412 49.7344 l 1
 210.604 31.373 l 1
 227.916 14.0596 l 1
 246.276 -2.13477 l 1
 265.624 -17.1338 l 1
 285.869 -30.8984 l 1
 306.945 -43.3633 l 1
 328.757 -54.4736 l 1
 351.226 -64.1992 l 1
 374.258 -72.4912 l 1
 397.772 -79.3252 l 1
 421.661 -84.6611 l 1
 445.845 -88.4941 l 1
 470.219 -90.7998 l 1
 494.688 -91.5723 l 1
 519.154 -90.7998 l 1
 543.529 -88.4941 l 1
 567.713 -84.6611 l 1
 591.604 -79.3252 l 1
 615.113 -72.4912 l 1
 638.152 -64.1992 l 1
 660.621 -54.4736 l 1
 682.433 -43.3633 l 1
 703.511 -30.8994 l 1
 723.757 -17.1348 l 1
 743.104 -2.13574 l 1
 761.464 14.0586 l 1
 778.777 31.3721 l 1
 794.969 49.7334 l 1
 809.969 69.0762 l 1
 823.733 89.3262 l 1
 836.2 110.397 l 1
 847.311 132.215 l 1
 857.037 154.684 l 1
 865.327 177.715 l 1
 872.161 201.231 l 1
 877.499 225.119 l 1
 881.332 249.305 l 1
EndSplineSet
Validated: 1
EndChar

StartChar: Percent.18
Encoding: 18 57362 18
Width: 1000
VWidth: 0
HStem: -153.923 63.1232<445.845 543.529> 687.095 66.834<445.848 494.691>
VStem: 40.7656 64.9804<249.306 346.989> 883.635 64.983<249.305 346.99>
LayerCount: 2
Fore
SplineSet
494.652 753.929 m 0
 745.354 753.929 948.618 550.663 948.618 299.967 c 0
 948.618 49.3379 745.351 -153.923 494.652 -153.923 c 0
 243.954 -153.923 40.7656 49.3389 40.7656 299.965 c 0
 40.7627 550.663 243.953 753.929 494.652 753.929 c 0
881.332 249.305 m 1
 883.635 273.681 l 1
 884.407 298.149 l 1
 883.635 322.615 l 1
 881.333 346.99 l 1
 877.5 371.175 l 1
 872.162 395.066 l 1
 865.328 418.582 l 1
 857.038 441.614 l 1
 847.312 464.082 l 1
 494.692 298.149 l 1
 494.691 687.866 l 1
 470.222 687.095 l 1
 445.848 684.792 l 1
 421.664 680.959 l 1
 397.775 675.622 l 1
 374.268 668.788 l 1
 351.229 660.498 l 1
 328.76 650.771 l 1
 306.948 639.66 l 1
 285.869 627.194 l 1
 265.624 613.433 l 1
 246.276 598.429 l 1
 227.916 582.237 l 1
 210.604 564.925 l 1
 194.412 546.563 l 1
 179.408 527.217 l 1
 165.646 506.971 l 1
 153.18 485.898 l 1
 142.07 464.081 l 1
 132.343 441.613 l 1
 124.053 418.581 l 1
 117.219 395.065 l 1
 111.881 371.174 l 1
 108.048 346.989 l 1
 105.746 322.614 l 1
 104.974 298.148 l 1
 105.746 273.68 l 1
 108.048 249.306 l 1
 111.881 225.12 l 1
 117.219 201.232 l 1
 124.053 177.716 l 1
 132.343 154.685 l 1
 142.07 132.216 l 1
 153.18 110.398 l 1
 165.646 89.3271 l 1
 179.408 69.0771 l 1
 194.412 49.7344 l 1
 210.604 31.373 l 1
 227.916 14.0596 l 1
 246.276 -2.13477 l 1
 265.624 -17.1338 l 1
 285.869 -30.8984 l 1
 306.945 -43.3633 l 1
 328.757 -54.4736 l 1
 351.226 -64.1992 l 1
 374.258 -72.4912 l 1
 397.772 -79.3252 l 1
 421.661 -84.6611 l 1
 445.845 -88.4941 l 1
 470.219 -90.7998 l 1
 494.688 -91.5723 l 1
 519.154 -90.7998 l 1
 543.529 -88.4941 l 1
 567.713 -84.6611 l 1
 591.604 -79.3252 l 1
 615.113 -72.4912 l 1
 638.152 -64.1992 l 1
 660.621 -54.4736 l 1
 682.433 -43.3633 l 1
 703.511 -30.8994 l 1
 723.757 -17.1348 l 1
 743.104 -2.13574 l 1
 761.464 14.0586 l 1
 778.777 31.3721 l 1
 794.969 49.7334 l 1
 809.969 69.0762 l 1
 823.733 89.3262 l 1
 836.2 110.397 l 1
 847.311 132.215 l 1
 857.037 154.684 l 1
 865.327 177.715 l 1
 872.161 201.231 l 1
 877.499 225.119 l 1
 881.332 249.305 l 1
EndSplineSet
Validated: 1
EndChar

StartChar: Percent.19
Encoding: 19 57363 19
Width: 1000
VWidth: 0
HStem: -153.923 63.1232<445.845 543.529> 687.095 66.834<445.848 494.691>
VStem: 40.7656 64.9804<249.306 346.989> 883.635 64.983<249.305 346.99>
LayerCount: 2
Fore
SplineSet
494.652 753.929 m 0
 745.354 753.929 948.618 550.663 948.618 299.967 c 0
 948.618 49.3379 745.351 -153.923 494.652 -153.923 c 0
 243.954 -153.923 40.7656 49.3389 40.7656 299.965 c 0
 40.7627 550.663 243.953 753.929 494.652 753.929 c 0
494.692 298.149 m 5
 494.691 687.866 l 1
 470.222 687.095 l 1
 445.848 684.792 l 1
 421.664 680.959 l 1
 397.775 675.622 l 1
 374.268 668.788 l 1
 351.229 660.498 l 1
 328.76 650.771 l 1
 306.948 639.66 l 1
 285.869 627.194 l 1
 265.624 613.433 l 1
 246.276 598.429 l 1
 227.916 582.237 l 1
 210.604 564.925 l 1
 194.412 546.563 l 1
 179.408 527.217 l 1
 165.646 506.971 l 1
 153.18 485.898 l 1
 142.07 464.081 l 1
 132.343 441.613 l 1
 124.053 418.581 l 1
 117.219 395.065 l 1
 111.881 371.174 l 1
 108.048 346.989 l 1
 105.746 322.614 l 1
 104.974 298.148 l 1
 105.746 273.68 l 1
 108.048 249.306 l 1
 111.881 225.12 l 1
 117.219 201.232 l 1
 124.053 177.716 l 1
 132.343 154.685 l 1
 142.07 132.216 l 1
 153.18 110.398 l 1
 165.646 89.3271 l 1
 179.408 69.0771 l 1
 194.412 49.7344 l 1
 210.604 31.373 l 1
 227.916 14.0596 l 1
 246.276 -2.13477 l 1
 265.624 -17.1338 l 1
 285.869 -30.8984 l 1
 306.945 -43.3633 l 1
 328.757 -54.4736 l 1
 351.226 -64.1992 l 1
 374.258 -72.4912 l 1
 397.772 -79.3252 l 1
 421.661 -84.6611 l 1
 445.845 -88.4941 l 1
 470.219 -90.7998 l 1
 494.688 -91.5723 l 1
 519.154 -90.7998 l 1
 543.529 -88.4941 l 1
 567.713 -84.6611 l 1
 591.604 -79.3252 l 1
 615.113 -72.4912 l 1
 638.152 -64.1992 l 1
 660.621 -54.4736 l 1
 682.433 -43.3633 l 1
 703.511 -30.8994 l 1
 723.757 -17.1348 l 1
 743.104 -2.13574 l 1
 761.464 14.0586 l 1
 778.777 31.3721 l 1
 794.969 49.7334 l 1
 809.969 69.0762 l 1
 823.733 89.3262 l 1
 836.2 110.397 l 1
 847.311 132.215 l 1
 857.037 154.684 l 1
 865.327 177.715 l 1
 872.161 201.231 l 1
 877.499 225.119 l 1
 881.332 249.305 l 1
 883.635 273.681 l 1
 884.407 298.149 l 1
 883.635 322.615 l 1
 881.333 346.99 l 1
 877.5 371.175 l 1
 872.162 395.066 l 1
 865.328 418.582 l 1
 857.038 441.614 l 5
 494.692 298.149 l 5
EndSplineSet
Validated: 1
EndChar

StartChar: Percent.20
Encoding: 20 57364 20
Width: 1000
VWidth: 0
HStem: -153.922 63.1222<445.845 543.528> 687.094 66.835<445.845 494.688>
VStem: 40.7656 64.9774<249.305 346.987> 883.632 64.986<249.305 346.988>
LayerCount: 2
Fore
SplineSet
494.652 753.929 m 0
 745.354 753.929 948.618 550.663 948.618 299.968 c 0
 948.618 49.3379 745.351 -153.922 494.652 -153.922 c 0
 243.954 -153.922 40.7656 49.3389 40.7656 299.965 c 0
 40.7627 550.663 243.953 753.929 494.652 753.929 c 0
881.332 249.305 m 1
 883.632 273.68 l 1
 884.404 298.148 l 1
 883.632 322.614 l 1
 881.33 346.988 l 1
 877.497 371.174 l 1
 872.159 395.065 l 1
 865.325 418.581 l 1
 494.688 298.148 l 1
 494.688 687.865 l 1
 470.219 687.094 l 1
 445.845 684.791 l 1
 421.66 680.958 l 1
 397.772 675.621 l 1
 374.265 668.787 l 1
 351.226 660.497 l 1
 328.757 650.77 l 1
 306.945 639.659 l 1
 285.866 627.193 l 1
 265.621 613.432 l 1
 246.273 598.428 l 1
 227.913 582.236 l 1
 210.601 564.924 l 1
 194.409 546.562 l 1
 179.405 527.216 l 1
 165.644 506.97 l 1
 153.177 485.897 l 1
 142.067 464.08 l 1
 132.34 441.612 l 1
 124.05 418.58 l 1
 117.216 395.064 l 1
 111.878 371.173 l 1
 108.045 346.987 l 1
 105.743 322.613 l 1
 104.971 298.147 l 1
 105.743 273.679 l 1
 108.045 249.305 l 1
 111.878 225.119 l 1
 117.216 201.231 l 1
 124.05 177.715 l 1
 132.34 154.684 l 1
 142.067 132.215 l 1
 153.177 110.397 l 1
 165.644 89.3262 l 1
 179.405 69.0752 l 1
 194.409 49.7334 l 1
 210.601 31.3721 l 1
 227.913 14.0586 l 1
 246.273 -2.13574 l 1
 265.621 -17.1348 l 1
 285.866 -30.9004 l 1
 306.945 -43.3633 l 1
 328.757 -54.4736 l 1
 351.226 -64.1992 l 1
 374.258 -72.4912 l 1
 397.772 -79.3252 l 1
 421.66 -84.6611 l 1
 445.845 -88.4941 l 1
 470.219 -90.7998 l 1
 494.688 -91.5732 l 1
 519.153 -90.7998 l 1
 543.528 -88.4941 l 1
 567.713 -84.6611 l 1
 591.604 -79.3252 l 1
 615.113 -72.4912 l 1
 638.152 -64.1992 l 1
 660.621 -54.4736 l 1
 682.433 -43.3633 l 1
 703.511 -30.9004 l 1
 723.757 -17.1348 l 1
 743.104 -2.13574 l 1
 761.464 14.0586 l 1
 778.777 31.3721 l 1
 794.969 49.7334 l 1
 809.968 69.0752 l 1
 823.733 89.3262 l 1
 836.2 110.397 l 1
 847.311 132.215 l 1
 857.037 154.684 l 1
 865.327 177.715 l 1
 872.161 201.231 l 1
 877.499 225.119 l 1
 881.332 249.305 l 1
EndSplineSet
Validated: 1
EndChar

StartChar: Percent.21
Encoding: 21 57365 21
Width: 1000
VWidth: 0
HStem: -153.922 63.1222<445.845 543.528> 687.094 66.835<445.845 494.688>
VStem: 40.7656 64.9774<249.305 346.987> 883.634 64.984<249.305 346.986>
LayerCount: 2
Fore
SplineSet
494.652 753.929 m 0
 745.354 753.929 948.618 550.663 948.618 299.968 c 0
 948.618 49.3379 745.351 -153.922 494.652 -153.922 c 0
 243.954 -153.922 40.7656 49.3389 40.7656 299.965 c 0
 40.7627 550.663 243.953 753.929 494.652 753.929 c 0
881.332 249.305 m 1
 883.634 273.678 l 1
 884.406 298.146 l 1
 883.634 322.612 l 1
 881.332 346.986 l 1
 877.499 371.172 l 1
 872.161 395.063 l 1
 500 298.148 l 1
 494.688 687.865 l 1
 470.219 687.094 l 1
 445.845 684.791 l 1
 421.66 680.958 l 1
 397.772 675.621 l 1
 374.265 668.787 l 1
 351.226 660.497 l 1
 328.757 650.77 l 1
 306.945 639.659 l 1
 285.866 627.193 l 1
 265.621 613.432 l 1
 246.273 598.428 l 1
 227.913 582.236 l 1
 210.601 564.924 l 1
 194.409 546.562 l 1
 179.405 527.216 l 1
 165.644 506.97 l 1
 153.177 485.897 l 1
 142.067 464.08 l 1
 132.34 441.612 l 1
 124.05 418.58 l 1
 117.216 395.064 l 1
 111.878 371.173 l 1
 108.045 346.987 l 1
 105.743 322.613 l 1
 104.971 298.147 l 1
 105.743 273.679 l 1
 108.045 249.305 l 1
 111.878 225.119 l 1
 117.216 201.231 l 1
 124.05 177.715 l 1
 132.34 154.684 l 1
 142.067 132.215 l 1
 153.177 110.397 l 1
 165.644 89.3262 l 1
 179.405 69.0752 l 1
 194.409 49.7334 l 1
 210.601 31.3721 l 1
 227.913 14.0586 l 1
 246.273 -2.13574 l 1
 265.621 -17.1348 l 1
 285.866 -30.9004 l 1
 306.945 -43.3633 l 1
 328.757 -54.4736 l 1
 351.226 -64.1992 l 1
 374.258 -72.4912 l 1
 397.772 -79.3252 l 1
 421.66 -84.6611 l 1
 445.845 -88.4941 l 1
 470.219 -90.7998 l 1
 494.688 -91.5732 l 1
 519.153 -90.7998 l 1
 543.528 -88.4941 l 1
 567.713 -84.6611 l 1
 591.604 -79.3252 l 1
 615.113 -72.4912 l 1
 638.152 -64.1992 l 1
 660.621 -54.4736 l 1
 682.433 -43.3633 l 1
 703.511 -30.9004 l 1
 723.757 -17.1348 l 1
 743.104 -2.13574 l 1
 761.464 14.0586 l 1
 778.777 31.3721 l 1
 794.969 49.7334 l 1
 809.968 69.0752 l 1
 823.733 89.3262 l 1
 836.2 110.397 l 1
 847.311 132.215 l 1
 857.037 154.684 l 1
 865.327 177.715 l 1
 872.161 201.231 l 1
 877.499 225.119 l 1
 881.332 249.305 l 1
EndSplineSet
Validated: 1
EndChar

StartChar: Percent.22
Encoding: 22 57366 22
Width: 1000
VWidth: 0
HStem: -153.922 63.1222<445.845 543.528> 687.094 66.835<445.845 494.688>
VStem: 40.7656 64.9774<249.305 346.987> 883.634 64.984<249.305 346.986>
LayerCount: 2
Fore
SplineSet
494.652 753.929 m 0
 745.354 753.929 948.618 550.663 948.618 299.968 c 0
 948.618 49.3379 745.351 -153.922 494.652 -153.922 c 0
 243.954 -153.922 40.7656 49.3389 40.7656 299.965 c 0
 40.7627 550.663 243.953 753.929 494.652 753.929 c 0
881.332 249.305 m 1
 883.634 273.678 l 1
 884.406 298.146 l 1
 883.634 322.612 l 1
 881.332 346.986 l 1
 877.499 371.172 l 1
 500 298.148 l 1
 494.688 687.865 l 1
 470.219 687.094 l 1
 445.845 684.791 l 1
 421.66 680.958 l 1
 397.772 675.621 l 1
 374.265 668.787 l 1
 351.226 660.497 l 1
 328.757 650.77 l 1
 306.945 639.659 l 1
 285.866 627.193 l 1
 265.621 613.432 l 1
 246.273 598.428 l 1
 227.913 582.236 l 1
 210.601 564.924 l 1
 194.409 546.562 l 1
 179.405 527.216 l 1
 165.644 506.97 l 1
 153.177 485.897 l 1
 142.067 464.08 l 1
 132.34 441.612 l 1
 124.05 418.58 l 1
 117.216 395.064 l 1
 111.878 371.173 l 1
 108.045 346.987 l 1
 105.743 322.613 l 1
 104.971 298.147 l 1
 105.743 273.679 l 1
 108.045 249.305 l 1
 111.878 225.119 l 1
 117.216 201.231 l 1
 124.05 177.715 l 1
 132.34 154.684 l 1
 142.067 132.215 l 1
 153.177 110.397 l 1
 165.644 89.3262 l 1
 179.405 69.0752 l 1
 194.409 49.7334 l 1
 210.601 31.3721 l 1
 227.913 14.0586 l 1
 246.273 -2.13574 l 1
 265.621 -17.1348 l 1
 285.866 -30.9004 l 1
 306.945 -43.3633 l 1
 328.757 -54.4736 l 1
 351.226 -64.1992 l 1
 374.258 -72.4912 l 1
 397.772 -79.3252 l 1
 421.66 -84.6611 l 1
 445.845 -88.4941 l 1
 470.219 -90.7998 l 1
 494.688 -91.5732 l 1
 519.153 -90.7998 l 1
 543.528 -88.4941 l 1
 567.713 -84.6611 l 1
 591.604 -79.3252 l 1
 615.113 -72.4912 l 1
 638.152 -64.1992 l 1
 660.621 -54.4736 l 1
 682.433 -43.3633 l 1
 703.511 -30.9004 l 1
 723.757 -17.1348 l 1
 743.104 -2.13574 l 1
 761.464 14.0586 l 1
 778.777 31.3721 l 1
 794.969 49.7334 l 1
 809.968 69.0752 l 1
 823.733 89.3262 l 1
 836.2 110.397 l 1
 847.311 132.215 l 1
 857.037 154.684 l 1
 865.327 177.715 l 1
 872.161 201.231 l 1
 877.499 225.119 l 1
 881.332 249.305 l 1
EndSplineSet
Validated: 1
EndChar

StartChar: Percent.23
Encoding: 23 57367 23
Width: 1000
VWidth: 0
HStem: -153.922 63.1222<445.845 543.528> 687.094 66.835<445.845 494.688>
VStem: 40.7656 64.9774<249.305 346.987> 883.633 64.985<249.305 346.379>
LayerCount: 2
Fore
SplineSet
494.652 753.929 m 0
 745.354 753.929 948.618 550.663 948.618 299.968 c 0
 948.618 49.3379 745.351 -153.922 494.652 -153.922 c 0
 243.954 -153.922 40.7656 49.3389 40.7656 299.965 c 0
 40.7627 550.663 243.953 753.929 494.652 753.929 c 0
881.332 249.305 m 1
 883.633 273.679 l 1
 884.405 298.147 l 1
 883.633 322.613 l 1
 881.331 346.987 l 1
 500 298.148 l 1
 494.688 687.865 l 1
 470.219 687.094 l 1
 445.845 684.791 l 1
 421.66 680.958 l 1
 397.772 675.621 l 1
 374.265 668.787 l 1
 351.226 660.497 l 1
 328.757 650.77 l 1
 306.945 639.659 l 1
 285.866 627.193 l 1
 265.621 613.432 l 1
 246.273 598.428 l 1
 227.913 582.236 l 1
 210.601 564.924 l 1
 194.409 546.562 l 1
 179.405 527.216 l 1
 165.644 506.97 l 1
 153.177 485.897 l 1
 142.067 464.08 l 1
 132.34 441.612 l 1
 124.05 418.58 l 1
 117.216 395.064 l 1
 111.878 371.173 l 1
 108.045 346.987 l 1
 105.743 322.613 l 1
 104.971 298.147 l 1
 105.743 273.679 l 1
 108.045 249.305 l 1
 111.878 225.119 l 1
 117.216 201.231 l 1
 124.05 177.715 l 1
 132.34 154.684 l 1
 142.067 132.215 l 1
 153.177 110.397 l 1
 165.644 89.3262 l 1
 179.405 69.0752 l 1
 194.409 49.7334 l 1
 210.601 31.3721 l 1
 227.913 14.0586 l 1
 246.273 -2.13574 l 1
 265.621 -17.1348 l 1
 285.866 -30.9004 l 1
 306.945 -43.3633 l 1
 328.757 -54.4736 l 1
 351.226 -64.1992 l 1
 374.258 -72.4912 l 1
 397.772 -79.3252 l 1
 421.66 -84.6611 l 1
 445.845 -88.4941 l 1
 470.219 -90.7998 l 1
 494.688 -91.5732 l 1
 519.153 -90.7998 l 1
 543.528 -88.4941 l 1
 567.713 -84.6611 l 1
 591.604 -79.3252 l 1
 615.113 -72.4912 l 1
 638.152 -64.1992 l 1
 660.621 -54.4736 l 1
 682.433 -43.3633 l 1
 703.511 -30.9004 l 1
 723.757 -17.1348 l 1
 743.104 -2.13574 l 1
 761.464 14.0586 l 1
 778.777 31.3721 l 1
 794.969 49.7334 l 1
 809.968 69.0752 l 1
 823.733 89.3262 l 1
 836.2 110.397 l 1
 847.311 132.215 l 1
 857.037 154.684 l 1
 865.327 177.715 l 1
 872.161 201.231 l 1
 877.499 225.119 l 1
 881.332 249.305 l 1
EndSplineSet
Validated: 1
EndChar

StartChar: Percent.24
Encoding: 24 57368 24
Width: 1000
VWidth: 0
HStem: -153.922 63.1222<445.845 543.528> 687.094 66.835<445.845 494.688>
VStem: 40.7656 64.9774<249.305 346.987> 883.634 64.984<249.305 311.684>
LayerCount: 2
Fore
SplineSet
494.652 753.929 m 0
 745.354 753.929 948.618 550.663 948.618 299.968 c 0
 948.618 49.3379 745.351 -153.922 494.652 -153.922 c 0
 243.954 -153.922 40.7656 49.3389 40.7656 299.965 c 0
 40.7627 550.663 243.953 753.929 494.652 753.929 c 0
881.332 249.305 m 1
 883.634 273.679 l 1
 884.406 298.147 l 1
 883.634 322.613 l 1
 500 298.148 l 1
 494.688 687.865 l 1
 470.219 687.094 l 1
 445.845 684.791 l 1
 421.66 680.958 l 1
 397.772 675.621 l 1
 374.265 668.787 l 1
 351.226 660.497 l 1
 328.757 650.77 l 1
 306.945 639.659 l 1
 285.866 627.193 l 1
 265.621 613.432 l 1
 246.273 598.428 l 1
 227.913 582.236 l 1
 210.601 564.924 l 1
 194.409 546.562 l 1
 179.405 527.216 l 1
 165.644 506.97 l 1
 153.177 485.897 l 1
 142.067 464.08 l 1
 132.34 441.612 l 1
 124.05 418.58 l 1
 117.216 395.064 l 1
 111.878 371.173 l 1
 108.045 346.987 l 1
 105.743 322.613 l 1
 104.971 298.147 l 1
 105.743 273.679 l 1
 108.045 249.305 l 1
 111.878 225.119 l 1
 117.216 201.231 l 1
 124.05 177.715 l 1
 132.34 154.684 l 1
 142.067 132.215 l 1
 153.177 110.397 l 1
 165.644 89.3262 l 1
 179.405 69.0752 l 1
 194.409 49.7334 l 1
 210.601 31.3721 l 1
 227.913 14.0586 l 1
 246.273 -2.13574 l 1
 265.621 -17.1348 l 1
 285.866 -30.9004 l 1
 306.945 -43.3633 l 1
 328.757 -54.4736 l 1
 351.226 -64.1992 l 1
 374.258 -72.4912 l 1
 397.772 -79.3252 l 1
 421.66 -84.6611 l 1
 445.845 -88.4941 l 1
 470.219 -90.7998 l 1
 494.688 -91.5732 l 1
 519.153 -90.7998 l 1
 543.528 -88.4941 l 1
 567.713 -84.6611 l 1
 591.604 -79.3252 l 1
 615.113 -72.4912 l 1
 638.152 -64.1992 l 1
 660.621 -54.4736 l 1
 682.433 -43.3633 l 1
 703.511 -30.9004 l 1
 723.757 -17.1348 l 1
 743.104 -2.13574 l 1
 761.464 14.0586 l 1
 778.777 31.3721 l 1
 794.969 49.7334 l 1
 809.968 69.0752 l 1
 823.733 89.3262 l 1
 836.2 110.397 l 1
 847.311 132.215 l 1
 857.037 154.684 l 1
 865.327 177.715 l 1
 872.161 201.231 l 1
 877.499 225.119 l 1
 881.332 249.305 l 1
EndSplineSet
Validated: 1
EndChar

StartChar: Percent.25
Encoding: 25 57369 25
Width: 1000
VWidth: 0
HStem: -153.922 63.1222<445.845 543.528> 687.094 66.835<445.845 494.688>
VStem: 40.7656 64.9774<249.305 346.987> 883.634 64.984<249.305 298.147>
LayerCount: 2
Fore
SplineSet
494.652 753.929 m 0
 745.354 753.929 948.618 550.663 948.618 299.968 c 0
 948.618 49.3379 745.351 -153.922 494.652 -153.922 c 0
 243.954 -153.922 40.7656 49.3389 40.7656 299.965 c 0
 40.7627 550.663 243.953 753.929 494.652 753.929 c 0
881.332 249.305 m 1
 883.634 273.679 l 1
 884.406 298.147 l 1
 495.117 298.148 l 1
 494.688 687.865 l 1
 470.219 687.094 l 1
 445.845 684.791 l 1
 421.66 680.958 l 1
 397.772 675.621 l 1
 374.265 668.787 l 1
 351.226 660.497 l 1
 328.757 650.77 l 1
 306.945 639.659 l 1
 285.866 627.193 l 1
 265.621 613.432 l 1
 246.273 598.428 l 1
 227.913 582.236 l 1
 210.601 564.924 l 1
 194.409 546.562 l 1
 179.405 527.216 l 1
 165.644 506.97 l 1
 153.177 485.897 l 1
 142.067 464.08 l 1
 132.34 441.612 l 1
 124.05 418.58 l 1
 117.216 395.064 l 1
 111.878 371.173 l 1
 108.045 346.987 l 1
 105.743 322.613 l 1
 104.971 298.147 l 1
 105.743 273.679 l 1
 108.045 249.305 l 1
 111.878 225.119 l 1
 117.216 201.231 l 1
 124.05 177.715 l 1
 132.34 154.684 l 1
 142.067 132.215 l 1
 153.177 110.397 l 1
 165.644 89.3262 l 1
 179.405 69.0752 l 1
 194.409 49.7334 l 1
 210.601 31.3721 l 1
 227.913 14.0586 l 1
 246.273 -2.13574 l 1
 265.621 -17.1348 l 1
 285.866 -30.9004 l 1
 306.945 -43.3633 l 1
 328.757 -54.4736 l 1
 351.226 -64.1992 l 1
 374.258 -72.4912 l 1
 397.772 -79.3252 l 1
 421.66 -84.6611 l 1
 445.845 -88.4941 l 1
 470.219 -90.7998 l 1
 494.688 -91.5732 l 1
 519.153 -90.7998 l 1
 543.528 -88.4941 l 1
 567.713 -84.6611 l 1
 591.604 -79.3252 l 1
 615.113 -72.4912 l 1
 638.152 -64.1992 l 1
 660.621 -54.4736 l 1
 682.433 -43.3633 l 1
 703.511 -30.9004 l 1
 723.757 -17.1348 l 1
 743.104 -2.13574 l 1
 761.464 14.0586 l 1
 778.777 31.3721 l 1
 794.969 49.7334 l 1
 809.968 69.0752 l 1
 823.733 89.3262 l 1
 836.2 110.397 l 1
 847.311 132.215 l 1
 857.037 154.684 l 1
 865.327 177.715 l 1
 872.161 201.231 l 1
 877.499 225.119 l 1
 881.332 249.305 l 1
EndSplineSet
Validated: 1
EndChar

StartChar: Percent.26
Encoding: 26 57370 26
Width: 1000
VWidth: 0
HStem: -153.922 63.1232<445.845 543.528> 687.095 66.834<445.845 494.688>
VStem: 40.7656 64.9774<249.306 346.988> 494.689 453.929<298.149 434.954>
LayerCount: 2
Fore
SplineSet
494.652 753.929 m 0
 745.354 753.929 948.618 550.663 948.618 299.968 c 0
 948.618 49.3379 745.351 -153.922 494.652 -153.922 c 0
 243.954 -153.922 40.7656 49.3389 40.7656 299.965 c 0
 40.7627 550.663 243.953 753.929 494.652 753.929 c 0
877.499 225.12 m 1
 881.33 249.308 l 1
 883.632 273.682 l 1
 494.689 298.149 l 1
 494.688 687.866 l 1
 470.219 687.095 l 1
 445.845 684.792 l 1
 421.66 680.959 l 1
 397.772 675.622 l 1
 374.265 668.788 l 1
 351.226 660.498 l 1
 328.757 650.771 l 1
 306.945 639.66 l 1
 285.866 627.194 l 1
 265.621 613.433 l 1
 246.273 598.429 l 1
 227.913 582.237 l 1
 210.601 564.925 l 1
 194.409 546.563 l 1
 179.405 527.217 l 1
 165.644 506.971 l 1
 153.177 485.898 l 1
 142.067 464.081 l 1
 132.34 441.613 l 1
 124.05 418.581 l 1
 117.216 395.065 l 1
 111.878 371.174 l 1
 108.045 346.988 l 1
 105.743 322.614 l 1
 104.971 298.148 l 1
 105.743 273.68 l 1
 108.045 249.306 l 1
 111.878 225.12 l 1
 117.216 201.232 l 1
 124.05 177.716 l 1
 132.34 154.685 l 1
 142.067 132.216 l 1
 153.177 110.398 l 1
 165.644 89.3271 l 1
 179.405 69.0762 l 1
 194.409 49.7344 l 1
 210.601 31.373 l 1
 227.913 14.0596 l 1
 246.273 -2.13477 l 1
 265.621 -17.1338 l 1
 285.866 -30.8994 l 1
 306.945 -43.3623 l 1
 328.757 -54.4727 l 1
 351.226 -64.1982 l 1
 374.258 -72.4902 l 1
 397.772 -79.3242 l 1
 421.66 -84.6602 l 1
 445.845 -88.4932 l 1
 470.219 -90.7988 l 1
 494.688 -91.5723 l 1
 519.153 -90.7988 l 1
 543.528 -88.4932 l 1
 567.713 -84.6602 l 1
 591.604 -79.3242 l 1
 615.113 -72.4902 l 1
 638.152 -64.1982 l 1
 660.621 -54.4727 l 1
 682.433 -43.3623 l 1
 703.511 -30.8994 l 1
 723.757 -17.1338 l 1
 743.104 -2.13477 l 1
 761.464 14.0596 l 1
 778.777 31.373 l 1
 794.969 49.7344 l 1
 809.968 69.0762 l 1
 823.733 89.3271 l 1
 836.2 110.398 l 1
 847.311 132.216 l 1
 857.037 154.685 l 1
 865.327 177.716 l 1
 872.161 201.232 l 1
 877.499 225.12 l 1
EndSplineSet
Validated: 524289
EndChar

StartChar: Percent.27
Encoding: 27 57371 27
Width: 1000
VWidth: 0
HStem: -153.922 63.1232<445.845 543.528> 687.095 66.834<445.845 494.688>
VStem: 40.7656 64.9774<249.306 346.988> 494.689 453.929<298.149 434.954>
LayerCount: 2
Fore
SplineSet
494.652 753.929 m 0
 745.354 753.929 948.618 550.663 948.618 299.968 c 0
 948.618 49.3379 745.351 -153.922 494.652 -153.922 c 0
 243.954 -153.922 40.7656 49.3389 40.7656 299.965 c 0
 40.7627 550.663 243.953 753.929 494.652 753.929 c 0
872.161 201.232 m 1
 877.497 225.122 l 1
 881.33 249.308 l 1
 494.689 298.149 l 1
 494.688 687.866 l 1
 470.219 687.095 l 1
 445.845 684.792 l 1
 421.66 680.959 l 1
 397.772 675.622 l 1
 374.265 668.788 l 1
 351.226 660.498 l 1
 328.757 650.771 l 1
 306.945 639.66 l 1
 285.866 627.194 l 1
 265.621 613.433 l 1
 246.273 598.429 l 1
 227.913 582.237 l 1
 210.601 564.925 l 1
 194.409 546.563 l 1
 179.405 527.217 l 1
 165.644 506.971 l 1
 153.177 485.898 l 1
 142.067 464.081 l 1
 132.34 441.613 l 1
 124.05 418.581 l 1
 117.216 395.065 l 1
 111.878 371.174 l 1
 108.045 346.988 l 1
 105.743 322.614 l 1
 104.971 298.148 l 1
 105.743 273.68 l 1
 108.045 249.306 l 1
 111.878 225.12 l 1
 117.216 201.232 l 1
 124.05 177.716 l 1
 132.34 154.685 l 1
 142.067 132.216 l 1
 153.177 110.398 l 1
 165.644 89.3271 l 1
 179.405 69.0762 l 1
 194.409 49.7344 l 1
 210.601 31.373 l 1
 227.913 14.0596 l 1
 246.273 -2.13477 l 1
 265.621 -17.1338 l 1
 285.866 -30.8994 l 1
 306.945 -43.3623 l 1
 328.757 -54.4727 l 1
 351.226 -64.1982 l 1
 374.258 -72.4902 l 1
 397.772 -79.3242 l 1
 421.66 -84.6602 l 1
 445.845 -88.4932 l 1
 470.219 -90.7988 l 1
 494.688 -91.5723 l 1
 519.153 -90.7988 l 1
 543.528 -88.4932 l 1
 567.713 -84.6602 l 1
 591.604 -79.3242 l 1
 615.113 -72.4902 l 1
 638.152 -64.1982 l 1
 660.621 -54.4727 l 1
 682.433 -43.3623 l 1
 703.511 -30.8994 l 1
 723.757 -17.1338 l 1
 743.104 -2.13477 l 1
 761.464 14.0596 l 1
 778.777 31.373 l 1
 794.969 49.7344 l 1
 809.968 69.0762 l 1
 823.733 89.3271 l 1
 836.2 110.398 l 1
 847.311 132.216 l 1
 857.037 154.685 l 1
 865.327 177.716 l 1
 872.161 201.232 l 1
EndSplineSet
Validated: 524289
EndChar

StartChar: Percent.28
Encoding: 28 57372 28
Width: 1000
VWidth: 0
HStem: -153.922 63.1232<445.845 543.528> 687.095 66.834<445.845 494.688>
VStem: 40.7656 64.9774<249.306 346.988> 494.689 453.929<298.149 434.954>
LayerCount: 2
Fore
SplineSet
494.652 753.929 m 0
 745.354 753.929 948.618 550.663 948.618 299.968 c 0
 948.618 49.3379 745.351 -153.922 494.652 -153.922 c 0
 243.954 -153.922 40.7656 49.3389 40.7656 299.965 c 0
 40.7627 550.663 243.953 753.929 494.652 753.929 c 0
865.327 177.716 m 1
 872.159 201.235 l 1
 877.497 225.123 l 1
 494.689 298.149 l 1
 494.688 687.866 l 1
 470.219 687.095 l 1
 445.845 684.792 l 1
 421.66 680.959 l 1
 397.772 675.622 l 1
 374.265 668.788 l 1
 351.226 660.498 l 1
 328.757 650.771 l 1
 306.945 639.66 l 1
 285.866 627.194 l 1
 265.621 613.433 l 1
 246.273 598.429 l 1
 227.913 582.237 l 1
 210.601 564.925 l 1
 194.409 546.563 l 1
 179.405 527.217 l 1
 165.644 506.971 l 1
 153.177 485.898 l 1
 142.067 464.081 l 1
 132.34 441.613 l 1
 124.05 418.581 l 1
 117.216 395.065 l 1
 111.878 371.174 l 1
 108.045 346.988 l 1
 105.743 322.614 l 1
 104.971 298.148 l 1
 105.743 273.68 l 1
 108.045 249.306 l 1
 111.878 225.12 l 1
 117.216 201.232 l 1
 124.05 177.716 l 1
 132.34 154.685 l 1
 142.067 132.216 l 1
 153.177 110.398 l 1
 165.644 89.3271 l 1
 179.405 69.0762 l 1
 194.409 49.7344 l 1
 210.601 31.373 l 1
 227.913 14.0596 l 1
 246.273 -2.13477 l 1
 265.621 -17.1338 l 1
 285.866 -30.8994 l 1
 306.945 -43.3623 l 1
 328.757 -54.4727 l 1
 351.226 -64.1982 l 1
 374.258 -72.4902 l 1
 397.772 -79.3242 l 1
 421.66 -84.6602 l 1
 445.845 -88.4932 l 1
 470.219 -90.7988 l 1
 494.688 -91.5723 l 1
 519.153 -90.7988 l 1
 543.528 -88.4932 l 1
 567.713 -84.6602 l 1
 591.604 -79.3242 l 1
 615.113 -72.4902 l 1
 638.152 -64.1982 l 1
 660.621 -54.4727 l 1
 682.433 -43.3623 l 1
 703.511 -30.8994 l 1
 723.757 -17.1338 l 1
 743.104 -2.13477 l 1
 761.464 14.0596 l 1
 778.777 31.373 l 1
 794.969 49.7344 l 1
 809.968 69.0762 l 1
 823.733 89.3271 l 1
 836.2 110.398 l 1
 847.311 132.216 l 1
 857.037 154.685 l 1
 865.327 177.716 l 1
EndSplineSet
Validated: 524289
EndChar

StartChar: Percent.29
Encoding: 29 57373 29
Width: 1000
VWidth: 0
HStem: -153.922 63.1232<445.845 543.528> 687.095 66.834<445.845 494.688>
VStem: 40.7656 64.9774<249.306 346.988> 494.689 453.929<298.149 434.954>
LayerCount: 2
Fore
SplineSet
494.652 753.929 m 0
 745.354 753.929 948.618 550.663 948.618 299.968 c 0
 948.618 49.3379 745.351 -153.922 494.652 -153.922 c 0
 243.954 -153.922 40.7656 49.3389 40.7656 299.965 c 0
 40.7627 550.663 243.953 753.929 494.652 753.929 c 0
857.037 154.685 m 1
 865.325 177.719 l 1
 872.159 201.235 l 1
 494.689 298.149 l 1
 494.688 687.866 l 1
 470.219 687.095 l 1
 445.845 684.792 l 1
 421.66 680.959 l 1
 397.772 675.622 l 1
 374.265 668.788 l 1
 351.226 660.498 l 1
 328.757 650.771 l 1
 306.945 639.66 l 1
 285.866 627.194 l 1
 265.621 613.433 l 1
 246.273 598.429 l 1
 227.913 582.237 l 1
 210.601 564.925 l 1
 194.409 546.563 l 1
 179.405 527.217 l 1
 165.644 506.971 l 1
 153.177 485.898 l 1
 142.067 464.081 l 1
 132.34 441.613 l 1
 124.05 418.581 l 1
 117.216 395.065 l 1
 111.878 371.174 l 1
 108.045 346.988 l 1
 105.743 322.614 l 1
 104.971 298.148 l 1
 105.743 273.68 l 1
 108.045 249.306 l 1
 111.878 225.12 l 1
 117.216 201.232 l 1
 124.05 177.716 l 1
 132.34 154.685 l 1
 142.067 132.216 l 1
 153.177 110.398 l 1
 165.644 89.3271 l 1
 179.405 69.0762 l 1
 194.409 49.7344 l 1
 210.601 31.373 l 1
 227.913 14.0596 l 1
 246.273 -2.13477 l 1
 265.621 -17.1338 l 1
 285.866 -30.8994 l 1
 306.945 -43.3623 l 1
 328.757 -54.4727 l 1
 351.226 -64.1982 l 1
 374.258 -72.4902 l 1
 397.772 -79.3242 l 1
 421.66 -84.6602 l 1
 445.845 -88.4932 l 1
 470.219 -90.7988 l 1
 494.688 -91.5723 l 1
 519.153 -90.7988 l 1
 543.528 -88.4932 l 1
 567.713 -84.6602 l 1
 591.604 -79.3242 l 1
 615.113 -72.4902 l 1
 638.152 -64.1982 l 1
 660.621 -54.4727 l 1
 682.433 -43.3623 l 1
 703.511 -30.8994 l 1
 723.757 -17.1338 l 1
 743.104 -2.13477 l 1
 761.464 14.0596 l 1
 778.777 31.373 l 1
 794.969 49.7344 l 1
 809.968 69.0762 l 1
 823.733 89.3271 l 1
 836.2 110.398 l 1
 847.311 132.216 l 1
 857.037 154.685 l 1
EndSplineSet
Validated: 524289
EndChar

StartChar: Percent.30
Encoding: 30 57374 30
Width: 1000
VWidth: 0
HStem: -153.922 63.1232<445.845 543.528> 687.095 66.834<445.845 494.688>
VStem: 40.7656 64.9774<249.306 346.988> 494.689 453.929<298.149 434.954>
LayerCount: 2
Fore
SplineSet
494.652 753.929 m 0
 745.354 753.929 948.618 550.663 948.618 299.968 c 0
 948.618 49.3379 745.351 -153.922 494.652 -153.922 c 0
 243.954 -153.922 40.7656 49.3389 40.7656 299.965 c 0
 40.7627 550.663 243.953 753.929 494.652 753.929 c 0
847.311 132.216 m 1
 857.035 154.688 l 1
 865.325 177.719 l 1
 494.689 298.149 l 1
 494.688 687.866 l 1
 470.219 687.095 l 1
 445.845 684.792 l 1
 421.66 680.959 l 1
 397.772 675.622 l 1
 374.265 668.788 l 1
 351.226 660.498 l 1
 328.757 650.771 l 1
 306.945 639.66 l 1
 285.866 627.194 l 1
 265.621 613.433 l 1
 246.273 598.429 l 1
 227.913 582.237 l 1
 210.601 564.925 l 1
 194.409 546.563 l 1
 179.405 527.217 l 1
 165.644 506.971 l 1
 153.177 485.898 l 1
 142.067 464.081 l 1
 132.34 441.613 l 1
 124.05 418.581 l 1
 117.216 395.065 l 1
 111.878 371.174 l 1
 108.045 346.988 l 1
 105.743 322.614 l 1
 104.971 298.148 l 1
 105.743 273.68 l 1
 108.045 249.306 l 1
 111.878 225.12 l 1
 117.216 201.232 l 1
 124.05 177.716 l 1
 132.34 154.685 l 1
 142.067 132.216 l 1
 153.177 110.398 l 1
 165.644 89.3271 l 1
 179.405 69.0762 l 1
 194.409 49.7344 l 1
 210.601 31.373 l 1
 227.913 14.0596 l 1
 246.273 -2.13477 l 1
 265.621 -17.1338 l 1
 285.866 -30.8994 l 1
 306.945 -43.3623 l 1
 328.757 -54.4727 l 1
 351.226 -64.1982 l 1
 374.258 -72.4902 l 1
 397.772 -79.3242 l 1
 421.66 -84.6602 l 1
 445.845 -88.4932 l 1
 470.219 -90.7988 l 1
 494.688 -91.5723 l 1
 519.153 -90.7988 l 1
 543.528 -88.4932 l 1
 567.713 -84.6602 l 1
 591.604 -79.3242 l 1
 615.113 -72.4902 l 1
 638.152 -64.1982 l 1
 660.621 -54.4727 l 1
 682.433 -43.3623 l 1
 703.511 -30.8994 l 1
 723.757 -17.1338 l 1
 743.104 -2.13477 l 1
 761.464 14.0596 l 1
 778.777 31.373 l 1
 794.969 49.7344 l 1
 809.968 69.0762 l 1
 823.733 89.3271 l 1
 836.2 110.398 l 1
 847.311 132.216 l 1
EndSplineSet
Validated: 524289
EndChar

StartChar: Percent.31
Encoding: 31 57375 31
Width: 1000
VWidth: 0
HStem: -153.921 63.1222<445.845 543.527> 687.095 66.834<445.845 494.688>
VStem: 40.7666 64.9764<249.306 346.988> 494.689 453.929<298.149 434.955>
LayerCount: 2
Fore
SplineSet
494.652 753.929 m 0
 745.354 753.929 948.618 550.663 948.618 299.969 c 0
 948.618 49.3379 745.351 -153.921 494.652 -153.921 c 0
 243.954 -153.921 40.7666 49.3398 40.7666 299.966 c 0
 40.7627 550.663 243.953 753.929 494.652 753.929 c 0
836.2 110.398 m 1
 847.309 132.219 l 1
 857.035 154.688 l 1
 494.689 298.149 l 1
 494.688 687.866 l 1
 470.219 687.095 l 1
 445.845 684.792 l 1
 421.659 680.959 l 1
 397.772 675.622 l 1
 374.265 668.788 l 1
 351.226 660.498 l 1
 328.757 650.771 l 1
 306.945 639.66 l 1
 285.866 627.194 l 1
 265.621 613.433 l 1
 246.273 598.429 l 1
 227.913 582.237 l 1
 210.601 564.925 l 1
 194.409 546.563 l 1
 179.405 527.217 l 1
 165.644 506.971 l 1
 153.177 485.898 l 1
 142.067 464.081 l 1
 132.34 441.613 l 1
 124.05 418.581 l 1
 117.216 395.065 l 1
 111.878 371.174 l 1
 108.045 346.988 l 1
 105.743 322.614 l 1
 104.971 298.148 l 1
 105.743 273.68 l 1
 108.045 249.306 l 1
 111.878 225.12 l 1
 117.216 201.232 l 1
 124.05 177.716 l 1
 132.34 154.685 l 1
 142.067 132.216 l 1
 153.177 110.398 l 1
 165.644 89.3271 l 1
 179.405 69.0752 l 1
 194.409 49.7344 l 1
 210.601 31.373 l 1
 227.913 14.0596 l 1
 246.273 -2.13477 l 1
 265.621 -17.1338 l 1
 285.866 -30.9004 l 1
 306.945 -43.3623 l 1
 328.757 -54.4727 l 1
 351.226 -64.1982 l 1
 374.258 -72.4902 l 1
 397.772 -79.3242 l 1
 421.659 -84.6602 l 1
 445.845 -88.4932 l 1
 470.219 -90.7988 l 1
 494.688 -91.5723 l 1
 519.153 -90.7988 l 1
 543.527 -88.4932 l 1
 567.713 -84.6602 l 1
 591.604 -79.3242 l 1
 615.113 -72.4902 l 1
 638.152 -64.1982 l 1
 660.621 -54.4727 l 1
 682.433 -43.3623 l 1
 703.511 -30.9004 l 1
 723.757 -17.1338 l 1
 743.104 -2.13477 l 1
 761.464 14.0596 l 1
 778.777 31.373 l 1
 794.969 49.7344 l 1
 809.967 69.0752 l 1
 823.733 89.3271 l 1
 836.2 110.398 l 1
EndSplineSet
Validated: 524289
EndChar

StartChar: Percent.32
Encoding: 32 57376 32
Width: 1000
VWidth: 0
HStem: -153.921 63.1222<445.845 543.527> 687.095 66.834<445.845 494.688>
VStem: 40.7666 64.9764<249.306 346.988> 494.689 453.929<298.149 434.955>
LayerCount: 2
Fore
SplineSet
494.652 753.929 m 0
 745.354 753.929 948.618 550.663 948.618 299.969 c 0
 948.618 49.3379 745.351 -153.921 494.652 -153.921 c 0
 243.954 -153.921 40.7666 49.3398 40.7666 299.966 c 0
 40.7627 550.663 243.953 753.929 494.652 753.929 c 0
823.733 89.3271 m 1
 836.198 110.401 l 1
 847.309 132.219 l 1
 494.689 298.149 l 1
 494.688 687.866 l 1
 470.219 687.095 l 1
 445.845 684.792 l 1
 421.659 680.959 l 1
 397.772 675.622 l 1
 374.265 668.788 l 1
 351.226 660.498 l 1
 328.757 650.771 l 1
 306.945 639.66 l 1
 285.866 627.194 l 1
 265.621 613.433 l 1
 246.273 598.429 l 1
 227.913 582.237 l 1
 210.601 564.925 l 1
 194.409 546.563 l 1
 179.405 527.217 l 1
 165.644 506.971 l 1
 153.177 485.898 l 1
 142.067 464.081 l 1
 132.34 441.613 l 1
 124.05 418.581 l 1
 117.216 395.065 l 1
 111.878 371.174 l 1
 108.045 346.988 l 1
 105.743 322.614 l 1
 104.971 298.148 l 1
 105.743 273.68 l 1
 108.045 249.306 l 1
 111.878 225.12 l 1
 117.216 201.232 l 1
 124.05 177.716 l 1
 132.34 154.685 l 1
 142.067 132.216 l 1
 153.177 110.398 l 1
 165.644 89.3271 l 1
 179.405 69.0752 l 1
 194.409 49.7344 l 1
 210.601 31.373 l 1
 227.913 14.0596 l 1
 246.273 -2.13477 l 1
 265.621 -17.1338 l 1
 285.866 -30.9004 l 1
 306.945 -43.3623 l 1
 328.757 -54.4727 l 1
 351.226 -64.1982 l 1
 374.258 -72.4902 l 1
 397.772 -79.3242 l 1
 421.659 -84.6602 l 1
 445.845 -88.4932 l 1
 470.219 -90.7988 l 1
 494.688 -91.5723 l 1
 519.153 -90.7988 l 1
 543.527 -88.4932 l 1
 567.713 -84.6602 l 1
 591.604 -79.3242 l 1
 615.113 -72.4902 l 1
 638.152 -64.1982 l 1
 660.621 -54.4727 l 1
 682.433 -43.3623 l 1
 703.511 -30.9004 l 1
 723.757 -17.1338 l 1
 743.104 -2.13477 l 1
 761.464 14.0596 l 1
 778.777 31.373 l 1
 794.969 49.7344 l 1
 809.967 69.0752 l 1
 823.733 89.3271 l 1
EndSplineSet
Validated: 524289
EndChar

StartChar: Percent.33
Encoding: 33 57377 33
Width: 1000
VWidth: 0
HStem: -153.921 63.1212<445.845 543.527> 687.094 66.835<445.845 494.688>
VStem: 40.7666 64.9764<249.305 346.987> 494.689 453.929<298.148 434.955>
LayerCount: 2
Fore
SplineSet
494.652 753.929 m 0
 745.354 753.929 948.618 550.663 948.618 299.969 c 0
 948.618 49.3379 745.351 -153.921 494.652 -153.921 c 0
 243.954 -153.921 40.7666 49.3398 40.7666 299.966 c 0
 40.7627 550.663 243.953 753.929 494.652 753.929 c 0
809.967 69.0742 m 1
 823.731 89.3291 l 1
 836.198 110.4 l 1
 494.689 298.148 l 1
 494.688 687.865 l 1
 470.219 687.094 l 1
 445.845 684.791 l 1
 421.659 680.958 l 1
 397.772 675.621 l 1
 374.265 668.787 l 1
 351.226 660.497 l 1
 328.757 650.77 l 1
 306.945 639.659 l 1
 285.866 627.193 l 1
 265.621 613.432 l 1
 246.273 598.428 l 1
 227.913 582.236 l 1
 210.601 564.924 l 1
 194.409 546.562 l 1
 179.405 527.216 l 1
 165.644 506.97 l 1
 153.177 485.897 l 1
 142.067 464.08 l 1
 132.34 441.612 l 1
 124.05 418.58 l 1
 117.216 395.064 l 1
 111.878 371.173 l 1
 108.045 346.987 l 1
 105.743 322.613 l 1
 104.971 298.147 l 1
 105.743 273.679 l 1
 108.045 249.305 l 1
 111.878 225.119 l 1
 117.216 201.231 l 1
 124.05 177.715 l 1
 132.34 154.684 l 1
 142.067 132.215 l 1
 153.177 110.397 l 1
 165.644 89.3262 l 1
 179.405 69.0742 l 1
 194.409 49.7334 l 1
 210.601 31.3721 l 1
 227.913 14.0586 l 1
 246.273 -2.13574 l 1
 265.621 -17.1348 l 1
 285.866 -30.9014 l 1
 306.945 -43.3633 l 1
 328.757 -54.4736 l 1
 351.226 -64.1992 l 1
 374.258 -72.4912 l 1
 397.772 -79.3252 l 1
 421.659 -84.6611 l 1
 445.845 -88.4941 l 1
 470.219 -90.7998 l 1
 494.688 -91.5732 l 1
 519.153 -90.7998 l 1
 543.527 -88.4941 l 1
 567.713 -84.6611 l 1
 591.604 -79.3252 l 1
 615.113 -72.4912 l 1
 638.152 -64.1992 l 1
 660.621 -54.4736 l 1
 682.433 -43.3633 l 1
 703.511 -30.9014 l 1
 723.757 -17.1348 l 1
 743.104 -2.13574 l 1
 761.464 14.0586 l 1
 778.777 31.3721 l 1
 794.969 49.7334 l 1
 809.967 69.0742 l 1
EndSplineSet
Validated: 524289
EndChar

StartChar: Percent.34
Encoding: 34 57378 34
Width: 1000
VWidth: 0
HStem: -153.921 63.1212<445.845 543.527> 687.094 66.835<445.845 494.688>
VStem: 40.7666 64.9764<249.305 346.987> 494.689 453.929<298.148 434.955>
LayerCount: 2
Fore
SplineSet
494.652 753.929 m 0
 745.354 753.929 948.618 550.663 948.618 299.969 c 0
 948.618 49.3379 745.351 -153.921 494.652 -153.921 c 0
 243.954 -153.921 40.7666 49.3398 40.7666 299.966 c 0
 40.7627 550.663 243.953 753.929 494.652 753.929 c 0
809.967 69.0742 m 1
 823.731 89.3291 l 1
 494.689 298.148 l 1
 494.688 687.865 l 1
 470.219 687.094 l 1
 445.845 684.791 l 1
 421.659 680.958 l 1
 397.772 675.621 l 1
 374.265 668.787 l 1
 351.226 660.497 l 1
 328.757 650.77 l 1
 306.945 639.659 l 1
 285.866 627.193 l 1
 265.621 613.432 l 1
 246.273 598.428 l 1
 227.913 582.236 l 1
 210.601 564.924 l 1
 194.409 546.562 l 1
 179.405 527.216 l 1
 165.644 506.97 l 1
 153.177 485.897 l 1
 142.067 464.08 l 1
 132.34 441.612 l 1
 124.05 418.58 l 1
 117.216 395.064 l 1
 111.878 371.173 l 1
 108.045 346.987 l 1
 105.743 322.613 l 1
 104.971 298.147 l 1
 105.743 273.679 l 1
 108.045 249.305 l 1
 111.878 225.119 l 1
 117.216 201.231 l 1
 124.05 177.715 l 1
 132.34 154.684 l 1
 142.067 132.215 l 1
 153.177 110.397 l 1
 165.644 89.3262 l 1
 179.405 69.0742 l 1
 194.409 49.7334 l 1
 210.601 31.3721 l 1
 227.913 14.0586 l 1
 246.273 -2.13574 l 1
 265.621 -17.1348 l 1
 285.866 -30.9014 l 1
 306.945 -43.3633 l 1
 328.757 -54.4736 l 1
 351.226 -64.1992 l 1
 374.258 -72.4912 l 1
 397.772 -79.3252 l 1
 421.659 -84.6611 l 1
 445.845 -88.4941 l 1
 470.219 -90.7998 l 1
 494.688 -91.5732 l 1
 519.153 -90.7998 l 1
 543.527 -88.4941 l 1
 567.713 -84.6611 l 1
 591.604 -79.3252 l 1
 615.113 -72.4912 l 1
 638.152 -64.1992 l 1
 660.621 -54.4736 l 1
 682.433 -43.3633 l 1
 703.511 -30.9014 l 1
 723.757 -17.1348 l 1
 743.104 -2.13574 l 1
 761.464 14.0586 l 1
 778.777 31.3721 l 1
 794.969 49.7334 l 1
 809.967 69.0742 l 1
EndSplineSet
Validated: 524289
EndChar

StartChar: Percent.35
Encoding: 35 57379 35
Width: 1000
VWidth: 0
HStem: -153.921 63.1222<445.845 543.527> 687.095 66.834<445.845 494.688>
VStem: 40.7666 64.9764<249.306 346.988> 494.689 453.929<298.149 434.955>
LayerCount: 2
Fore
SplineSet
494.652 753.929 m 0
 745.354 753.929 948.618 550.663 948.618 299.969 c 0
 948.618 49.3379 745.351 -153.921 494.652 -153.921 c 0
 243.954 -153.921 40.7666 49.3398 40.7666 299.966 c 0
 40.7627 550.663 243.953 753.929 494.652 753.929 c 0
794.969 49.7344 m 1
 809.966 69.0781 l 1
 494.689 298.149 l 1
 494.688 687.866 l 1
 470.219 687.095 l 1
 445.845 684.792 l 1
 421.659 680.959 l 1
 397.772 675.622 l 1
 374.265 668.788 l 1
 351.226 660.498 l 1
 328.757 650.771 l 1
 306.945 639.66 l 1
 285.866 627.194 l 1
 265.621 613.433 l 1
 246.273 598.429 l 1
 227.913 582.237 l 1
 210.601 564.925 l 1
 194.409 546.563 l 1
 179.405 527.217 l 1
 165.644 506.971 l 1
 153.177 485.898 l 1
 142.067 464.081 l 1
 132.34 441.613 l 1
 124.05 418.581 l 1
 117.216 395.065 l 1
 111.878 371.174 l 1
 108.045 346.988 l 1
 105.743 322.614 l 1
 104.971 298.148 l 1
 105.743 273.68 l 1
 108.045 249.306 l 1
 111.878 225.12 l 1
 117.216 201.232 l 1
 124.05 177.716 l 1
 132.34 154.685 l 1
 142.067 132.216 l 1
 153.177 110.398 l 1
 165.644 89.3271 l 1
 179.405 69.0752 l 1
 194.409 49.7344 l 1
 210.601 31.373 l 1
 227.913 14.0596 l 1
 246.273 -2.13477 l 1
 265.621 -17.1338 l 1
 285.866 -30.9004 l 1
 306.945 -43.3623 l 1
 328.757 -54.4727 l 1
 351.226 -64.1982 l 1
 374.258 -72.4902 l 1
 397.772 -79.3242 l 1
 421.659 -84.6602 l 1
 445.845 -88.4932 l 1
 470.219 -90.7988 l 1
 494.688 -91.5723 l 1
 519.153 -90.7988 l 1
 543.527 -88.4932 l 1
 567.713 -84.6602 l 1
 591.604 -79.3242 l 1
 615.113 -72.4902 l 1
 638.152 -64.1982 l 1
 660.621 -54.4727 l 1
 682.433 -43.3623 l 1
 703.511 -30.9004 l 1
 723.757 -17.1338 l 1
 743.104 -2.13477 l 1
 761.464 14.0596 l 1
 778.777 31.373 l 1
 794.969 49.7344 l 1
EndSplineSet
Validated: 524289
EndChar

StartChar: Percent.36
Encoding: 36 57380 36
Width: 1000
VWidth: 0
HStem: -153.921 63.1222<445.845 543.527> 687.095 66.834<445.845 494.688>
VStem: 40.7666 64.9764<249.306 346.988> 494.689 453.929<298.149 434.955>
LayerCount: 2
Fore
SplineSet
494.652 753.929 m 0
 745.354 753.929 948.618 550.663 948.618 299.969 c 0
 948.618 49.3379 745.351 -153.921 494.652 -153.921 c 0
 243.954 -153.921 40.7666 49.3398 40.7666 299.966 c 0
 40.7627 550.663 243.953 753.929 494.652 753.929 c 0
778.777 31.373 m 1
 794.967 49.7373 l 1
 494.689 298.149 l 1
 494.688 687.866 l 1
 470.219 687.095 l 1
 445.845 684.792 l 1
 421.659 680.959 l 1
 397.772 675.622 l 1
 374.265 668.788 l 1
 351.226 660.498 l 1
 328.757 650.771 l 1
 306.945 639.66 l 1
 285.866 627.194 l 1
 265.621 613.433 l 1
 246.273 598.429 l 1
 227.913 582.237 l 1
 210.601 564.925 l 1
 194.409 546.563 l 1
 179.405 527.217 l 1
 165.644 506.971 l 1
 153.177 485.898 l 1
 142.067 464.081 l 1
 132.34 441.613 l 1
 124.05 418.581 l 1
 117.216 395.065 l 1
 111.878 371.174 l 1
 108.045 346.988 l 1
 105.743 322.614 l 1
 104.971 298.148 l 1
 105.743 273.68 l 1
 108.045 249.306 l 1
 111.878 225.12 l 1
 117.216 201.232 l 1
 124.05 177.716 l 1
 132.34 154.685 l 1
 142.067 132.216 l 1
 153.177 110.398 l 1
 165.644 89.3271 l 1
 179.405 69.0752 l 1
 194.409 49.7344 l 1
 210.601 31.373 l 1
 227.913 14.0596 l 1
 246.273 -2.13477 l 1
 265.621 -17.1338 l 1
 285.866 -30.9004 l 1
 306.945 -43.3623 l 1
 328.757 -54.4727 l 1
 351.226 -64.1982 l 1
 374.258 -72.4902 l 1
 397.772 -79.3242 l 1
 421.659 -84.6602 l 1
 445.845 -88.4932 l 1
 470.219 -90.7988 l 1
 494.688 -91.5723 l 1
 519.153 -90.7988 l 1
 543.527 -88.4932 l 1
 567.713 -84.6602 l 1
 591.604 -79.3242 l 1
 615.113 -72.4902 l 1
 638.152 -64.1982 l 1
 660.621 -54.4727 l 1
 682.433 -43.3623 l 1
 703.511 -30.9004 l 1
 723.757 -17.1338 l 1
 743.104 -2.13477 l 1
 761.464 14.0596 l 1
 778.777 31.373 l 1
EndSplineSet
Validated: 524289
EndChar

StartChar: Percent.37
Encoding: 37 57381 37
Width: 1000
VWidth: 0
HStem: -153.921 63.1231<445.846 543.528> 687.096 66.833<445.846 494.689>
VStem: 40.7666 64.9774<249.307 346.989> 494.69 453.928<298.15 434.955>
LayerCount: 2
Fore
SplineSet
494.652 753.929 m 0
 745.354 753.929 948.618 550.663 948.618 299.969 c 0
 948.618 49.3379 745.351 -153.921 494.652 -153.921 c 0
 243.954 -153.921 40.7666 49.3398 40.7666 299.966 c 0
 40.7627 550.663 243.953 753.929 494.652 753.929 c 0
761.465 14.0605 m 1
 778.776 31.377 l 1
 494.69 298.15 l 1
 494.689 687.867 l 1
 470.22 687.096 l 1
 445.846 684.793 l 1
 421.66 680.96 l 1
 397.773 675.623 l 1
 374.266 668.789 l 1
 351.227 660.499 l 1
 328.758 650.771 l 1
 306.946 639.661 l 1
 285.867 627.195 l 1
 265.622 613.434 l 1
 246.274 598.43 l 1
 227.914 582.238 l 1
 210.602 564.926 l 1
 194.41 546.564 l 1
 179.406 527.218 l 1
 165.645 506.972 l 1
 153.178 485.899 l 1
 142.068 464.082 l 1
 132.341 441.614 l 1
 124.051 418.582 l 1
 117.217 395.066 l 1
 111.879 371.175 l 1
 108.046 346.989 l 1
 105.744 322.615 l 1
 104.972 298.149 l 1
 105.744 273.681 l 1
 108.046 249.307 l 1
 111.879 225.121 l 1
 117.217 201.233 l 1
 124.051 177.717 l 1
 132.341 154.686 l 1
 142.068 132.217 l 1
 153.178 110.399 l 1
 165.645 89.3281 l 1
 179.406 69.0762 l 1
 194.41 49.7354 l 1
 210.602 31.374 l 1
 227.914 14.0605 l 1
 246.274 -2.13379 l 1
 265.622 -17.1328 l 1
 285.867 -30.8994 l 1
 306.946 -43.3613 l 1
 328.758 -54.4717 l 1
 351.227 -64.1973 l 1
 374.259 -72.4893 l 1
 397.773 -79.3232 l 1
 421.66 -84.6592 l 1
 445.846 -88.4922 l 1
 470.22 -90.7979 l 1
 494.689 -91.5713 l 1
 519.154 -90.7979 l 1
 543.528 -88.4922 l 1
 567.714 -84.6592 l 1
 591.605 -79.3232 l 1
 615.114 -72.4893 l 1
 638.153 -64.1973 l 1
 660.622 -54.4717 l 1
 682.434 -43.3613 l 1
 703.512 -30.8994 l 1
 723.758 -17.1328 l 1
 743.104 -2.13379 l 1
 761.465 14.0605 l 1
EndSplineSet
Validated: 524289
EndChar

StartChar: Percent.38
Encoding: 38 57382 38
Width: 1000
VWidth: 0
HStem: -153.92 63.1221<445.846 543.527> 687.096 66.833<445.846 494.689>
VStem: 40.7666 64.9774<249.307 346.989> 494.69 453.928<298.15 434.956>
LayerCount: 2
Fore
SplineSet
494.652 753.929 m 0
 745.354 753.929 948.618 550.663 948.618 299.97 c 0
 948.618 49.3389 745.351 -153.92 494.652 -153.92 c 0
 243.954 -153.92 40.7666 49.3389 40.7666 299.966 c 0
 40.7627 550.663 243.953 753.929 494.652 753.929 c 0
743.104 -2.13379 m 1
 761.465 14.0605 l 1
 494.69 298.15 l 1
 494.689 687.867 l 1
 470.22 687.096 l 1
 445.846 684.793 l 1
 421.659 680.96 l 1
 397.773 675.623 l 1
 374.266 668.789 l 1
 351.227 660.499 l 1
 328.758 650.771 l 1
 306.946 639.661 l 1
 285.867 627.195 l 1
 265.622 613.434 l 1
 246.274 598.43 l 1
 227.914 582.238 l 1
 210.602 564.926 l 1
 194.41 546.564 l 1
 179.406 527.218 l 1
 165.645 506.972 l 1
 153.178 485.899 l 1
 142.068 464.082 l 1
 132.341 441.614 l 1
 124.051 418.582 l 1
 117.217 395.066 l 1
 111.879 371.175 l 1
 108.046 346.989 l 1
 105.744 322.615 l 1
 104.972 298.149 l 1
 105.744 273.681 l 1
 108.046 249.307 l 1
 111.879 225.121 l 1
 117.217 201.233 l 1
 124.051 177.717 l 1
 132.341 154.686 l 1
 142.068 132.217 l 1
 153.178 110.399 l 1
 165.645 89.3281 l 1
 179.406 69.0752 l 1
 194.41 49.7354 l 1
 210.602 31.374 l 1
 227.914 14.0605 l 1
 246.274 -2.13379 l 1
 265.622 -17.1328 l 1
 285.867 -30.9004 l 1
 306.946 -43.3613 l 1
 328.758 -54.4717 l 1
 351.227 -64.1973 l 1
 374.259 -72.4893 l 1
 397.773 -79.3232 l 1
 421.659 -84.6592 l 1
 445.846 -88.4922 l 1
 470.22 -90.7979 l 1
 494.689 -91.5713 l 1
 519.154 -90.7979 l 1
 543.527 -88.4922 l 1
 567.714 -84.6592 l 1
 591.605 -79.3232 l 1
 615.114 -72.4893 l 1
 638.153 -64.1973 l 1
 660.622 -54.4717 l 1
 682.434 -43.3613 l 1
 703.512 -30.9004 l 1
 723.758 -17.1328 l 1
 743.104 -2.13379 l 1
EndSplineSet
Validated: 524289
EndChar

StartChar: Percent.39
Encoding: 39 57383 39
Width: 1000
VWidth: 0
HStem: -153.92 63.1221<445.846 543.527> 687.096 66.833<445.846 494.689>
VStem: 40.7666 64.9774<249.307 346.989> 494.69 453.928<298.15 434.956>
LayerCount: 2
Fore
SplineSet
494.652 753.929 m 0
 745.354 753.929 948.618 550.663 948.618 299.97 c 0
 948.618 49.3389 745.351 -153.92 494.652 -153.92 c 0
 243.954 -153.92 40.7666 49.3389 40.7666 299.966 c 0
 40.7627 550.663 243.953 753.929 494.652 753.929 c 0
494.69 298.15 m 5
 494.689 687.867 l 1
 470.22 687.096 l 1
 445.846 684.793 l 1
 421.659 680.96 l 1
 397.773 675.623 l 1
 374.266 668.789 l 1
 351.227 660.499 l 1
 328.758 650.771 l 1
 306.946 639.661 l 1
 285.867 627.195 l 1
 265.622 613.434 l 1
 246.274 598.43 l 1
 227.914 582.238 l 1
 210.602 564.926 l 1
 194.41 546.564 l 1
 179.406 527.218 l 1
 165.645 506.972 l 1
 153.178 485.899 l 1
 142.068 464.082 l 1
 132.341 441.614 l 1
 124.051 418.582 l 1
 117.217 395.066 l 1
 111.879 371.175 l 1
 108.046 346.989 l 1
 105.744 322.615 l 1
 104.972 298.149 l 1
 105.744 273.681 l 1
 108.046 249.307 l 1
 111.879 225.121 l 1
 117.217 201.233 l 1
 124.051 177.717 l 1
 132.341 154.686 l 1
 142.068 132.217 l 1
 153.178 110.399 l 1
 165.645 89.3281 l 1
 179.406 69.0752 l 1
 194.41 49.7354 l 1
 210.602 31.374 l 1
 227.914 14.0605 l 1
 246.274 -2.13379 l 1
 265.622 -17.1328 l 1
 285.867 -30.9004 l 1
 306.946 -43.3613 l 1
 328.758 -54.4717 l 1
 351.227 -64.1973 l 1
 374.259 -72.4893 l 1
 397.773 -79.3232 l 1
 421.659 -84.6592 l 1
 445.846 -88.4922 l 1
 470.22 -90.7979 l 1
 494.689 -91.5713 l 1
 519.154 -90.7979 l 1
 543.527 -88.4922 l 1
 567.714 -84.6592 l 1
 591.605 -79.3232 l 1
 615.114 -72.4893 l 1
 638.153 -64.1973 l 1
 660.622 -54.4717 l 1
 682.434 -43.3613 l 1
 703.512 -30.9004 l 1
 723.758 -17.1328 l 1
 743.104 -2.13379 l 5
 494.69 298.15 l 5
EndSplineSet
Validated: 524289
EndChar

StartChar: Percent.40
Encoding: 40 57384 40
Width: 1000
VWidth: 0
HStem: -153.92 63.1212<445.846 543.527> 687.095 66.834<445.846 494.689>
VStem: 40.7666 64.9774<249.306 346.988> 494.69 453.928<298.149 434.956>
LayerCount: 2
Fore
SplineSet
494.652 753.929 m 0
 745.354 753.929 948.618 550.663 948.618 299.97 c 0
 948.618 49.3389 745.351 -153.92 494.652 -153.92 c 0
 243.954 -153.92 40.7666 49.3389 40.7666 299.966 c 0
 40.7627 550.663 243.953 753.929 494.652 753.929 c 0
703.512 -30.9014 m 1
 723.757 -17.1309 l 1
 494.69 298.149 l 1
 494.689 687.866 l 1
 470.22 687.095 l 1
 445.846 684.792 l 1
 421.659 680.959 l 1
 397.773 675.622 l 1
 374.266 668.788 l 1
 351.227 660.498 l 1
 328.758 650.771 l 1
 306.946 639.66 l 1
 285.867 627.194 l 1
 265.622 613.433 l 1
 246.274 598.429 l 1
 227.914 582.237 l 1
 210.602 564.925 l 1
 194.41 546.563 l 1
 179.406 527.217 l 1
 165.645 506.971 l 1
 153.178 485.898 l 1
 142.068 464.081 l 1
 132.341 441.613 l 1
 124.051 418.581 l 1
 117.217 395.065 l 1
 111.879 371.174 l 1
 108.046 346.988 l 1
 105.744 322.614 l 1
 104.972 298.148 l 1
 105.744 273.68 l 1
 108.046 249.306 l 1
 111.879 225.12 l 1
 117.217 201.232 l 1
 124.051 177.716 l 1
 132.341 154.685 l 1
 142.068 132.216 l 1
 153.178 110.398 l 1
 165.645 89.3271 l 1
 179.406 69.0742 l 1
 194.41 49.7344 l 1
 210.602 31.373 l 1
 227.914 14.0596 l 1
 246.274 -2.13477 l 1
 265.622 -17.1338 l 1
 285.867 -30.9014 l 1
 306.946 -43.3623 l 1
 328.758 -54.4727 l 1
 351.227 -64.1982 l 1
 374.259 -72.4902 l 1
 397.773 -79.3242 l 1
 421.659 -84.6602 l 1
 445.846 -88.4932 l 1
 470.22 -90.7988 l 1
 494.689 -91.5723 l 1
 519.154 -90.7988 l 1
 543.527 -88.4932 l 1
 567.714 -84.6602 l 1
 591.605 -79.3242 l 1
 615.114 -72.4902 l 1
 638.153 -64.1982 l 1
 660.622 -54.4727 l 1
 682.434 -43.3623 l 1
 703.512 -30.9014 l 1
EndSplineSet
Validated: 524289
EndChar

StartChar: Percent.41
Encoding: 41 57385 41
Width: 1000
VWidth: 0
HStem: -153.919 63.1211<445.846 543.527> 687.096 66.833<445.846 494.689>
VStem: 40.7666 64.9774<249.307 346.989> 494.69 453.928<298.15 434.956>
LayerCount: 2
Fore
SplineSet
494.652 753.929 m 0
 745.354 753.929 948.618 550.663 948.618 299.971 c 0
 948.618 49.3398 745.351 -153.919 494.652 -153.919 c 0
 243.954 -153.919 40.7666 49.3389 40.7666 299.966 c 0
 40.7627 550.663 243.953 753.929 494.652 753.929 c 0
682.434 -43.3613 m 1
 703.511 -30.8975 l 1
 494.69 298.15 l 1
 494.689 687.867 l 1
 470.22 687.096 l 1
 445.846 684.793 l 1
 421.659 680.96 l 1
 397.773 675.623 l 1
 374.266 668.789 l 1
 351.227 660.499 l 1
 328.758 650.771 l 1
 306.946 639.661 l 1
 285.867 627.195 l 1
 265.622 613.434 l 1
 246.274 598.43 l 1
 227.914 582.238 l 1
 210.602 564.926 l 1
 194.41 546.564 l 1
 179.406 527.218 l 1
 165.645 506.972 l 1
 153.178 485.899 l 1
 142.068 464.082 l 1
 132.341 441.614 l 1
 124.051 418.582 l 1
 117.217 395.066 l 1
 111.879 371.175 l 1
 108.046 346.989 l 1
 105.744 322.615 l 1
 104.972 298.149 l 1
 105.744 273.681 l 1
 108.046 249.307 l 1
 111.879 225.121 l 1
 117.217 201.233 l 1
 124.051 177.717 l 1
 132.341 154.686 l 1
 142.068 132.217 l 1
 153.178 110.399 l 1
 165.645 89.3281 l 1
 179.406 69.0742 l 1
 194.41 49.7354 l 1
 210.602 31.374 l 1
 227.914 14.0605 l 1
 246.274 -2.13379 l 1
 265.622 -17.1328 l 1
 285.867 -30.9014 l 1
 306.946 -43.3613 l 1
 328.758 -54.4717 l 1
 351.227 -64.1973 l 1
 374.259 -72.4893 l 1
 397.773 -79.3232 l 1
 421.659 -84.6592 l 1
 445.846 -88.4922 l 1
 470.22 -90.7979 l 1
 494.689 -91.5713 l 1
 519.154 -90.7979 l 1
 543.527 -88.4922 l 1
 567.714 -84.6592 l 1
 591.605 -79.3232 l 1
 615.114 -72.4893 l 1
 638.153 -64.1973 l 1
 660.622 -54.4717 l 1
 682.434 -43.3613 l 1
EndSplineSet
Validated: 524289
EndChar

StartChar: Percent.42
Encoding: 42 57386 42
Width: 1000
VWidth: 0
HStem: -153.919 63.1211<445.846 543.527> 687.096 66.833<445.846 494.689>
VStem: 40.7666 64.9774<249.307 346.989> 494.69 453.928<298.15 434.956>
LayerCount: 2
Fore
SplineSet
494.652 753.929 m 0
 745.354 753.929 948.618 550.663 948.618 299.971 c 0
 948.618 49.3398 745.351 -153.919 494.652 -153.919 c 0
 243.954 -153.919 40.7666 49.3389 40.7666 299.966 c 0
 40.7627 550.663 243.953 753.929 494.652 753.929 c 0
660.622 -54.4717 m 1
 682.433 -43.3574 l 1
 494.69 298.15 l 1
 494.689 687.867 l 1
 470.22 687.096 l 1
 445.846 684.793 l 1
 421.659 680.96 l 1
 397.773 675.623 l 1
 374.266 668.789 l 1
 351.227 660.499 l 1
 328.758 650.771 l 1
 306.946 639.661 l 1
 285.867 627.195 l 1
 265.622 613.434 l 1
 246.274 598.43 l 1
 227.914 582.238 l 1
 210.602 564.926 l 1
 194.41 546.564 l 1
 179.406 527.218 l 1
 165.645 506.972 l 1
 153.178 485.899 l 1
 142.068 464.082 l 1
 132.341 441.614 l 1
 124.051 418.582 l 1
 117.217 395.066 l 1
 111.879 371.175 l 1
 108.046 346.989 l 1
 105.744 322.615 l 1
 104.972 298.149 l 1
 105.744 273.681 l 1
 108.046 249.307 l 1
 111.879 225.121 l 1
 117.217 201.233 l 1
 124.051 177.717 l 1
 132.341 154.686 l 1
 142.068 132.217 l 1
 153.178 110.399 l 1
 165.645 89.3281 l 1
 179.406 69.0742 l 1
 194.41 49.7354 l 1
 210.602 31.374 l 1
 227.914 14.0605 l 1
 246.274 -2.13379 l 1
 265.622 -17.1328 l 1
 285.867 -30.9014 l 1
 306.946 -43.3613 l 1
 328.758 -54.4717 l 1
 351.227 -64.1973 l 1
 374.259 -72.4893 l 1
 397.773 -79.3232 l 1
 421.659 -84.6592 l 1
 445.846 -88.4922 l 1
 470.22 -90.7979 l 1
 494.689 -91.5713 l 1
 519.154 -90.7979 l 1
 543.527 -88.4922 l 1
 567.714 -84.6592 l 1
 591.605 -79.3232 l 1
 615.114 -72.4893 l 1
 638.153 -64.1973 l 1
 660.622 -54.4717 l 1
EndSplineSet
Validated: 524289
EndChar

StartChar: Percent.43
Encoding: 43 57387 43
Width: 1000
VWidth: 0
HStem: -153.919 63.1211<445.846 543.527> 687.096 66.833<445.846 494.689>
VStem: 40.7666 64.9774<249.307 346.989> 494.69 453.928<298.15 434.956>
LayerCount: 2
Fore
SplineSet
494.652 753.929 m 0
 745.354 753.929 948.618 550.663 948.618 299.971 c 0
 948.618 49.3398 745.351 -153.919 494.652 -153.919 c 0
 243.954 -153.919 40.7666 49.3389 40.7666 299.966 c 0
 40.7627 550.663 243.953 753.929 494.652 753.929 c 0
638.153 -64.1973 m 1
 660.621 -54.4678 l 1
 494.69 298.15 l 1
 494.689 687.867 l 1
 470.22 687.096 l 1
 445.846 684.793 l 1
 421.659 680.96 l 1
 397.773 675.623 l 1
 374.266 668.789 l 1
 351.227 660.499 l 1
 328.758 650.771 l 1
 306.946 639.661 l 1
 285.867 627.195 l 1
 265.622 613.434 l 1
 246.274 598.43 l 1
 227.914 582.238 l 1
 210.602 564.926 l 1
 194.41 546.564 l 1
 179.406 527.218 l 1
 165.645 506.972 l 1
 153.178 485.899 l 1
 142.068 464.082 l 1
 132.341 441.614 l 1
 124.051 418.582 l 1
 117.217 395.066 l 1
 111.879 371.175 l 1
 108.046 346.989 l 1
 105.744 322.615 l 1
 104.972 298.149 l 1
 105.744 273.681 l 1
 108.046 249.307 l 1
 111.879 225.121 l 1
 117.217 201.233 l 1
 124.051 177.717 l 1
 132.341 154.686 l 1
 142.068 132.217 l 1
 153.178 110.399 l 1
 165.645 89.3281 l 1
 179.406 69.0742 l 1
 194.41 49.7354 l 1
 210.602 31.374 l 1
 227.914 14.0605 l 1
 246.274 -2.13379 l 1
 265.622 -17.1328 l 1
 285.867 -30.9014 l 1
 306.946 -43.3613 l 1
 328.758 -54.4717 l 1
 351.227 -64.1973 l 1
 374.259 -72.4893 l 1
 397.773 -79.3232 l 1
 421.659 -84.6592 l 1
 445.846 -88.4922 l 1
 470.22 -90.7979 l 1
 494.689 -91.5713 l 1
 519.154 -90.7979 l 1
 543.527 -88.4922 l 1
 567.714 -84.6592 l 1
 591.605 -79.3232 l 1
 615.114 -72.4893 l 1
 638.153 -64.1973 l 1
EndSplineSet
Validated: 524289
EndChar

StartChar: Percent.44
Encoding: 44 57388 44
Width: 1000
VWidth: 0
HStem: -153.919 63.1211<445.846 543.527> 687.096 66.833<445.846 494.689>
VStem: 40.7666 64.9774<249.307 346.989> 494.69 453.928<298.15 434.956>
LayerCount: 2
Fore
SplineSet
494.652 753.929 m 0
 745.354 753.929 948.618 550.663 948.618 299.971 c 0
 948.618 49.3398 745.351 -153.919 494.652 -153.919 c 0
 243.954 -153.919 40.7666 49.3389 40.7666 299.966 c 0
 40.7627 550.663 243.953 753.929 494.652 753.929 c 0
615.114 -72.4893 m 1
 638.152 -64.1934 l 1
 494.69 298.15 l 1
 494.689 687.867 l 1
 470.22 687.096 l 1
 445.846 684.793 l 1
 421.659 680.96 l 1
 397.773 675.623 l 1
 374.266 668.789 l 1
 351.227 660.499 l 1
 328.758 650.771 l 1
 306.946 639.661 l 1
 285.867 627.195 l 1
 265.622 613.434 l 1
 246.274 598.43 l 1
 227.914 582.238 l 1
 210.602 564.926 l 1
 194.41 546.564 l 1
 179.406 527.218 l 1
 165.645 506.972 l 1
 153.178 485.899 l 1
 142.068 464.082 l 1
 132.341 441.614 l 1
 124.051 418.582 l 1
 117.217 395.066 l 1
 111.879 371.175 l 1
 108.046 346.989 l 1
 105.744 322.615 l 1
 104.972 298.149 l 1
 105.744 273.681 l 1
 108.046 249.307 l 1
 111.879 225.121 l 1
 117.217 201.233 l 1
 124.051 177.717 l 1
 132.341 154.686 l 1
 142.068 132.217 l 1
 153.178 110.399 l 1
 165.645 89.3281 l 1
 179.406 69.0742 l 1
 194.41 49.7354 l 1
 210.602 31.374 l 1
 227.914 14.0605 l 1
 246.274 -2.13379 l 1
 265.622 -17.1328 l 1
 285.867 -30.9014 l 1
 306.946 -43.3613 l 1
 328.758 -54.4717 l 1
 351.227 -64.1973 l 1
 374.259 -72.4893 l 1
 397.773 -79.3232 l 1
 421.659 -84.6592 l 1
 445.846 -88.4922 l 1
 470.22 -90.7979 l 1
 494.689 -91.5713 l 1
 519.154 -90.7979 l 1
 543.527 -88.4922 l 1
 567.714 -84.6592 l 1
 591.605 -79.3232 l 1
 615.114 -72.4893 l 1
EndSplineSet
Validated: 524289
EndChar

StartChar: Percent.45
Encoding: 45 57389 45
Width: 1000
VWidth: 0
HStem: -153.919 63.1211<445.846 543.527> 687.096 66.833<445.846 494.689>
VStem: 40.7666 64.9774<249.307 346.989> 494.69 453.928<276.609 434.956>
LayerCount: 2
Fore
SplineSet
494.652 753.929 m 0
 745.354 753.929 948.618 550.663 948.618 299.971 c 0
 948.618 49.3398 745.351 -153.919 494.652 -153.919 c 0
 243.954 -153.919 40.7666 49.3389 40.7666 299.966 c 0
 40.7627 550.663 243.953 753.929 494.652 753.929 c 0
591.605 -79.3232 m 1
 615.113 -72.4854 l 1
 494.69 298.15 l 1
 494.689 687.867 l 1
 470.22 687.096 l 1
 445.846 684.793 l 1
 421.659 680.96 l 1
 397.773 675.623 l 1
 374.266 668.789 l 1
 351.227 660.499 l 1
 328.758 650.771 l 1
 306.946 639.661 l 1
 285.867 627.195 l 1
 265.622 613.434 l 1
 246.274 598.43 l 1
 227.914 582.238 l 1
 210.602 564.926 l 1
 194.41 546.564 l 1
 179.406 527.218 l 1
 165.645 506.972 l 1
 153.178 485.899 l 1
 142.068 464.082 l 1
 132.341 441.614 l 1
 124.051 418.582 l 1
 117.217 395.066 l 1
 111.879 371.175 l 1
 108.046 346.989 l 1
 105.744 322.615 l 1
 104.972 298.149 l 1
 105.744 273.681 l 1
 108.046 249.307 l 1
 111.879 225.121 l 1
 117.217 201.233 l 1
 124.051 177.717 l 1
 132.341 154.686 l 1
 142.068 132.217 l 1
 153.178 110.399 l 1
 165.645 89.3281 l 1
 179.406 69.0742 l 1
 194.41 49.7354 l 1
 210.602 31.374 l 1
 227.914 14.0605 l 1
 246.274 -2.13379 l 1
 265.622 -17.1328 l 1
 285.867 -30.9014 l 1
 306.946 -43.3613 l 1
 328.758 -54.4717 l 1
 351.227 -64.1973 l 1
 374.259 -72.4893 l 1
 397.773 -79.3232 l 1
 421.659 -84.6592 l 1
 445.846 -88.4922 l 1
 470.22 -90.7979 l 1
 494.689 -91.5713 l 1
 519.154 -90.7979 l 1
 543.527 -88.4922 l 1
 567.714 -84.6592 l 1
 591.605 -79.3232 l 1
EndSplineSet
Validated: 524289
EndChar

StartChar: Percent.46
Encoding: 46 57390 46
Width: 1000
VWidth: 0
HStem: -153.919 63.1211<445.846 543.527> 687.096 66.833<445.846 494.689>
VStem: 40.7666 64.9774<249.307 346.989> 494.69 453.928<270.89 434.956>
LayerCount: 2
Fore
SplineSet
494.652 753.929 m 0
 745.354 753.929 948.618 550.663 948.618 299.971 c 0
 948.618 49.3398 745.351 -153.919 494.652 -153.919 c 0
 243.954 -153.919 40.7666 49.3389 40.7666 299.966 c 0
 40.7627 550.663 243.953 753.929 494.652 753.929 c 0
567.714 -84.6592 m 1
 591.604 -79.3193 l 1
 494.69 298.15 l 1
 494.689 687.867 l 1
 470.22 687.096 l 1
 445.846 684.793 l 1
 421.659 680.96 l 1
 397.773 675.623 l 1
 374.266 668.789 l 1
 351.227 660.499 l 1
 328.758 650.771 l 1
 306.946 639.661 l 1
 285.867 627.195 l 1
 265.622 613.434 l 1
 246.274 598.43 l 1
 227.914 582.238 l 1
 210.602 564.926 l 1
 194.41 546.564 l 1
 179.406 527.218 l 1
 165.645 506.972 l 1
 153.178 485.899 l 1
 142.068 464.082 l 1
 132.341 441.614 l 1
 124.051 418.582 l 1
 117.217 395.066 l 1
 111.879 371.175 l 1
 108.046 346.989 l 1
 105.744 322.615 l 1
 104.972 298.149 l 1
 105.744 273.681 l 1
 108.046 249.307 l 1
 111.879 225.121 l 1
 117.217 201.233 l 1
 124.051 177.717 l 1
 132.341 154.686 l 1
 142.068 132.217 l 1
 153.178 110.399 l 1
 165.645 89.3281 l 1
 179.406 69.0742 l 1
 194.41 49.7354 l 1
 210.602 31.374 l 1
 227.914 14.0605 l 1
 246.274 -2.13379 l 1
 265.622 -17.1328 l 1
 285.867 -30.9014 l 1
 306.946 -43.3613 l 1
 328.758 -54.4717 l 1
 351.227 -64.1973 l 1
 374.259 -72.4893 l 1
 397.773 -79.3232 l 1
 421.659 -84.6592 l 1
 445.846 -88.4922 l 1
 470.22 -90.7979 l 1
 494.689 -91.5713 l 1
 519.154 -90.7979 l 1
 543.527 -88.4922 l 1
 567.714 -84.6592 l 1
EndSplineSet
Validated: 524289
EndChar

StartChar: Percent.47
Encoding: 47 57391 47
Width: 1000
VWidth: 0
HStem: -153.919 63.1211<445.847 543.528> 687.096 66.833<445.847 494.69>
VStem: 40.7666 64.9784<249.307 346.989> 494.691 453.927<261.459 434.956>
LayerCount: 2
Fore
SplineSet
494.652 753.929 m 0
 745.354 753.929 948.618 550.663 948.618 299.971 c 0
 948.618 49.3398 745.351 -153.919 494.652 -153.919 c 0
 243.954 -153.919 40.7666 49.3389 40.7666 299.966 c 0
 40.7627 550.663 243.953 753.929 494.652 753.929 c 0
543.528 -88.4922 m 1
 567.714 -84.6553 l 1
 494.691 298.15 l 1
 494.69 687.867 l 1
 470.221 687.096 l 1
 445.847 684.793 l 1
 421.66 680.96 l 1
 397.774 675.623 l 1
 374.267 668.789 l 1
 351.228 660.499 l 1
 328.759 650.771 l 1
 306.947 639.661 l 1
 285.868 627.195 l 1
 265.623 613.434 l 1
 246.275 598.43 l 1
 227.915 582.238 l 1
 210.603 564.926 l 1
 194.411 546.564 l 1
 179.407 527.218 l 1
 165.646 506.972 l 1
 153.179 485.899 l 1
 142.069 464.082 l 1
 132.342 441.614 l 1
 124.052 418.582 l 1
 117.218 395.066 l 1
 111.88 371.175 l 1
 108.047 346.989 l 1
 105.745 322.615 l 1
 104.973 298.149 l 1
 105.745 273.681 l 1
 108.047 249.307 l 1
 111.88 225.121 l 1
 117.218 201.233 l 1
 124.052 177.717 l 1
 132.342 154.686 l 1
 142.069 132.217 l 1
 153.179 110.399 l 1
 165.646 89.3281 l 1
 179.407 69.0742 l 1
 194.411 49.7354 l 1
 210.603 31.374 l 1
 227.915 14.0605 l 1
 246.275 -2.13379 l 1
 265.623 -17.1328 l 1
 285.868 -30.9014 l 1
 306.947 -43.3613 l 1
 328.759 -54.4717 l 1
 351.228 -64.1973 l 1
 374.26 -72.4893 l 1
 397.774 -79.3232 l 1
 421.66 -84.6592 l 1
 445.847 -88.4922 l 1
 470.221 -90.7979 l 1
 494.69 -91.5713 l 1
 519.155 -90.7979 l 1
 543.528 -88.4922 l 1
EndSplineSet
Validated: 524289
EndChar

StartChar: Percent.48
Encoding: 48 57392 48
Width: 1000
VWidth: 0
HStem: -153.919 63.1211<445.847 541.064> 687.096 66.833<445.847 494.69>
VStem: 40.7666 64.9784<249.307 346.989> 494.691 453.927<242.74 434.956>
LayerCount: 2
Fore
SplineSet
494.652 753.929 m 0
 745.354 753.929 948.618 550.663 948.618 299.971 c 0
 948.618 49.3398 745.351 -153.919 494.652 -153.919 c 0
 243.954 -153.919 40.7666 49.3389 40.7666 299.966 c 0
 40.7627 550.663 243.953 753.929 494.652 753.929 c 0
519.155 -90.7979 m 1
 543.528 -88.4883 l 1
 494.691 298.15 l 1
 494.69 687.867 l 1
 470.221 687.096 l 1
 445.847 684.793 l 1
 421.66 680.96 l 1
 397.774 675.623 l 1
 374.267 668.789 l 1
 351.228 660.499 l 1
 328.759 650.771 l 1
 306.947 639.661 l 1
 285.868 627.195 l 1
 265.623 613.434 l 1
 246.275 598.43 l 1
 227.915 582.238 l 1
 210.603 564.926 l 1
 194.411 546.564 l 1
 179.407 527.218 l 1
 165.646 506.972 l 1
 153.179 485.899 l 1
 142.069 464.082 l 1
 132.342 441.614 l 1
 124.052 418.582 l 1
 117.218 395.066 l 1
 111.88 371.175 l 1
 108.047 346.989 l 1
 105.745 322.615 l 1
 104.973 298.149 l 1
 105.745 273.681 l 1
 108.047 249.307 l 1
 111.88 225.121 l 1
 117.218 201.233 l 1
 124.052 177.717 l 1
 132.342 154.686 l 1
 142.069 132.217 l 1
 153.179 110.399 l 1
 165.646 89.3281 l 1
 179.407 69.0742 l 1
 194.411 49.7354 l 1
 210.603 31.374 l 1
 227.915 14.0605 l 1
 246.275 -2.13379 l 1
 265.623 -17.1328 l 1
 285.868 -30.9023 l 1
 306.947 -43.3613 l 1
 328.759 -54.4717 l 1
 351.228 -64.1973 l 1
 374.26 -72.4893 l 1
 397.774 -79.3232 l 1
 421.66 -84.6592 l 1
 445.847 -88.4922 l 1
 470.221 -90.7979 l 1
 494.69 -91.5713 l 1
 519.155 -90.7979 l 1
EndSplineSet
Validated: 524289
EndChar

StartChar: Percent.49
Encoding: 49 57393 49
Width: 1000
VWidth: 0
HStem: -153.919 63.1211<445.847 518.011> 687.096 66.833<445.847 494.69>
VStem: 40.7666 64.9784<249.307 346.989> 494.691 453.927<186.876 434.956>
LayerCount: 2
Fore
SplineSet
494.652 753.929 m 0
 745.354 753.929 948.618 550.663 948.618 299.971 c 0
 948.618 49.3398 745.351 -153.919 494.652 -153.919 c 0
 243.954 -153.919 40.7666 49.3389 40.7666 299.966 c 0
 40.7627 550.663 243.953 753.929 494.652 753.929 c 0
494.69 -91.5713 m 1
 519.155 -90.7939 l 1
 494.691 298.15 l 1
 494.69 687.867 l 1
 470.221 687.096 l 1
 445.847 684.793 l 1
 421.66 680.96 l 1
 397.774 675.623 l 1
 374.267 668.789 l 1
 351.228 660.499 l 1
 328.759 650.771 l 1
 306.947 639.661 l 1
 285.868 627.195 l 1
 265.623 613.434 l 1
 246.275 598.43 l 1
 227.915 582.238 l 1
 210.603 564.926 l 1
 194.411 546.564 l 1
 179.407 527.218 l 1
 165.646 506.972 l 1
 153.179 485.899 l 1
 142.069 464.082 l 1
 132.342 441.614 l 1
 124.052 418.582 l 1
 117.218 395.066 l 1
 111.88 371.175 l 1
 108.047 346.989 l 1
 105.745 322.615 l 1
 104.973 298.149 l 1
 105.745 273.681 l 1
 108.047 249.307 l 1
 111.88 225.121 l 1
 117.218 201.233 l 1
 124.052 177.717 l 1
 132.342 154.686 l 1
 142.069 132.217 l 1
 153.179 110.399 l 1
 165.646 89.3281 l 1
 179.407 69.0742 l 1
 194.411 49.7354 l 1
 210.603 31.374 l 1
 227.915 14.0605 l 1
 246.275 -2.13379 l 1
 265.623 -17.1328 l 1
 285.868 -30.9014 l 1
 306.947 -43.3613 l 1
 328.759 -54.4717 l 1
 351.228 -64.1973 l 1
 374.26 -72.4893 l 1
 397.774 -79.3232 l 1
 421.66 -84.6592 l 1
 445.847 -88.4922 l 1
 470.221 -90.7979 l 1
 494.69 -91.5713 l 1
EndSplineSet
Validated: 524289
EndChar

StartChar: Percent.50
Encoding: 50 57394 50
Width: 1000
VWidth: 0
HStem: -153.919 63.1211<445.847 494.69> 687.096 66.833<445.847 494.69>
VStem: 40.7666 64.9784<249.307 346.989> 494.69 453.928<165.015 434.956>
LayerCount: 2
Fore
SplineSet
494.652 753.929 m 0
 745.354 753.929 948.618 550.663 948.618 299.971 c 0
 948.618 49.3398 745.351 -153.919 494.652 -153.919 c 0
 243.954 -153.919 40.7666 49.3389 40.7666 299.966 c 0
 40.7627 550.663 243.953 753.929 494.652 753.929 c 0
494.69 -91.5713 m 1
 494.691 298.15 l 1
 494.69 687.867 l 1
 470.221 687.096 l 1
 445.847 684.793 l 1
 421.66 680.96 l 1
 397.774 675.623 l 1
 374.267 668.789 l 1
 351.228 660.499 l 1
 328.759 650.771 l 1
 306.947 639.661 l 1
 285.868 627.195 l 1
 265.623 613.434 l 1
 246.275 598.43 l 1
 227.915 582.238 l 1
 210.603 564.926 l 1
 194.411 546.564 l 1
 179.407 527.218 l 1
 165.646 506.972 l 1
 153.179 485.899 l 1
 142.069 464.082 l 1
 132.342 441.614 l 1
 124.052 418.582 l 1
 117.218 395.066 l 1
 111.88 371.175 l 1
 108.047 346.989 l 1
 105.745 322.615 l 1
 104.973 298.149 l 1
 105.745 273.681 l 1
 108.047 249.307 l 1
 111.88 225.121 l 1
 117.218 201.233 l 1
 124.052 177.717 l 1
 132.342 154.686 l 1
 142.069 132.217 l 1
 153.179 110.399 l 1
 165.646 89.3281 l 1
 179.407 69.0742 l 1
 194.411 49.7354 l 1
 210.603 31.374 l 1
 227.915 14.0605 l 1
 246.275 -2.13379 l 1
 265.623 -17.1328 l 1
 285.868 -30.9023 l 1
 306.947 -43.3613 l 1
 328.759 -54.4717 l 1
 351.228 -64.1973 l 1
 374.26 -72.4893 l 1
 397.774 -79.3232 l 1
 421.66 -84.6592 l 1
 445.847 -88.4922 l 1
 470.221 -90.7979 l 1
 494.69 -91.5713 l 1
EndSplineSet
Validated: 524289
EndChar

StartChar: Percent.51
Encoding: 51 57395 51
Width: 1000
VWidth: 0
HStem: 687.096 66.833<445.847 494.69>
VStem: 40.7666 64.9784<249.307 346.989> 494.691 453.927<186.886 434.956>
LayerCount: 2
Fore
SplineSet
494.652 753.929 m 0
 745.354 753.929 948.618 550.663 948.618 299.971 c 0
 948.618 49.3398 745.351 -153.919 494.652 -153.919 c 0
 243.954 -153.919 40.7666 49.3389 40.7666 299.966 c 0
 40.7627 550.663 243.953 753.929 494.652 753.929 c 0
470.221 -90.7979 m 1
 494.691 298.15 l 1
 494.69 687.867 l 1
 470.221 687.096 l 1
 445.847 684.793 l 1
 421.66 680.96 l 1
 397.774 675.623 l 1
 374.267 668.789 l 1
 351.228 660.499 l 1
 328.759 650.771 l 1
 306.947 639.661 l 1
 285.868 627.195 l 1
 265.623 613.434 l 1
 246.275 598.43 l 1
 227.915 582.238 l 1
 210.603 564.926 l 1
 194.411 546.564 l 1
 179.407 527.218 l 1
 165.646 506.972 l 1
 153.179 485.899 l 1
 142.069 464.082 l 1
 132.342 441.614 l 1
 124.052 418.582 l 1
 117.218 395.066 l 1
 111.88 371.175 l 1
 108.047 346.989 l 1
 105.745 322.615 l 1
 104.973 298.149 l 1
 105.745 273.681 l 1
 108.047 249.307 l 1
 111.88 225.121 l 1
 117.218 201.233 l 1
 124.052 177.717 l 1
 132.342 154.686 l 1
 142.069 132.217 l 1
 153.179 110.399 l 1
 165.646 89.3281 l 1
 179.407 69.0742 l 1
 194.411 49.7354 l 1
 210.603 31.374 l 1
 227.915 14.0605 l 1
 246.275 -2.13379 l 1
 265.623 -17.1328 l 1
 285.868 -30.9023 l 1
 306.947 -43.3613 l 1
 328.759 -54.4717 l 1
 351.228 -64.1973 l 1
 374.26 -72.4893 l 1
 397.774 -79.3232 l 1
 421.66 -84.6592 l 1
 445.847 -88.4922 l 1
 470.221 -90.7979 l 1
EndSplineSet
Validated: 524289
EndChar

StartChar: Percent.52
Encoding: 52 57396 52
Width: 1000
VWidth: 0
HStem: 687.096 66.833<445.847 494.69>
VStem: 40.7666 64.9784<249.307 346.989> 494.691 453.927<242.739 434.956>
LayerCount: 2
Fore
SplineSet
494.652 753.929 m 0
 745.354 753.929 948.618 550.663 948.618 299.971 c 0
 948.618 49.3398 745.351 -153.919 494.652 -153.919 c 0
 243.954 -153.919 40.7666 49.3389 40.7666 299.966 c 0
 40.7627 550.663 243.953 753.929 494.652 753.929 c 0
445.847 -88.4922 m 1
 494.691 298.15 l 1
 494.69 687.867 l 1
 470.221 687.096 l 1
 445.847 684.793 l 1
 421.66 680.96 l 1
 397.774 675.623 l 1
 374.267 668.789 l 1
 351.228 660.499 l 1
 328.759 650.771 l 1
 306.947 639.661 l 1
 285.868 627.195 l 1
 265.623 613.434 l 1
 246.275 598.43 l 1
 227.915 582.238 l 1
 210.603 564.926 l 1
 194.411 546.564 l 1
 179.407 527.218 l 1
 165.646 506.972 l 1
 153.179 485.899 l 1
 142.069 464.082 l 1
 132.342 441.614 l 1
 124.052 418.582 l 1
 117.218 395.066 l 1
 111.88 371.175 l 1
 108.047 346.989 l 1
 105.745 322.615 l 1
 104.973 298.149 l 1
 105.745 273.681 l 1
 108.047 249.307 l 1
 111.88 225.121 l 1
 117.218 201.233 l 1
 124.052 177.717 l 1
 132.342 154.686 l 1
 142.069 132.217 l 1
 153.179 110.399 l 1
 165.646 89.3281 l 1
 179.407 69.0742 l 1
 194.411 49.7354 l 1
 210.603 31.374 l 1
 227.915 14.0605 l 1
 246.275 -2.13379 l 1
 265.623 -17.1328 l 1
 285.868 -30.9023 l 1
 306.947 -43.3613 l 1
 328.759 -54.4717 l 1
 351.228 -64.1973 l 1
 374.26 -72.4893 l 1
 397.774 -79.3232 l 1
 421.66 -84.6592 l 1
 445.847 -88.4922 l 1
EndSplineSet
Validated: 524289
EndChar

StartChar: Percent.53
Encoding: 53 57397 53
Width: 1000
VWidth: 0
HStem: 687.096 66.833<445.848 494.691>
VStem: 40.7666 64.9794<249.307 346.989> 494.692 453.926<261.458 434.956>
LayerCount: 2
Fore
SplineSet
494.652 753.929 m 0
 745.354 753.929 948.618 550.663 948.618 299.971 c 0
 948.618 49.3398 745.351 -153.919 494.652 -153.919 c 0
 243.954 -153.919 40.7666 49.3389 40.7666 299.966 c 0
 40.7627 550.663 243.953 753.929 494.652 753.929 c 0
421.661 -84.6592 m 1
 494.692 298.15 l 1
 494.691 687.867 l 1
 470.222 687.096 l 1
 445.848 684.793 l 1
 421.661 680.96 l 1
 397.775 675.623 l 1
 374.268 668.789 l 1
 351.229 660.499 l 1
 328.76 650.771 l 1
 306.948 639.661 l 1
 285.869 627.195 l 1
 265.624 613.434 l 1
 246.276 598.43 l 1
 227.916 582.238 l 1
 210.604 564.926 l 1
 194.412 546.564 l 1
 179.408 527.218 l 1
 165.646 506.972 l 1
 153.18 485.899 l 1
 142.07 464.082 l 1
 132.343 441.614 l 1
 124.053 418.582 l 1
 117.219 395.066 l 1
 111.881 371.175 l 1
 108.048 346.989 l 1
 105.746 322.615 l 1
 104.974 298.149 l 1
 105.746 273.681 l 1
 108.048 249.307 l 1
 111.881 225.121 l 1
 117.219 201.233 l 1
 124.053 177.717 l 1
 132.343 154.686 l 1
 142.07 132.217 l 1
 153.18 110.399 l 1
 165.646 89.3281 l 1
 179.408 69.0742 l 1
 194.412 49.7354 l 1
 210.604 31.374 l 1
 227.916 14.0605 l 1
 246.276 -2.13379 l 1
 265.624 -17.1328 l 1
 285.869 -30.9023 l 1
 306.948 -43.3613 l 1
 328.76 -54.4717 l 1
 351.229 -64.1973 l 1
 374.261 -72.4893 l 1
 397.775 -79.3232 l 1
 421.661 -84.6592 l 1
EndSplineSet
Validated: 524289
EndChar

StartChar: Percent.54
Encoding: 54 57398 54
Width: 1000
VWidth: 0
HStem: 687.096 66.833<445.848 494.691>
VStem: 40.7666 64.9794<249.307 346.989> 494.692 453.926<270.886 434.956>
LayerCount: 2
Fore
SplineSet
494.652 753.929 m 0
 745.354 753.929 948.618 550.663 948.618 299.971 c 0
 948.618 49.3398 745.351 -153.919 494.652 -153.919 c 0
 243.954 -153.919 40.7666 49.3389 40.7666 299.966 c 0
 40.7627 550.663 243.953 753.929 494.652 753.929 c 0
397.775 -79.3232 m 1
 494.692 298.15 l 1
 494.691 687.867 l 1
 470.222 687.096 l 1
 445.848 684.793 l 1
 421.661 680.96 l 1
 397.775 675.623 l 1
 374.268 668.789 l 1
 351.229 660.499 l 1
 328.76 650.771 l 1
 306.948 639.661 l 1
 285.869 627.195 l 1
 265.624 613.434 l 1
 246.276 598.43 l 1
 227.916 582.238 l 1
 210.604 564.926 l 1
 194.412 546.564 l 1
 179.408 527.218 l 1
 165.646 506.972 l 1
 153.18 485.899 l 1
 142.07 464.082 l 1
 132.343 441.614 l 1
 124.053 418.582 l 1
 117.219 395.066 l 1
 111.881 371.175 l 1
 108.048 346.989 l 1
 105.746 322.615 l 1
 104.974 298.149 l 1
 105.746 273.681 l 1
 108.048 249.307 l 1
 111.881 225.121 l 1
 117.219 201.233 l 1
 124.053 177.717 l 1
 132.343 154.686 l 1
 142.07 132.217 l 1
 153.18 110.399 l 1
 165.646 89.3281 l 1
 179.408 69.0742 l 1
 194.412 49.7354 l 1
 210.604 31.374 l 1
 227.916 14.0605 l 1
 246.276 -2.13379 l 1
 265.624 -17.1328 l 1
 285.869 -30.9023 l 1
 306.948 -43.3613 l 1
 328.76 -54.4717 l 1
 351.229 -64.1973 l 1
 374.261 -72.4893 l 1
 397.775 -79.3232 l 1
EndSplineSet
Validated: 524289
EndChar

StartChar: Percent.55
Encoding: 55 57399 55
Width: 1000
VWidth: 0
HStem: 687.096 66.833<445.847 494.69>
VStem: 40.7666 64.9784<249.307 346.989> 494.691 453.927<276.607 434.956>
LayerCount: 2
Fore
SplineSet
494.652 753.929 m 0
 745.354 753.929 948.618 550.663 948.618 299.971 c 0
 948.618 49.3398 745.351 -153.919 494.652 -153.919 c 0
 243.954 -153.919 40.7666 49.3389 40.7666 299.966 c 0
 40.7627 550.663 243.953 753.929 494.652 753.929 c 0
374.26 -72.4893 m 1
 494.691 298.15 l 1
 494.69 687.867 l 1
 470.221 687.096 l 1
 445.847 684.793 l 1
 421.66 680.96 l 1
 397.774 675.623 l 1
 374.267 668.789 l 1
 351.228 660.499 l 1
 328.759 650.771 l 1
 306.947 639.661 l 1
 285.868 627.195 l 1
 265.623 613.434 l 1
 246.275 598.43 l 1
 227.915 582.238 l 1
 210.603 564.926 l 1
 194.411 546.564 l 1
 179.407 527.218 l 1
 165.646 506.972 l 1
 153.179 485.899 l 1
 142.069 464.082 l 1
 132.342 441.614 l 1
 124.052 418.582 l 1
 117.218 395.066 l 1
 111.88 371.175 l 1
 108.047 346.989 l 1
 105.745 322.615 l 1
 104.973 298.149 l 1
 105.745 273.681 l 1
 108.047 249.307 l 1
 111.88 225.121 l 1
 117.218 201.233 l 1
 124.052 177.717 l 1
 132.342 154.686 l 1
 142.069 132.217 l 1
 153.179 110.399 l 1
 165.646 89.3281 l 1
 179.407 69.0742 l 1
 194.411 49.7354 l 1
 210.603 31.374 l 1
 227.915 14.0605 l 1
 246.275 -2.13379 l 1
 265.623 -17.1328 l 1
 285.868 -30.9023 l 1
 306.947 -43.3613 l 1
 328.759 -54.4717 l 1
 351.228 -64.1973 l 1
 374.26 -72.4893 l 1
EndSplineSet
Validated: 524289
EndChar

StartChar: Percent.56
Encoding: 56 57400 56
Width: 1000
VWidth: 0
HStem: 687.096 66.833<445.847 494.69>
VStem: 40.7666 64.9784<249.307 346.989> 494.691 453.927<298.15 434.956>
LayerCount: 2
Fore
SplineSet
494.652 753.929 m 0
 745.354 753.929 948.618 550.663 948.618 299.971 c 0
 948.618 49.3398 745.351 -153.919 494.652 -153.919 c 0
 243.954 -153.919 40.7666 49.3389 40.7666 299.966 c 0
 40.7627 550.663 243.953 753.929 494.652 753.929 c 0
351.228 -64.1973 m 1
 494.691 298.15 l 1
 494.69 687.867 l 1
 470.221 687.096 l 1
 445.847 684.793 l 1
 421.66 680.96 l 1
 397.774 675.623 l 1
 374.267 668.789 l 1
 351.228 660.499 l 1
 328.759 650.771 l 1
 306.947 639.661 l 1
 285.868 627.195 l 1
 265.623 613.434 l 1
 246.275 598.43 l 1
 227.915 582.238 l 1
 210.603 564.926 l 1
 194.411 546.564 l 1
 179.407 527.218 l 1
 165.646 506.972 l 1
 153.179 485.899 l 1
 142.069 464.082 l 1
 132.342 441.614 l 1
 124.052 418.582 l 1
 117.218 395.066 l 1
 111.88 371.175 l 1
 108.047 346.989 l 1
 105.745 322.615 l 1
 104.973 298.149 l 1
 105.745 273.681 l 1
 108.047 249.307 l 1
 111.88 225.121 l 1
 117.218 201.233 l 1
 124.052 177.717 l 1
 132.342 154.686 l 1
 142.069 132.217 l 1
 153.179 110.399 l 1
 165.646 89.3281 l 1
 179.407 69.0742 l 1
 194.411 49.7354 l 1
 210.603 31.374 l 1
 227.915 14.0605 l 1
 246.275 -2.13379 l 1
 265.623 -17.1328 l 1
 285.868 -30.9023 l 1
 306.947 -43.3613 l 1
 328.759 -54.4717 l 1
 351.228 -64.1973 l 1
EndSplineSet
Validated: 524289
EndChar

StartChar: Percent.57
Encoding: 57 57401 57
Width: 1000
VWidth: 0
HStem: 687.096 66.833<445.848 494.691>
VStem: 40.7666 64.9794<249.307 346.989> 494.692 453.926<298.15 434.956>
LayerCount: 2
Fore
SplineSet
494.652 753.929 m 0
 745.354 753.929 948.618 550.663 948.618 299.971 c 0
 948.618 49.3398 745.351 -153.919 494.652 -153.919 c 0
 243.954 -153.919 40.7666 49.3389 40.7666 299.966 c 0
 40.7627 550.663 243.953 753.929 494.652 753.929 c 0
328.76 -54.4717 m 1
 494.692 298.15 l 1
 494.691 687.867 l 1
 470.222 687.096 l 1
 445.848 684.793 l 1
 421.661 680.96 l 1
 397.775 675.623 l 1
 374.268 668.789 l 1
 351.229 660.499 l 1
 328.76 650.771 l 1
 306.948 639.661 l 1
 285.869 627.195 l 1
 265.624 613.434 l 1
 246.276 598.43 l 1
 227.916 582.238 l 1
 210.604 564.926 l 1
 194.412 546.564 l 1
 179.408 527.218 l 1
 165.646 506.972 l 1
 153.18 485.899 l 1
 142.07 464.082 l 1
 132.343 441.614 l 1
 124.053 418.582 l 1
 117.219 395.066 l 1
 111.881 371.175 l 1
 108.048 346.989 l 1
 105.746 322.615 l 1
 104.974 298.149 l 1
 105.746 273.681 l 1
 108.048 249.307 l 1
 111.881 225.121 l 1
 117.219 201.233 l 1
 124.053 177.717 l 1
 132.343 154.686 l 1
 142.07 132.217 l 1
 153.18 110.399 l 1
 165.646 89.3281 l 1
 179.408 69.0742 l 1
 194.412 49.7354 l 1
 210.604 31.374 l 1
 227.916 14.0605 l 1
 246.276 -2.13379 l 1
 265.624 -17.1328 l 1
 285.869 -30.9023 l 1
 306.948 -43.3613 l 1
 328.76 -54.4717 l 1
EndSplineSet
Validated: 524289
EndChar

StartChar: Percent.58
Encoding: 58 57402 58
Width: 1000
VWidth: 0
HStem: 687.096 66.833<445.848 494.691>
VStem: 40.7666 64.9794<249.307 346.989> 494.692 453.926<298.15 434.956>
LayerCount: 2
Fore
SplineSet
494.652 753.929 m 0
 745.354 753.929 948.618 550.663 948.618 299.971 c 0
 948.618 49.3398 745.351 -153.919 494.652 -153.919 c 0
 243.954 -153.919 40.7666 49.3389 40.7666 299.966 c 0
 40.7627 550.663 243.953 753.929 494.652 753.929 c 0
306.948 -43.3613 m 1
 494.692 298.15 l 1
 494.691 687.867 l 1
 470.222 687.096 l 1
 445.848 684.793 l 1
 421.661 680.96 l 1
 397.775 675.623 l 1
 374.268 668.789 l 1
 351.229 660.499 l 1
 328.76 650.771 l 1
 306.948 639.661 l 1
 285.869 627.195 l 1
 265.624 613.434 l 1
 246.276 598.43 l 1
 227.916 582.238 l 1
 210.604 564.926 l 1
 194.412 546.564 l 1
 179.408 527.218 l 1
 165.646 506.972 l 1
 153.18 485.899 l 1
 142.07 464.082 l 1
 132.343 441.614 l 1
 124.053 418.582 l 1
 117.219 395.066 l 1
 111.881 371.175 l 1
 108.048 346.989 l 1
 105.746 322.615 l 1
 104.974 298.149 l 1
 105.746 273.681 l 1
 108.048 249.307 l 1
 111.881 225.121 l 1
 117.219 201.233 l 1
 124.053 177.717 l 1
 132.343 154.686 l 1
 142.07 132.217 l 1
 153.18 110.399 l 1
 165.646 89.3281 l 1
 179.408 69.0742 l 1
 194.412 49.7354 l 1
 210.604 31.374 l 1
 227.916 14.0605 l 1
 246.276 -2.13379 l 1
 265.624 -17.1328 l 1
 285.869 -30.9023 l 1
 306.948 -43.3613 l 1
EndSplineSet
Validated: 524289
EndChar

StartChar: Percent.59
Encoding: 59 57403 59
Width: 1000
VWidth: 0
HStem: 687.096 66.833<445.848 494.691>
VStem: 40.7666 64.9794<249.307 346.989> 494.692 453.926<298.15 434.956>
LayerCount: 2
Fore
SplineSet
494.652 753.929 m 0
 745.354 753.929 948.618 550.663 948.618 299.971 c 0
 948.618 49.3398 745.351 -153.919 494.652 -153.919 c 0
 243.954 -153.919 40.7666 49.3389 40.7666 299.966 c 0
 40.7627 550.663 243.953 753.929 494.652 753.929 c 0
285.869 -30.9023 m 1
 494.692 298.15 l 1
 494.691 687.867 l 1
 470.222 687.096 l 1
 445.848 684.793 l 1
 421.661 680.96 l 1
 397.775 675.623 l 1
 374.268 668.789 l 1
 351.229 660.499 l 1
 328.76 650.771 l 1
 306.948 639.661 l 1
 285.869 627.195 l 1
 265.624 613.434 l 1
 246.276 598.43 l 1
 227.916 582.238 l 1
 210.604 564.926 l 1
 194.412 546.564 l 1
 179.408 527.218 l 1
 165.646 506.972 l 1
 153.18 485.899 l 1
 142.07 464.082 l 1
 132.343 441.614 l 1
 124.053 418.582 l 1
 117.219 395.066 l 1
 111.881 371.175 l 1
 108.048 346.989 l 1
 105.746 322.615 l 1
 104.974 298.149 l 1
 105.746 273.681 l 1
 108.048 249.307 l 1
 111.881 225.121 l 1
 117.219 201.233 l 1
 124.053 177.717 l 1
 132.343 154.686 l 1
 142.07 132.217 l 1
 153.18 110.399 l 1
 165.646 89.3281 l 1
 179.408 69.0742 l 1
 194.412 49.7354 l 1
 210.604 31.374 l 1
 227.916 14.0605 l 1
 246.276 -2.13379 l 1
 265.624 -17.1328 l 1
 285.869 -30.9023 l 1
EndSplineSet
Validated: 524289
EndChar

StartChar: Percent.60
Encoding: 60 57404 60
Width: 1000
VWidth: 0
HStem: 687.095 66.834<445.847 494.69>
VStem: 40.7666 64.9784<249.306 346.988> 494.691 453.927<298.149 434.956>
LayerCount: 2
Fore
SplineSet
494.652 753.929 m 0
 745.354 753.929 948.618 550.663 948.618 299.971 c 0
 948.618 49.3398 745.351 -153.919 494.652 -153.919 c 0
 243.954 -153.919 40.7666 49.3389 40.7666 299.966 c 0
 40.7627 550.663 243.953 753.929 494.652 753.929 c 0
265.623 -17.1338 m 1
 494.691 298.149 l 1
 494.69 687.866 l 1
 470.221 687.095 l 1
 445.847 684.792 l 1
 421.66 680.959 l 1
 397.774 675.622 l 1
 374.267 668.788 l 1
 351.228 660.498 l 1
 328.759 650.771 l 1
 306.947 639.66 l 1
 285.868 627.194 l 1
 265.623 613.433 l 1
 246.275 598.429 l 1
 227.915 582.237 l 1
 210.603 564.925 l 1
 194.411 546.563 l 1
 179.407 527.217 l 1
 165.646 506.971 l 1
 153.179 485.898 l 1
 142.069 464.081 l 1
 132.342 441.613 l 1
 124.052 418.581 l 1
 117.218 395.065 l 1
 111.88 371.174 l 1
 108.047 346.988 l 1
 105.745 322.614 l 1
 104.973 298.148 l 1
 105.745 273.68 l 1
 108.047 249.306 l 1
 111.88 225.12 l 1
 117.218 201.232 l 1
 124.052 177.716 l 1
 132.342 154.685 l 1
 142.069 132.216 l 1
 153.179 110.398 l 1
 165.646 89.3271 l 1
 179.407 69.0732 l 1
 194.411 49.7344 l 1
 210.603 31.373 l 1
 227.915 14.0596 l 1
 246.275 -2.13477 l 1
 265.623 -17.1338 l 1
EndSplineSet
Validated: 524289
EndChar

StartChar: Percent.61
Encoding: 61 57405 61
Width: 1000
VWidth: 0
HStem: 687.096 66.833<445.848 494.691>
VStem: 40.7666 64.9794<249.307 346.989> 494.692 453.926<298.15 434.956>
LayerCount: 2
Fore
SplineSet
494.652 753.929 m 0
 745.354 753.929 948.618 550.663 948.618 299.971 c 0
 948.618 49.3398 745.351 -153.919 494.652 -153.919 c 0
 243.954 -153.919 40.7666 49.3389 40.7666 299.966 c 0
 40.7627 550.663 243.953 753.929 494.652 753.929 c 0
246.276 -2.13379 m 1
 494.692 298.15 l 1
 494.691 687.867 l 1
 470.222 687.096 l 1
 445.848 684.793 l 1
 421.661 680.96 l 1
 397.775 675.623 l 1
 374.268 668.789 l 1
 351.229 660.499 l 1
 328.76 650.771 l 1
 306.948 639.661 l 1
 285.869 627.195 l 1
 265.624 613.434 l 1
 246.276 598.43 l 1
 227.916 582.238 l 1
 210.604 564.926 l 1
 194.412 546.564 l 1
 179.408 527.218 l 1
 165.646 506.972 l 1
 153.18 485.899 l 1
 142.07 464.082 l 1
 132.343 441.614 l 1
 124.053 418.582 l 1
 117.219 395.066 l 1
 111.881 371.175 l 1
 108.048 346.989 l 1
 105.746 322.615 l 1
 104.974 298.149 l 1
 105.746 273.681 l 1
 108.048 249.307 l 1
 111.881 225.121 l 1
 117.219 201.233 l 1
 124.053 177.717 l 1
 132.343 154.686 l 1
 142.07 132.217 l 1
 153.18 110.399 l 1
 165.646 89.3281 l 1
 179.408 69.0742 l 1
 194.412 49.7354 l 1
 210.604 31.374 l 1
 227.916 14.0605 l 1
 246.276 -2.13379 l 1
EndSplineSet
Validated: 524289
EndChar

StartChar: Percent.62
Encoding: 62 57406 62
Width: 1000
VWidth: 0
HStem: 687.096 66.833<445.848 494.691>
VStem: 40.7666 64.9794<249.307 346.989> 494.692 453.926<298.15 434.956>
LayerCount: 2
Fore
SplineSet
494.652 753.929 m 0
 745.354 753.929 948.618 550.663 948.618 299.971 c 0
 948.618 49.3398 745.351 -153.919 494.652 -153.919 c 0
 243.954 -153.919 40.7666 49.3389 40.7666 299.966 c 0
 40.7627 550.663 243.953 753.929 494.652 753.929 c 0
227.916 14.0605 m 1
 494.692 298.15 l 1
 494.691 687.867 l 1
 470.222 687.096 l 1
 445.848 684.793 l 1
 421.661 680.96 l 1
 397.775 675.623 l 1
 374.268 668.789 l 1
 351.229 660.499 l 1
 328.76 650.771 l 1
 306.948 639.661 l 1
 285.869 627.195 l 1
 265.624 613.434 l 1
 246.276 598.43 l 1
 227.916 582.238 l 1
 210.604 564.926 l 1
 194.412 546.564 l 1
 179.408 527.218 l 1
 165.646 506.972 l 1
 153.18 485.899 l 1
 142.07 464.082 l 1
 132.343 441.614 l 1
 124.053 418.582 l 1
 117.219 395.066 l 1
 111.881 371.175 l 1
 108.048 346.989 l 1
 105.746 322.615 l 1
 104.974 298.149 l 1
 105.746 273.681 l 1
 108.048 249.307 l 1
 111.881 225.121 l 1
 117.219 201.233 l 1
 124.053 177.717 l 1
 132.343 154.686 l 1
 142.07 132.217 l 1
 153.18 110.399 l 1
 165.646 89.3281 l 1
 179.408 69.0742 l 1
 194.412 49.7354 l 1
 210.604 31.374 l 1
 227.916 14.0605 l 1
EndSplineSet
Validated: 524289
EndChar

StartChar: Percent.63
Encoding: 63 57407 63
Width: 1000
VWidth: 0
HStem: 687.095 66.834<445.848 494.691>
VStem: 40.7666 64.9794<249.306 346.988> 494.692 453.926<298.149 434.956>
LayerCount: 2
Fore
SplineSet
494.652 753.929 m 0
 745.354 753.929 948.618 550.663 948.618 299.971 c 0
 948.618 49.3398 745.351 -153.919 494.652 -153.919 c 0
 243.954 -153.919 40.7666 49.3389 40.7666 299.966 c 0
 40.7627 550.663 243.953 753.929 494.652 753.929 c 0
210.604 31.373 m 1
 494.692 298.149 l 1
 494.691 687.866 l 1
 470.222 687.095 l 1
 445.848 684.792 l 1
 421.661 680.959 l 1
 397.775 675.622 l 1
 374.268 668.788 l 1
 351.229 660.498 l 1
 328.76 650.771 l 1
 306.948 639.66 l 1
 285.869 627.194 l 1
 265.624 613.433 l 1
 246.276 598.429 l 1
 227.916 582.237 l 1
 210.604 564.925 l 1
 194.412 546.563 l 1
 179.408 527.217 l 1
 165.646 506.971 l 1
 153.18 485.898 l 1
 142.07 464.081 l 1
 132.343 441.613 l 1
 124.053 418.581 l 1
 117.219 395.065 l 1
 111.881 371.174 l 1
 108.048 346.988 l 1
 105.746 322.614 l 1
 104.974 298.148 l 1
 105.746 273.68 l 1
 108.048 249.306 l 1
 111.881 225.12 l 1
 117.219 201.232 l 1
 124.053 177.716 l 1
 132.343 154.685 l 1
 142.07 132.216 l 1
 153.18 110.398 l 1
 165.646 89.3271 l 1
 179.408 69.0732 l 1
 194.412 49.7344 l 1
 210.604 31.373 l 1
EndSplineSet
Validated: 524289
EndChar

StartChar: Percent.64
Encoding: 64 57408 64
Width: 1000
VWidth: 0
HStem: 687.095 66.834<445.848 494.691>
VStem: 40.7666 64.9794<249.306 346.988> 494.692 453.926<298.149 434.956>
LayerCount: 2
Fore
SplineSet
494.652 753.929 m 0
 745.354 753.929 948.618 550.663 948.618 299.971 c 0
 948.618 49.3398 745.351 -153.919 494.652 -153.919 c 0
 243.954 -153.919 40.7666 49.3389 40.7666 299.966 c 0
 40.7627 550.663 243.953 753.929 494.652 753.929 c 0
194.412 49.7344 m 1
 494.692 298.149 l 1
 494.691 687.866 l 1
 470.222 687.095 l 1
 445.848 684.792 l 1
 421.661 680.959 l 1
 397.775 675.622 l 1
 374.268 668.788 l 1
 351.229 660.498 l 1
 328.76 650.771 l 1
 306.948 639.66 l 1
 285.869 627.194 l 1
 265.624 613.433 l 1
 246.276 598.429 l 1
 227.916 582.237 l 1
 210.604 564.925 l 1
 194.412 546.563 l 1
 179.408 527.217 l 1
 165.646 506.971 l 1
 153.18 485.898 l 1
 142.07 464.081 l 1
 132.343 441.613 l 1
 124.053 418.581 l 1
 117.219 395.065 l 1
 111.881 371.174 l 1
 108.048 346.988 l 1
 105.746 322.614 l 1
 104.974 298.148 l 1
 105.746 273.68 l 1
 108.048 249.306 l 1
 111.881 225.12 l 1
 117.219 201.232 l 1
 124.053 177.716 l 1
 132.343 154.685 l 1
 142.07 132.216 l 1
 153.18 110.398 l 1
 165.646 89.3271 l 1
 179.408 69.0732 l 1
 194.412 49.7344 l 1
EndSplineSet
Validated: 524289
EndChar

StartChar: Percent.65
Encoding: 65 57409 65
Width: 1000
VWidth: 0
HStem: 687.095 66.834<445.848 494.691>
VStem: 40.7666 64.9794<249.306 346.988> 494.692 453.926<298.149 434.956>
LayerCount: 2
Fore
SplineSet
494.652 753.929 m 0
 745.354 753.929 948.618 550.663 948.618 299.971 c 0
 948.618 49.3398 745.351 -153.919 494.652 -153.919 c 0
 243.954 -153.919 40.7666 49.3389 40.7666 299.966 c 0
 40.7627 550.663 243.953 753.929 494.652 753.929 c 0
179.408 69.0732 m 1
 494.692 298.149 l 1
 494.691 687.866 l 1
 470.222 687.095 l 1
 445.848 684.792 l 1
 421.661 680.959 l 1
 397.775 675.622 l 1
 374.268 668.788 l 1
 351.229 660.498 l 1
 328.76 650.771 l 1
 306.948 639.66 l 1
 285.869 627.194 l 1
 265.624 613.433 l 1
 246.276 598.429 l 1
 227.916 582.237 l 1
 210.604 564.925 l 1
 194.412 546.563 l 1
 179.408 527.217 l 1
 165.646 506.971 l 1
 153.18 485.898 l 1
 142.07 464.081 l 1
 132.343 441.613 l 1
 124.053 418.581 l 1
 117.219 395.065 l 1
 111.881 371.174 l 1
 108.048 346.988 l 1
 105.746 322.614 l 1
 104.974 298.148 l 1
 105.746 273.68 l 1
 108.048 249.306 l 1
 111.881 225.12 l 1
 117.219 201.232 l 1
 124.053 177.716 l 1
 132.343 154.685 l 1
 142.07 132.216 l 1
 153.18 110.398 l 1
 165.646 89.3271 l 1
 179.408 69.0732 l 1
EndSplineSet
Validated: 524289
EndChar

StartChar: Percent.66
Encoding: 66 57410 66
Width: 1000
VWidth: 0
HStem: 687.095 66.834<445.848 494.691>
VStem: 40.7666 64.9794<249.306 346.988> 494.692 453.926<298.149 434.956>
LayerCount: 2
Fore
SplineSet
494.652 753.929 m 0
 745.354 753.929 948.618 550.663 948.618 299.971 c 0
 948.618 49.3398 745.351 -153.919 494.652 -153.919 c 0
 243.954 -153.919 40.7666 49.3389 40.7666 299.966 c 0
 40.7627 550.663 243.953 753.929 494.652 753.929 c 0
165.646 89.3271 m 1
 494.692 298.149 l 1
 494.691 687.866 l 1
 470.222 687.095 l 1
 445.848 684.792 l 1
 421.661 680.959 l 1
 397.775 675.622 l 1
 374.268 668.788 l 1
 351.229 660.498 l 1
 328.76 650.771 l 1
 306.948 639.66 l 1
 285.869 627.194 l 1
 265.624 613.433 l 1
 246.276 598.429 l 1
 227.916 582.237 l 1
 210.604 564.925 l 1
 194.412 546.563 l 1
 179.408 527.217 l 1
 165.646 506.971 l 1
 153.18 485.898 l 1
 142.07 464.081 l 1
 132.343 441.613 l 1
 124.053 418.581 l 1
 117.219 395.065 l 1
 111.881 371.174 l 1
 108.048 346.988 l 1
 105.746 322.614 l 1
 104.974 298.148 l 1
 105.746 273.68 l 1
 108.048 249.306 l 1
 111.881 225.12 l 1
 117.219 201.232 l 1
 124.053 177.716 l 1
 132.343 154.685 l 1
 142.07 132.216 l 1
 153.18 110.398 l 1
 165.646 89.3271 l 1
EndSplineSet
Validated: 524289
EndChar

StartChar: Percent.67
Encoding: 67 57411 67
Width: 1000
VWidth: 0
HStem: 687.095 66.834<445.849 494.692>
VStem: 40.7666 64.9804<249.306 346.988> 494.693 453.925<298.149 434.956>
LayerCount: 2
Fore
SplineSet
494.652 753.929 m 0
 745.354 753.929 948.618 550.663 948.618 299.971 c 0
 948.618 49.3398 745.351 -153.919 494.652 -153.919 c 0
 243.954 -153.919 40.7666 49.3389 40.7666 299.966 c 0
 40.7627 550.663 243.953 753.929 494.652 753.929 c 0
153.181 110.398 m 1
 494.693 298.149 l 1
 494.692 687.866 l 1
 470.223 687.095 l 1
 445.849 684.792 l 1
 421.662 680.959 l 1
 397.776 675.622 l 1
 374.269 668.788 l 1
 351.229 660.498 l 1
 328.761 650.771 l 1
 306.949 639.66 l 1
 285.87 627.194 l 1
 265.625 613.433 l 1
 246.277 598.429 l 1
 227.917 582.237 l 1
 210.604 564.925 l 1
 194.413 546.563 l 1
 179.409 527.217 l 1
 165.647 506.971 l 1
 153.181 485.898 l 1
 142.071 464.081 l 1
 132.344 441.613 l 1
 124.054 418.581 l 1
 117.22 395.065 l 1
 111.882 371.174 l 1
 108.049 346.988 l 1
 105.747 322.614 l 1
 104.975 298.148 l 1
 105.747 273.68 l 1
 108.049 249.306 l 1
 111.882 225.12 l 1
 117.22 201.232 l 1
 124.054 177.716 l 1
 132.344 154.685 l 1
 142.071 132.216 l 1
 153.181 110.398 l 1
EndSplineSet
Validated: 524289
EndChar

StartChar: Percent.68
Encoding: 68 57412 68
Width: 1000
VWidth: 0
HStem: 687.095 66.834<445.849 494.692>
VStem: 40.7666 64.9804<249.306 346.988> 494.693 453.925<298.149 434.956>
LayerCount: 2
Fore
SplineSet
494.652 753.929 m 0
 745.354 753.929 948.618 550.663 948.618 299.971 c 0
 948.618 49.3398 745.351 -153.919 494.652 -153.919 c 0
 243.954 -153.919 40.7666 49.3389 40.7666 299.966 c 0
 40.7627 550.663 243.953 753.929 494.652 753.929 c 0
142.071 132.216 m 1
 494.693 298.149 l 1
 494.692 687.866 l 1
 470.223 687.095 l 1
 445.849 684.792 l 1
 421.662 680.959 l 1
 397.776 675.622 l 1
 374.269 668.788 l 1
 351.229 660.498 l 1
 328.761 650.771 l 1
 306.949 639.66 l 1
 285.87 627.194 l 1
 265.625 613.433 l 1
 246.277 598.429 l 1
 227.917 582.237 l 1
 210.604 564.925 l 1
 194.413 546.563 l 1
 179.409 527.217 l 1
 165.647 506.971 l 1
 153.181 485.898 l 1
 142.071 464.081 l 1
 132.344 441.613 l 1
 124.054 418.581 l 1
 117.22 395.065 l 1
 111.882 371.174 l 1
 108.049 346.988 l 1
 105.747 322.614 l 1
 104.975 298.148 l 1
 105.747 273.68 l 1
 108.049 249.306 l 1
 111.882 225.12 l 1
 117.22 201.232 l 1
 124.054 177.716 l 1
 132.344 154.685 l 1
 142.071 132.216 l 1
EndSplineSet
Validated: 524289
EndChar

StartChar: Percent.69
Encoding: 69 57413 69
Width: 1000
VWidth: 0
HStem: 687.095 66.834<445.849 494.692>
VStem: 40.7666 64.9804<249.306 346.988> 494.693 453.925<298.149 434.956>
LayerCount: 2
Fore
SplineSet
494.652 753.929 m 0
 745.354 753.929 948.618 550.663 948.618 299.971 c 0
 948.618 49.3398 745.351 -153.919 494.652 -153.919 c 0
 243.954 -153.919 40.7666 49.3389 40.7666 299.966 c 0
 40.7627 550.663 243.953 753.929 494.652 753.929 c 0
132.344 154.685 m 1
 494.693 298.149 l 1
 494.692 687.866 l 1
 470.223 687.095 l 1
 445.849 684.792 l 1
 421.662 680.959 l 1
 397.776 675.622 l 1
 374.269 668.788 l 1
 351.229 660.498 l 1
 328.761 650.771 l 1
 306.949 639.66 l 1
 285.87 627.194 l 1
 265.625 613.433 l 1
 246.277 598.429 l 1
 227.917 582.237 l 1
 210.604 564.925 l 1
 194.413 546.563 l 1
 179.409 527.217 l 1
 165.647 506.971 l 1
 153.181 485.898 l 1
 142.071 464.081 l 1
 132.344 441.613 l 1
 124.054 418.581 l 1
 117.22 395.065 l 1
 111.882 371.174 l 1
 108.049 346.988 l 1
 105.747 322.614 l 1
 104.975 298.148 l 1
 105.747 273.68 l 1
 108.049 249.306 l 1
 111.882 225.12 l 1
 117.22 201.232 l 1
 124.054 177.716 l 1
 132.344 154.685 l 1
EndSplineSet
Validated: 524289
EndChar

StartChar: Percent.70
Encoding: 70 57414 70
Width: 1000
VWidth: 0
HStem: 687.095 66.834<445.849 494.692>
VStem: 40.7666 64.9804<249.306 346.988> 494.693 453.925<298.149 434.956>
LayerCount: 2
Fore
SplineSet
494.652 753.929 m 0
 745.354 753.929 948.618 550.663 948.618 299.971 c 0
 948.618 49.3398 745.351 -153.919 494.652 -153.919 c 0
 243.954 -153.919 40.7666 49.3389 40.7666 299.966 c 0
 40.7627 550.663 243.953 753.929 494.652 753.929 c 0
124.054 177.716 m 1
 494.693 298.149 l 1
 494.692 687.866 l 1
 470.223 687.095 l 1
 445.849 684.792 l 1
 421.662 680.959 l 1
 397.776 675.622 l 1
 374.269 668.788 l 1
 351.229 660.498 l 1
 328.761 650.771 l 1
 306.949 639.66 l 1
 285.87 627.194 l 1
 265.625 613.433 l 1
 246.277 598.429 l 1
 227.917 582.237 l 1
 210.604 564.925 l 1
 194.413 546.563 l 1
 179.409 527.217 l 1
 165.647 506.971 l 1
 153.181 485.898 l 1
 142.071 464.081 l 1
 132.344 441.613 l 1
 124.054 418.581 l 1
 117.22 395.065 l 1
 111.882 371.174 l 1
 108.049 346.988 l 1
 105.747 322.614 l 1
 104.975 298.148 l 1
 105.747 273.68 l 1
 108.049 249.306 l 1
 111.882 225.12 l 1
 117.22 201.232 l 1
 124.054 177.716 l 1
EndSplineSet
Validated: 524289
EndChar

StartChar: Percent.71
Encoding: 71 57415 71
Width: 1000
VWidth: 0
HStem: 687.095 66.834<445.848 494.691>
VStem: 40.7666 64.9794<249.306 346.988> 494.692 453.926<298.149 434.956>
LayerCount: 2
Fore
SplineSet
494.652 753.929 m 0
 745.354 753.929 948.618 550.663 948.618 299.971 c 0
 948.618 49.3398 745.351 -153.919 494.652 -153.919 c 0
 243.954 -153.919 40.7666 49.3389 40.7666 299.966 c 0
 40.7627 550.663 243.953 753.929 494.652 753.929 c 0
117.219 201.232 m 1
 494.692 298.149 l 1
 494.691 687.866 l 1
 470.222 687.095 l 1
 445.848 684.792 l 1
 421.661 680.959 l 1
 397.775 675.622 l 1
 374.268 668.788 l 1
 351.229 660.498 l 1
 328.76 650.771 l 1
 306.948 639.66 l 1
 285.869 627.194 l 1
 265.624 613.433 l 1
 246.276 598.429 l 1
 227.916 582.237 l 1
 210.604 564.925 l 1
 194.412 546.563 l 1
 179.408 527.217 l 1
 165.646 506.971 l 1
 153.18 485.898 l 1
 142.07 464.081 l 1
 132.343 441.613 l 1
 124.053 418.581 l 1
 117.219 395.065 l 1
 111.881 371.174 l 1
 108.048 346.988 l 1
 105.746 322.614 l 1
 104.974 298.148 l 1
 105.746 273.68 l 1
 108.048 249.306 l 1
 111.881 225.12 l 1
 117.219 201.232 l 1
EndSplineSet
Validated: 524289
EndChar

StartChar: Percent.72
Encoding: 72 57416 72
Width: 1000
VWidth: 0
HStem: 687.095 66.834<445.849 494.692>
VStem: 40.7666 64.9804<249.306 346.988> 494.693 453.925<298.149 434.956>
LayerCount: 2
Fore
SplineSet
494.652 753.929 m 0
 745.354 753.929 948.618 550.663 948.618 299.971 c 0
 948.618 49.3398 745.351 -153.919 494.652 -153.919 c 0
 243.954 -153.919 40.7666 49.3389 40.7666 299.966 c 0
 40.7627 550.663 243.953 753.929 494.652 753.929 c 0
111.882 225.12 m 1
 494.693 298.149 l 1
 494.692 687.866 l 1
 470.223 687.095 l 1
 445.849 684.792 l 1
 421.662 680.959 l 1
 397.776 675.622 l 1
 374.269 668.788 l 1
 351.229 660.498 l 1
 328.761 650.771 l 1
 306.949 639.66 l 1
 285.87 627.194 l 1
 265.625 613.433 l 1
 246.277 598.429 l 1
 227.917 582.237 l 1
 210.604 564.925 l 1
 194.413 546.563 l 1
 179.409 527.217 l 1
 165.647 506.971 l 1
 153.181 485.898 l 1
 142.071 464.081 l 1
 132.344 441.613 l 1
 124.054 418.581 l 1
 117.22 395.065 l 1
 111.882 371.174 l 1
 108.049 346.988 l 1
 105.747 322.614 l 1
 104.975 298.148 l 1
 105.747 273.68 l 1
 108.049 249.306 l 1
 111.882 225.12 l 1
EndSplineSet
Validated: 524289
EndChar

StartChar: Percent.73
Encoding: 73 57417 73
Width: 1000
VWidth: 0
HStem: 687.094 66.835<445.849 494.692>
VStem: 40.7666 64.9804<253.567 346.987> 494.693 453.925<298.148 434.956>
LayerCount: 2
Fore
SplineSet
494.652 753.929 m 0
 745.354 753.929 948.618 550.663 948.618 299.971 c 0
 948.618 49.3398 745.351 -153.919 494.652 -153.919 c 0
 243.954 -153.919 40.7666 49.3389 40.7666 299.966 c 0
 40.7627 550.663 243.953 753.929 494.652 753.929 c 0
108.049 249.305 m 1
 494.693 298.148 l 1
 494.692 687.865 l 1
 470.223 687.094 l 1
 445.849 684.791 l 1
 421.662 680.958 l 1
 397.776 675.621 l 1
 374.269 668.787 l 1
 351.229 660.497 l 1
 328.761 650.77 l 1
 306.949 639.659 l 1
 285.87 627.193 l 1
 265.625 613.432 l 1
 246.277 598.428 l 1
 227.917 582.236 l 1
 210.604 564.924 l 1
 194.413 546.562 l 1
 179.409 527.216 l 1
 165.647 506.97 l 1
 153.181 485.897 l 1
 142.071 464.08 l 1
 132.344 441.612 l 1
 124.054 418.58 l 1
 117.22 395.064 l 1
 111.882 371.173 l 1
 108.049 346.987 l 1
 105.747 322.613 l 1
 104.975 298.147 l 1
 105.747 273.679 l 1
 108.049 249.305 l 1
EndSplineSet
Validated: 524289
EndChar

StartChar: Percent.74
Encoding: 74 57418 74
Width: 1000
VWidth: 0
HStem: -153.919 452.067<383.424 494.692> 687.094 66.835<445.848 494.691>
VStem: 40.7666 64.9794<276.613 346.987> 494.692 453.926<298.148 434.956>
LayerCount: 2
Fore
SplineSet
494.652 753.929 m 0
 745.354 753.929 948.618 550.663 948.618 299.971 c 0
 948.618 49.3398 745.351 -153.919 494.652 -153.919 c 0
 243.954 -153.919 40.7666 49.3389 40.7666 299.966 c 0
 40.7627 550.663 243.953 753.929 494.652 753.929 c 0
105.746 273.679 m 1
 494.692 298.148 l 1
 494.691 687.865 l 1
 470.222 687.094 l 1
 445.848 684.791 l 1
 421.661 680.958 l 1
 397.775 675.621 l 1
 374.268 668.787 l 1
 351.229 660.497 l 1
 328.76 650.77 l 1
 306.948 639.659 l 1
 285.869 627.193 l 1
 265.624 613.432 l 1
 246.276 598.428 l 1
 227.916 582.236 l 1
 210.604 564.924 l 1
 194.412 546.562 l 1
 179.408 527.216 l 1
 165.646 506.97 l 1
 153.18 485.897 l 1
 142.07 464.08 l 1
 132.343 441.612 l 1
 124.053 418.58 l 1
 117.219 395.064 l 1
 111.881 371.173 l 1
 108.048 346.987 l 1
 105.746 322.613 l 1
 104.974 298.147 l 1
 105.746 273.679 l 1
EndSplineSet
Validated: 524289
EndChar

StartChar: Percent.75
Encoding: 75 57419 75
Width: 1000
VWidth: 0
HStem: -153.919 452.066<359.671 494.692> 687.094 66.835<445.848 494.691>
VStem: 40.7666 64.2074<298.147 346.987> 494.692 453.926<298.148 434.956>
LayerCount: 2
Fore
SplineSet
494.652 753.929 m 0
 745.354 753.929 948.618 550.663 948.618 299.971 c 0
 948.618 49.3398 745.351 -153.919 494.652 -153.919 c 0
 243.954 -153.919 40.7666 49.3389 40.7666 299.966 c 0
 40.7627 550.663 243.953 753.929 494.652 753.929 c 0
104.974 298.147 m 1
 494.692 298.148 l 1
 494.691 687.865 l 1
 470.222 687.094 l 1
 445.848 684.791 l 1
 421.661 680.958 l 1
 397.775 675.621 l 1
 374.268 668.787 l 1
 351.229 660.497 l 1
 328.76 650.77 l 1
 306.948 639.659 l 1
 285.869 627.193 l 1
 265.624 613.432 l 1
 246.276 598.428 l 1
 227.916 582.236 l 1
 210.604 564.924 l 1
 194.412 546.562 l 1
 179.408 527.216 l 1
 165.646 506.97 l 1
 153.18 485.897 l 1
 142.07 464.08 l 1
 132.343 441.612 l 1
 124.053 418.58 l 1
 117.219 395.064 l 1
 111.881 371.173 l 1
 108.048 346.987 l 1
 105.746 322.613 l 1
 104.974 298.147 l 1
EndSplineSet
Validated: 524289
EndChar

StartChar: Percent.76
Encoding: 76 57420 76
Width: 1000
VWidth: 0
HStem: -153.919 452.067<383.406 494.692> 687.094 66.835<445.848 494.691>
VStem: 494.692 453.926<298.148 434.956>
LayerCount: 2
Fore
SplineSet
494.652 753.929 m 0
 745.354 753.929 948.618 550.663 948.618 299.971 c 0
 948.618 49.3398 745.351 -153.919 494.652 -153.919 c 0
 243.954 -153.919 40.7666 49.3389 40.7666 299.966 c 0
 40.7627 550.663 243.953 753.929 494.652 753.929 c 0
105.746 322.613 m 1
 494.692 298.148 l 1
 494.691 687.865 l 1
 470.222 687.094 l 1
 445.848 684.791 l 1
 421.661 680.958 l 1
 397.775 675.621 l 1
 374.268 668.787 l 1
 351.229 660.497 l 1
 328.76 650.77 l 1
 306.948 639.659 l 1
 285.869 627.193 l 1
 265.624 613.432 l 1
 246.276 598.428 l 1
 227.916 582.236 l 1
 210.604 564.924 l 1
 194.412 546.562 l 1
 179.408 527.216 l 1
 165.646 506.97 l 1
 153.18 485.897 l 1
 142.07 464.08 l 1
 132.343 441.612 l 1
 124.053 418.58 l 1
 117.219 395.064 l 1
 111.881 371.173 l 1
 108.048 346.987 l 1
 105.746 322.613 l 1
EndSplineSet
Validated: 524289
EndChar

StartChar: Percent.77
Encoding: 77 57421 77
Width: 1000
VWidth: 0
HStem: 687.094 66.835<445.849 494.692>
VStem: 494.693 453.925<298.148 434.956>
LayerCount: 2
Fore
SplineSet
494.652 753.929 m 0
 745.354 753.929 948.618 550.663 948.618 299.971 c 0
 948.618 49.3398 745.351 -153.919 494.652 -153.919 c 0
 243.954 -153.919 40.7666 49.3389 40.7666 299.966 c 0
 40.7627 550.663 243.953 753.929 494.652 753.929 c 0
108.049 346.987 m 1
 494.693 298.148 l 1
 494.692 687.865 l 1
 470.223 687.094 l 1
 445.849 684.791 l 1
 421.662 680.958 l 1
 397.776 675.621 l 1
 374.269 668.787 l 1
 351.229 660.497 l 1
 328.761 650.77 l 1
 306.949 639.659 l 1
 285.87 627.193 l 1
 265.625 613.432 l 1
 246.277 598.428 l 1
 227.917 582.236 l 1
 210.604 564.924 l 1
 194.413 546.562 l 1
 179.409 527.216 l 1
 165.647 506.97 l 1
 153.181 485.897 l 1
 142.071 464.08 l 1
 132.344 441.612 l 1
 124.054 418.58 l 1
 117.22 395.064 l 1
 111.882 371.173 l 1
 108.049 346.987 l 1
EndSplineSet
Validated: 524289
EndChar

StartChar: Percent.78
Encoding: 78 57422 78
Width: 1000
VWidth: 0
HStem: 687.093 66.836<445.849 494.692>
VStem: 494.693 453.925<298.147 434.956>
LayerCount: 2
Fore
SplineSet
494.652 753.929 m 0
 745.354 753.929 948.618 550.663 948.618 299.971 c 0
 948.618 49.3398 745.351 -153.919 494.652 -153.919 c 0
 243.954 -153.919 40.7666 49.3389 40.7666 299.966 c 0
 40.7627 550.663 243.953 753.929 494.652 753.929 c 0
111.882 371.172 m 1
 494.693 298.147 l 1
 494.692 687.864 l 1
 470.223 687.093 l 1
 445.849 684.79 l 1
 421.662 680.957 l 1
 397.776 675.62 l 1
 374.269 668.786 l 1
 351.229 660.496 l 1
 328.761 650.769 l 1
 306.949 639.658 l 1
 285.87 627.192 l 1
 265.625 613.431 l 1
 246.277 598.427 l 1
 227.917 582.235 l 1
 210.604 564.923 l 1
 194.413 546.562 l 1
 179.409 527.215 l 1
 165.647 506.969 l 1
 153.181 485.896 l 1
 142.071 464.079 l 1
 132.344 441.611 l 1
 124.054 418.579 l 1
 117.22 395.063 l 1
 111.882 371.172 l 1
EndSplineSet
Validated: 524289
EndChar

StartChar: Percent.79
Encoding: 79 57423 79
Width: 1000
VWidth: 0
HStem: 687.093 66.836<445.848 494.691>
VStem: 494.692 453.926<298.147 434.956>
LayerCount: 2
Fore
SplineSet
494.652 753.929 m 0
 745.354 753.929 948.618 550.663 948.618 299.971 c 0
 948.618 49.3398 745.351 -153.919 494.652 -153.919 c 0
 243.954 -153.919 40.7666 49.3389 40.7666 299.966 c 0
 40.7627 550.663 243.953 753.929 494.652 753.929 c 0
117.219 395.063 m 1
 494.692 298.147 l 1
 494.691 687.864 l 1
 470.222 687.093 l 1
 445.848 684.79 l 1
 421.661 680.957 l 1
 397.775 675.62 l 1
 374.268 668.786 l 1
 351.229 660.496 l 1
 328.76 650.769 l 1
 306.948 639.658 l 1
 285.869 627.192 l 1
 265.624 613.431 l 1
 246.276 598.427 l 1
 227.916 582.235 l 1
 210.604 564.923 l 1
 194.412 546.562 l 1
 179.408 527.215 l 1
 165.646 506.969 l 1
 153.18 485.896 l 1
 142.07 464.079 l 1
 132.343 441.611 l 1
 124.053 418.579 l 1
 117.219 395.063 l 1
EndSplineSet
Validated: 524289
EndChar

StartChar: Percent.80
Encoding: 80 57424 80
Width: 1000
VWidth: 0
HStem: 687.093 66.836<445.849 494.692>
VStem: 494.693 453.925<298.147 434.956>
LayerCount: 2
Fore
SplineSet
494.652 753.929 m 0
 745.354 753.929 948.618 550.663 948.618 299.971 c 0
 948.618 49.3398 745.351 -153.919 494.652 -153.919 c 0
 243.954 -153.919 40.7666 49.3389 40.7666 299.966 c 0
 40.7627 550.663 243.953 753.929 494.652 753.929 c 0
124.054 418.579 m 1
 494.693 298.147 l 1
 494.692 687.864 l 1
 470.223 687.093 l 1
 445.849 684.79 l 1
 421.662 680.957 l 1
 397.776 675.62 l 1
 374.269 668.786 l 1
 351.229 660.496 l 1
 328.761 650.769 l 1
 306.949 639.658 l 1
 285.87 627.192 l 1
 265.625 613.431 l 1
 246.277 598.427 l 1
 227.917 582.235 l 1
 210.604 564.923 l 1
 194.413 546.562 l 1
 179.409 527.215 l 1
 165.647 506.969 l 1
 153.181 485.896 l 1
 142.071 464.079 l 1
 132.344 441.611 l 1
 124.054 418.579 l 1
EndSplineSet
Validated: 524289
EndChar

StartChar: Percent.81
Encoding: 81 57425 81
Width: 1000
VWidth: 0
HStem: 687.093 66.836<445.849 494.692>
VStem: 494.693 453.925<298.147 434.956>
LayerCount: 2
Fore
SplineSet
494.652 753.929 m 0
 745.354 753.929 948.618 550.663 948.618 299.971 c 0
 948.618 49.3398 745.351 -153.919 494.652 -153.919 c 0
 243.954 -153.919 40.7666 49.3389 40.7666 299.966 c 0
 40.7627 550.663 243.953 753.929 494.652 753.929 c 0
132.344 441.611 m 1
 494.693 298.147 l 1
 494.692 687.864 l 1
 470.223 687.093 l 1
 445.849 684.79 l 1
 421.662 680.957 l 1
 397.776 675.62 l 1
 374.269 668.786 l 1
 351.229 660.496 l 1
 328.761 650.769 l 1
 306.949 639.658 l 1
 285.87 627.192 l 1
 265.625 613.431 l 1
 246.277 598.427 l 1
 227.917 582.235 l 1
 210.604 564.923 l 1
 194.413 546.562 l 1
 179.409 527.215 l 1
 165.647 506.969 l 1
 153.181 485.896 l 1
 142.071 464.079 l 1
 132.344 441.611 l 1
EndSplineSet
Validated: 524289
EndChar

StartChar: Percent.82
Encoding: 82 57426 82
Width: 1000
VWidth: 0
HStem: 687.093 66.836<445.849 494.692>
VStem: 494.693 453.925<298.147 434.956>
LayerCount: 2
Fore
SplineSet
494.652 753.929 m 0
 745.354 753.929 948.618 550.663 948.618 299.971 c 0
 948.618 49.3398 745.351 -153.919 494.652 -153.919 c 0
 243.954 -153.919 40.7666 49.3389 40.7666 299.966 c 0
 40.7627 550.663 243.953 753.929 494.652 753.929 c 0
494.693 298.147 m 5
 494.692 687.864 l 1
 470.223 687.093 l 1
 445.849 684.79 l 1
 421.662 680.957 l 1
 397.776 675.62 l 1
 374.269 668.786 l 1
 351.229 660.496 l 1
 328.761 650.769 l 1
 306.949 639.658 l 1
 285.87 627.192 l 1
 265.625 613.431 l 1
 246.277 598.427 l 1
 227.917 582.235 l 1
 210.604 564.923 l 1
 194.413 546.562 l 1
 179.409 527.215 l 1
 165.647 506.969 l 1
 153.181 485.896 l 1
 142.071 464.079 l 5
 494.693 298.147 l 5
EndSplineSet
Validated: 524289
EndChar

StartChar: Percent.83
Encoding: 83 57427 83
Width: 1000
VWidth: 0
HStem: 687.093 66.836<445.849 494.692>
VStem: 494.693 453.925<298.147 434.956>
LayerCount: 2
Fore
SplineSet
494.652 753.929 m 0
 745.354 753.929 948.618 550.663 948.618 299.971 c 0
 948.618 49.3398 745.351 -153.919 494.652 -153.919 c 0
 243.954 -153.919 40.7666 49.3389 40.7666 299.966 c 0
 40.7627 550.663 243.953 753.929 494.652 753.929 c 0
153.181 485.896 m 1
 494.693 298.147 l 1
 494.692 687.864 l 1
 470.223 687.093 l 1
 445.849 684.79 l 1
 421.662 680.957 l 1
 397.776 675.62 l 1
 374.269 668.786 l 1
 351.229 660.496 l 1
 328.761 650.769 l 1
 306.949 639.658 l 1
 285.87 627.192 l 1
 265.625 613.431 l 1
 246.277 598.427 l 1
 227.917 582.235 l 1
 210.604 564.923 l 1
 194.413 546.562 l 1
 179.409 527.215 l 1
 165.647 506.969 l 1
 153.181 485.896 l 1
EndSplineSet
Validated: 524289
EndChar

StartChar: Percent.84
Encoding: 84 57428 84
Width: 1000
VWidth: 0
HStem: 687.093 66.836<445.848 494.691>
VStem: 494.692 453.926<298.147 434.956>
LayerCount: 2
Fore
SplineSet
494.652 753.929 m 0
 745.354 753.929 948.618 550.663 948.618 299.971 c 0
 948.618 49.3398 745.351 -153.919 494.652 -153.919 c 0
 243.954 -153.919 40.7666 49.3389 40.7666 299.966 c 0
 40.7627 550.663 243.953 753.929 494.652 753.929 c 0
165.646 506.969 m 1
 494.692 298.147 l 1
 494.691 687.864 l 1
 470.222 687.093 l 1
 445.848 684.79 l 1
 421.661 680.957 l 1
 397.775 675.62 l 1
 374.268 668.786 l 1
 351.229 660.496 l 1
 328.76 650.769 l 1
 306.948 639.658 l 1
 285.869 627.192 l 1
 265.624 613.431 l 1
 246.276 598.427 l 1
 227.916 582.235 l 1
 210.604 564.923 l 1
 194.412 546.562 l 1
 179.408 527.215 l 1
 165.646 506.969 l 1
EndSplineSet
Validated: 524289
EndChar

StartChar: Percent.85
Encoding: 85 57429 85
Width: 1000
VWidth: 0
HStem: 687.093 66.836<445.848 494.691>
VStem: 494.692 453.926<298.147 434.956>
LayerCount: 2
Fore
SplineSet
494.652 753.929 m 0
 745.354 753.929 948.618 550.663 948.618 299.971 c 0
 948.618 49.3398 745.351 -153.919 494.652 -153.919 c 0
 243.954 -153.919 40.7666 49.3389 40.7666 299.966 c 0
 40.7627 550.663 243.953 753.929 494.652 753.929 c 0
179.408 527.215 m 1
 494.692 298.147 l 1
 494.691 687.864 l 1
 470.222 687.093 l 1
 445.848 684.79 l 1
 421.661 680.957 l 1
 397.775 675.62 l 1
 374.268 668.786 l 1
 351.229 660.496 l 1
 328.76 650.769 l 1
 306.948 639.658 l 1
 285.869 627.192 l 1
 265.624 613.431 l 1
 246.276 598.427 l 1
 227.916 582.235 l 1
 210.604 564.923 l 1
 194.412 546.562 l 1
 179.408 527.215 l 1
EndSplineSet
Validated: 524289
EndChar

StartChar: Percent.86
Encoding: 86 57430 86
Width: 1000
VWidth: 0
HStem: 687.093 66.836<445.848 494.691>
VStem: 494.692 453.926<298.147 434.956>
LayerCount: 2
Fore
SplineSet
494.652 753.929 m 0
 745.354 753.929 948.618 550.663 948.618 299.971 c 0
 948.618 49.3398 745.351 -153.919 494.652 -153.919 c 0
 243.954 -153.919 40.7666 49.3389 40.7666 299.966 c 0
 40.7627 550.663 243.953 753.929 494.652 753.929 c 0
194.412 546.562 m 1
 494.692 298.147 l 1
 494.691 687.864 l 1
 470.222 687.093 l 1
 445.848 684.79 l 1
 421.661 680.957 l 1
 397.775 675.62 l 1
 374.268 668.786 l 1
 351.229 660.496 l 1
 328.76 650.769 l 1
 306.948 639.658 l 1
 285.869 627.192 l 1
 265.624 613.431 l 1
 246.276 598.427 l 1
 227.916 582.235 l 1
 210.604 564.923 l 1
 194.412 546.562 l 1
EndSplineSet
Validated: 524289
EndChar

StartChar: Percent.87
Encoding: 87 57431 87
Width: 1000
VWidth: 0
HStem: 687.093 66.836<445.848 494.691>
VStem: 494.692 453.926<298.147 434.956>
LayerCount: 2
Fore
SplineSet
494.652 753.929 m 0
 745.354 753.929 948.618 550.663 948.618 299.971 c 0
 948.618 49.3398 745.351 -153.919 494.652 -153.919 c 0
 243.954 -153.919 40.7666 49.3389 40.7666 299.966 c 0
 40.7627 550.663 243.953 753.929 494.652 753.929 c 0
210.604 564.923 m 1
 494.692 298.147 l 1
 494.691 687.864 l 1
 470.222 687.093 l 1
 445.848 684.79 l 1
 421.661 680.957 l 1
 397.775 675.62 l 1
 374.268 668.786 l 1
 351.229 660.496 l 1
 328.76 650.769 l 1
 306.948 639.658 l 1
 285.869 627.192 l 1
 265.624 613.431 l 1
 246.276 598.427 l 1
 227.916 582.235 l 1
 210.604 564.923 l 1
EndSplineSet
Validated: 524289
EndChar

StartChar: Percent.88
Encoding: 88 57432 88
Width: 1000
VWidth: 0
HStem: 687.092 66.837<445.848 494.691>
VStem: 494.692 453.926<298.146 434.956>
LayerCount: 2
Fore
SplineSet
494.652 753.929 m 0
 745.354 753.929 948.618 550.663 948.618 299.971 c 0
 948.618 49.3398 745.351 -153.919 494.652 -153.919 c 0
 243.954 -153.919 40.7666 49.3389 40.7666 299.966 c 0
 40.7627 550.663 243.953 753.929 494.652 753.929 c 0
227.916 582.234 m 1
 494.692 298.146 l 1
 494.691 687.863 l 1
 470.222 687.092 l 1
 445.848 684.789 l 1
 421.661 680.956 l 1
 397.775 675.619 l 1
 374.268 668.785 l 1
 351.229 660.495 l 1
 328.76 650.768 l 1
 306.948 639.657 l 1
 285.869 627.191 l 1
 265.624 613.43 l 1
 246.276 598.426 l 1
 227.916 582.234 l 1
EndSplineSet
Validated: 524289
EndChar

StartChar: Percent.89
Encoding: 89 57433 89
Width: 1000
VWidth: 0
HStem: 687.092 66.837<445.848 494.691>
VStem: 494.692 453.926<298.146 434.956>
LayerCount: 2
Fore
SplineSet
494.652 753.929 m 0
 745.354 753.929 948.618 550.663 948.618 299.971 c 0
 948.618 49.3398 745.351 -153.919 494.652 -153.919 c 0
 243.954 -153.919 40.7666 49.3389 40.7666 299.966 c 0
 40.7627 550.663 243.953 753.929 494.652 753.929 c 0
246.276 598.426 m 1
 494.692 298.146 l 1
 494.691 687.863 l 1
 470.222 687.092 l 1
 445.848 684.789 l 1
 421.661 680.956 l 1
 397.775 675.619 l 1
 374.268 668.785 l 1
 351.229 660.495 l 1
 328.76 650.768 l 1
 306.948 639.657 l 1
 285.869 627.191 l 1
 265.624 613.43 l 1
 246.276 598.426 l 1
EndSplineSet
Validated: 524289
EndChar

StartChar: Percent.90
Encoding: 90 57434 90
Width: 1000
VWidth: 0
HStem: 687.092 66.837<445.847 494.69>
VStem: 494.691 453.927<298.146 434.956>
LayerCount: 2
Fore
SplineSet
494.652 753.929 m 0
 745.354 753.929 948.618 550.663 948.618 299.971 c 0
 948.618 49.3398 745.351 -153.919 494.652 -153.919 c 0
 243.954 -153.919 40.7666 49.3389 40.7666 299.966 c 0
 40.7627 550.663 243.953 753.929 494.652 753.929 c 0
265.623 613.43 m 1
 494.691 298.146 l 1
 494.69 687.863 l 1
 470.221 687.092 l 1
 445.847 684.789 l 1
 421.66 680.956 l 1
 397.774 675.619 l 1
 374.267 668.785 l 1
 351.228 660.495 l 1
 328.759 650.768 l 1
 306.947 639.657 l 1
 285.868 627.191 l 1
 265.623 613.43 l 1
EndSplineSet
Validated: 524289
EndChar

StartChar: Percent.91
Encoding: 91 57435 91
Width: 1000
VWidth: 0
HStem: 687.092 66.837<445.848 494.691>
VStem: 494.692 453.926<298.146 434.956>
LayerCount: 2
Fore
SplineSet
494.652 753.929 m 0
 745.354 753.929 948.618 550.663 948.618 299.971 c 0
 948.618 49.3398 745.351 -153.919 494.652 -153.919 c 0
 243.954 -153.919 40.7666 49.3389 40.7666 299.966 c 0
 40.7627 550.663 243.953 753.929 494.652 753.929 c 0
285.869 627.191 m 1
 494.692 298.146 l 1
 494.691 687.863 l 1
 470.222 687.092 l 1
 445.848 684.789 l 1
 421.661 680.956 l 1
 397.775 675.619 l 1
 374.268 668.785 l 1
 351.229 660.495 l 1
 328.76 650.768 l 1
 306.948 639.657 l 1
 285.869 627.191 l 1
EndSplineSet
Validated: 524289
EndChar

StartChar: Percent.92
Encoding: 92 57436 92
Width: 1000
VWidth: 0
HStem: 687.092 66.837<445.848 494.691>
VStem: 494.692 453.926<298.146 434.956>
LayerCount: 2
Fore
SplineSet
494.652 753.929 m 0
 745.354 753.929 948.618 550.663 948.618 299.971 c 0
 948.618 49.3398 745.351 -153.919 494.652 -153.919 c 0
 243.954 -153.919 40.7666 49.3389 40.7666 299.966 c 0
 40.7627 550.663 243.953 753.929 494.652 753.929 c 0
306.948 639.657 m 1
 494.692 298.146 l 1
 494.691 687.863 l 1
 470.222 687.092 l 1
 445.848 684.789 l 1
 421.661 680.956 l 1
 397.775 675.619 l 1
 374.268 668.785 l 1
 351.229 660.495 l 1
 328.76 650.768 l 1
 306.948 639.657 l 1
EndSplineSet
Validated: 524289
EndChar

StartChar: Percent.93
Encoding: 93 57437 93
Width: 1000
VWidth: 0
HStem: 687.092 66.837<445.848 494.691>
VStem: 494.692 453.926<298.146 434.956>
LayerCount: 2
Fore
SplineSet
494.652 753.929 m 0
 745.354 753.929 948.618 550.663 948.618 299.971 c 0
 948.618 49.3398 745.351 -153.919 494.652 -153.919 c 0
 243.954 -153.919 40.7666 49.3389 40.7666 299.966 c 0
 40.7627 550.663 243.953 753.929 494.652 753.929 c 0
328.76 650.768 m 1
 494.692 298.146 l 1
 494.691 687.863 l 1
 470.222 687.092 l 1
 445.848 684.789 l 1
 421.661 680.956 l 1
 397.775 675.619 l 1
 374.268 668.785 l 1
 351.229 660.495 l 1
 328.76 650.768 l 1
EndSplineSet
Validated: 524289
EndChar

StartChar: Percent.94
Encoding: 94 57438 94
Width: 1000
VWidth: 0
HStem: 687.092 66.837<445.847 494.69>
VStem: 494.691 453.927<298.146 434.956>
LayerCount: 2
Fore
SplineSet
494.652 753.929 m 0
 745.354 753.929 948.618 550.663 948.618 299.971 c 0
 948.618 49.3398 745.351 -153.919 494.652 -153.919 c 0
 243.954 -153.919 40.7666 49.3389 40.7666 299.966 c 0
 40.7627 550.663 243.953 753.929 494.652 753.929 c 0
351.228 660.495 m 1
 494.691 298.146 l 1
 494.69 687.863 l 1
 470.221 687.092 l 1
 445.847 684.789 l 1
 421.66 680.956 l 1
 397.774 675.619 l 1
 374.267 668.785 l 1
 351.228 660.495 l 1
EndSplineSet
Validated: 524289
EndChar

StartChar: Percent.95
Encoding: 95 57439 95
Width: 1000
VWidth: 0
HStem: 687.092 66.837<445.847 494.69>
VStem: 494.691 453.927<298.146 434.956>
LayerCount: 2
Fore
SplineSet
494.652 753.929 m 0
 745.354 753.929 948.618 550.663 948.618 299.971 c 0
 948.618 49.3398 745.351 -153.919 494.652 -153.919 c 0
 243.954 -153.919 40.7666 49.3389 40.7666 299.966 c 0
 40.7627 550.663 243.953 753.929 494.652 753.929 c 0
374.267 668.785 m 1
 494.691 298.146 l 1
 494.69 687.863 l 1
 470.221 687.092 l 1
 445.847 684.789 l 1
 421.66 680.956 l 1
 397.774 675.619 l 1
 374.267 668.785 l 1
EndSplineSet
Validated: 524289
EndChar

StartChar: Percent.96
Encoding: 96 57440 96
Width: 1000
VWidth: 0
HStem: 687.092 66.837<445.848 494.691>
VStem: 494.692 453.926<298.146 434.956>
LayerCount: 2
Fore
SplineSet
494.652 753.929 m 0
 745.354 753.929 948.618 550.663 948.618 299.971 c 0
 948.618 49.3398 745.351 -153.919 494.652 -153.919 c 0
 243.954 -153.919 40.7666 49.3389 40.7666 299.966 c 0
 40.7627 550.663 243.953 753.929 494.652 753.929 c 0
397.775 675.619 m 1
 494.692 298.146 l 1
 494.691 687.863 l 1
 470.222 687.092 l 1
 445.848 684.789 l 1
 421.661 680.956 l 1
 397.775 675.619 l 1
EndSplineSet
Validated: 524289
EndChar

StartChar: Percent.97
Encoding: 97 57441 97
Width: 1000
VWidth: 0
HStem: 687.092 66.837<445.848 494.691>
VStem: 494.692 453.926<298.146 434.956>
LayerCount: 2
Fore
SplineSet
494.652 753.929 m 0
 745.354 753.929 948.618 550.663 948.618 299.971 c 0
 948.618 49.3398 745.351 -153.919 494.652 -153.919 c 0
 243.954 -153.919 40.7666 49.3389 40.7666 299.966 c 0
 40.7627 550.663 243.953 753.929 494.652 753.929 c 0
421.661 680.956 m 1
 494.692 298.146 l 1
 494.691 687.863 l 1
 470.222 687.092 l 1
 445.848 684.789 l 1
 421.661 680.956 l 1
EndSplineSet
Validated: 524289
EndChar

StartChar: Percent.98
Encoding: 98 57442 98
Width: 1000
VWidth: 0
HStem: 687.092 66.837<448.241 494.69>
VStem: 494.691 453.927<298.146 434.956>
LayerCount: 2
Fore
SplineSet
494.652 753.929 m 0
 745.354 753.929 948.618 550.663 948.618 299.971 c 0
 948.618 49.3398 745.351 -153.919 494.652 -153.919 c 0
 243.954 -153.919 40.7666 49.3389 40.7666 299.966 c 0
 40.7627 550.663 243.953 753.929 494.652 753.929 c 0
445.847 684.789 m 1
 494.691 298.146 l 1
 494.69 687.863 l 1
 470.221 687.092 l 1
 445.847 684.789 l 1
EndSplineSet
Validated: 524289
EndChar

StartChar: Percent.99
Encoding: 99 57443 99
Width: 1000
VWidth: 0
HStem: 687.092 66.837<471.293 494.69>
VStem: 494.691 453.927<298.146 434.956>
LayerCount: 2
Fore
SplineSet
494.652 753.929 m 0
 745.354 753.929 948.618 550.663 948.618 299.971 c 0
 948.618 49.3398 745.351 -153.919 494.652 -153.919 c 0
 243.954 -153.919 40.7666 49.3389 40.7666 299.966 c 0
 40.7627 550.663 243.953 753.929 494.652 753.929 c 0
470.221 687.092 m 1
 494.691 298.146 l 1
 494.69 687.863 l 1
 470.221 687.092 l 1
EndSplineSet
Validated: 524289
EndChar

StartChar: Percent.100
Encoding: 100 57444 100
Width: 1000
VWidth: 0
HStem: -153.92 907.849<359.671 629.64>
VStem: 40.7656 907.852<165.014 434.953>
LayerCount: 2
Fore
SplineSet
494.652 753.929 m 0
 745.354 753.929 948.618 550.663 948.618 299.97 c 0
 948.618 49.3389 745.351 -153.92 494.652 -153.92 c 0
 243.954 -153.92 40.7656 49.3389 40.7656 299.965 c 0
 40.7617 550.663 243.953 753.929 494.652 753.929 c 0
EndSplineSet
Validated: 524289
EndChar
